<svg width="190" height="22" viewBox="0 0 190 22" fill="none" xmlns="http://www.w3.org/2000/svg">
                    <g filter="url(#filter0_i_192_12704)">
                        <path fill-rule="evenodd" clip-rule="evenodd" d="M13.543 0.488281C13.2359 0.488281 13.0823 0.488281 12.965 0.548059C12.8618 0.600642 12.7778 0.684544 12.7253 0.787743C12.6655 0.905064 12.6655 1.05865 12.6655 1.36581V4.69996C12.6655 5.00712 12.6655 5.1607 12.7253 5.27802C12.7778 5.38122 12.8618 5.46512 12.965 5.51771C13.0823 5.57748 13.2359 5.57748 13.543 5.57748H16.8698C17.177 5.57748 17.3305 5.57748 17.4479 5.51771C17.5511 5.46512 17.635 5.38122 17.6875 5.27802C17.7473 5.1607 17.7473 5.00712 17.7473 4.69996V1.36581C17.7473 1.05865 17.7473 0.905064 17.6875 0.787743C17.635 0.684544 17.5511 0.600642 17.4479 0.548059C17.3305 0.488281 17.177 0.488281 16.8698 0.488281H13.543ZM37.018 0.488296C37.3251 0.488296 37.4787 0.488296 37.596 0.548075C37.6992 0.600657 37.7831 0.68456 37.8357 0.787758C37.8955 0.905079 37.8955 1.05866 37.8955 1.36582V4.67703C37.8955 4.9842 37.8955 5.13778 37.8357 5.2551C37.7831 5.3583 37.6992 5.4422 37.596 5.49478C37.4787 5.55456 37.3251 5.55456 37.018 5.55456H21.0411C20.734 5.55456 20.5804 5.55456 20.463 5.49478C20.3598 5.4422 20.2759 5.3583 20.2234 5.2551C20.1636 5.13778 20.1636 4.9842 20.1636 4.67703V1.36582C20.1636 1.05866 20.1636 0.905079 20.2234 0.787758C20.2759 0.68456 20.3598 0.600657 20.463 0.548075C20.5804 0.488296 20.734 0.488296 21.0411 0.488296H37.018ZM0.877483 21.5123C0.57032 21.5123 0.416737 21.5123 0.299416 21.4525C0.196217 21.3999 0.112316 21.316 0.0597305 21.2128C-4.57764e-05 21.0955 -4.57764e-05 20.9419 -4.57764e-05 20.6348V17.3235C-4.57764e-05 17.0164 -4.57764e-05 16.8628 0.0597305 16.7455C0.112316 16.6423 0.196217 16.5584 0.299416 16.5058C0.416737 16.446 0.57032 16.446 0.87748 16.446H16.8543C17.1615 16.446 17.3151 16.446 17.4324 16.5058C17.5356 16.5584 17.6195 16.6423 17.6721 16.7455C17.7319 16.8628 17.7319 17.0164 17.7319 17.3235V20.6348C17.7319 20.9419 17.7319 21.0955 17.6721 21.2128C17.6195 21.316 17.5356 21.3999 17.4324 21.4525C17.3151 21.5123 17.1615 21.5123 16.8543 21.5123H0.877483ZM7.20001 8.42956C6.89285 8.42956 6.73927 8.42956 6.62195 8.48934C6.51875 8.54192 6.43484 8.62582 6.38226 8.72902C6.32248 8.84634 6.32248 8.99992 6.32248 9.30708V12.8271C6.32248 13.1343 6.32248 13.2878 6.38226 13.4052C6.43484 13.5084 6.51875 13.5923 6.62195 13.6448C6.73927 13.7046 6.89285 13.7046 7.20001 13.7046H16.852C17.1592 13.7046 17.3128 13.7046 17.4301 13.6448C17.5333 13.5923 17.6172 13.5084 17.6698 13.4052C17.7296 13.2878 17.7296 13.1343 17.7296 12.8271V9.30709C17.7296 8.99992 17.7296 8.84634 17.6698 8.72902C17.6172 8.62582 17.5333 8.54192 17.4301 8.48934C17.3128 8.42956 17.1592 8.42956 16.852 8.42956H7.20001ZM30.6959 8.29618C31.003 8.29618 31.1566 8.29618 31.274 8.35595C31.3771 8.40854 31.4611 8.49244 31.5136 8.59564C31.5734 8.71296 31.5734 8.86654 31.5734 9.1737V12.6937C31.5734 13.0009 31.5734 13.1545 31.5136 13.2718C31.4611 13.375 31.3771 13.4589 31.274 13.5115C31.1566 13.5712 31.003 13.5712 30.6959 13.5712H21.0438C20.7367 13.5712 20.5831 13.5712 20.4658 13.5115C20.3626 13.4589 20.2787 13.375 20.2261 13.2718C20.1663 13.1545 20.1663 13.0009 20.1663 12.6937V9.1737C20.1663 8.86654 20.1663 8.71296 20.2261 8.59564C20.2787 8.49244 20.3626 8.40854 20.4658 8.35595C20.5831 8.29618 20.7367 8.29618 21.0438 8.29618H30.6959ZM24.3524 16.4232C24.6596 16.4232 24.8132 16.4232 24.9305 16.4829C25.0337 16.5355 25.1176 16.6194 25.1702 16.7226C25.23 16.8399 25.23 16.9935 25.23 17.3007V20.6348C25.23 20.942 25.23 21.0956 25.1702 21.2129C25.1176 21.3161 25.0337 21.4 24.9305 21.4526C24.8132 21.5124 24.6596 21.5124 24.3524 21.5124H21.0257C20.7185 21.5124 20.5649 21.5124 20.4476 21.4526C20.3444 21.4 20.2605 21.3161 20.2079 21.2129C20.1481 21.0956 20.1481 20.942 20.1481 20.6348V17.3007C20.1481 16.9935 20.1481 16.8399 20.2079 16.7226C20.2605 16.6194 20.3444 16.5355 20.4476 16.4829C20.5649 16.4232 20.7185 16.4232 21.0257 16.4232H24.3524Z" fill="#D9D9D9"></path>
                        <path fill-rule="evenodd" clip-rule="evenodd" d="M13.543 0.488281C13.2359 0.488281 13.0823 0.488281 12.965 0.548059C12.8618 0.600642 12.7778 0.684544 12.7253 0.787743C12.6655 0.905064 12.6655 1.05865 12.6655 1.36581V4.69996C12.6655 5.00712 12.6655 5.1607 12.7253 5.27802C12.7778 5.38122 12.8618 5.46512 12.965 5.51771C13.0823 5.57748 13.2359 5.57748 13.543 5.57748H16.8698C17.177 5.57748 17.3305 5.57748 17.4479 5.51771C17.5511 5.46512 17.635 5.38122 17.6875 5.27802C17.7473 5.1607 17.7473 5.00712 17.7473 4.69996V1.36581C17.7473 1.05865 17.7473 0.905064 17.6875 0.787743C17.635 0.684544 17.5511 0.600642 17.4479 0.548059C17.3305 0.488281 17.177 0.488281 16.8698 0.488281H13.543ZM37.018 0.488296C37.3251 0.488296 37.4787 0.488296 37.596 0.548075C37.6992 0.600657 37.7831 0.68456 37.8357 0.787758C37.8955 0.905079 37.8955 1.05866 37.8955 1.36582V4.67703C37.8955 4.9842 37.8955 5.13778 37.8357 5.2551C37.7831 5.3583 37.6992 5.4422 37.596 5.49478C37.4787 5.55456 37.3251 5.55456 37.018 5.55456H21.0411C20.734 5.55456 20.5804 5.55456 20.463 5.49478C20.3598 5.4422 20.2759 5.3583 20.2234 5.2551C20.1636 5.13778 20.1636 4.9842 20.1636 4.67703V1.36582C20.1636 1.05866 20.1636 0.905079 20.2234 0.787758C20.2759 0.68456 20.3598 0.600657 20.463 0.548075C20.5804 0.488296 20.734 0.488296 21.0411 0.488296H37.018ZM0.877483 21.5123C0.57032 21.5123 0.416737 21.5123 0.299416 21.4525C0.196217 21.3999 0.112316 21.316 0.0597305 21.2128C-4.57764e-05 21.0955 -4.57764e-05 20.9419 -4.57764e-05 20.6348V17.3235C-4.57764e-05 17.0164 -4.57764e-05 16.8628 0.0597305 16.7455C0.112316 16.6423 0.196217 16.5584 0.299416 16.5058C0.416737 16.446 0.57032 16.446 0.87748 16.446H16.8543C17.1615 16.446 17.3151 16.446 17.4324 16.5058C17.5356 16.5584 17.6195 16.6423 17.6721 16.7455C17.7319 16.8628 17.7319 17.0164 17.7319 17.3235V20.6348C17.7319 20.9419 17.7319 21.0955 17.6721 21.2128C17.6195 21.316 17.5356 21.3999 17.4324 21.4525C17.3151 21.5123 17.1615 21.5123 16.8543 21.5123H0.877483ZM7.20001 8.42956C6.89285 8.42956 6.73927 8.42956 6.62195 8.48934C6.51875 8.54192 6.43484 8.62582 6.38226 8.72902C6.32248 8.84634 6.32248 8.99992 6.32248 9.30708V12.8271C6.32248 13.1343 6.32248 13.2878 6.38226 13.4052C6.43484 13.5084 6.51875 13.5923 6.62195 13.6448C6.73927 13.7046 6.89285 13.7046 7.20001 13.7046H16.852C17.1592 13.7046 17.3128 13.7046 17.4301 13.6448C17.5333 13.5923 17.6172 13.5084 17.6698 13.4052C17.7296 13.2878 17.7296 13.1343 17.7296 12.8271V9.30709C17.7296 8.99992 17.7296 8.84634 17.6698 8.72902C17.6172 8.62582 17.5333 8.54192 17.4301 8.48934C17.3128 8.42956 17.1592 8.42956 16.852 8.42956H7.20001ZM30.6959 8.29618C31.003 8.29618 31.1566 8.29618 31.274 8.35595C31.3771 8.40854 31.4611 8.49244 31.5136 8.59564C31.5734 8.71296 31.5734 8.86654 31.5734 9.1737V12.6937C31.5734 13.0009 31.5734 13.1545 31.5136 13.2718C31.4611 13.375 31.3771 13.4589 31.274 13.5115C31.1566 13.5712 31.003 13.5712 30.6959 13.5712H21.0438C20.7367 13.5712 20.5831 13.5712 20.4658 13.5115C20.3626 13.4589 20.2787 13.375 20.2261 13.2718C20.1663 13.1545 20.1663 13.0009 20.1663 12.6937V9.1737C20.1663 8.86654 20.1663 8.71296 20.2261 8.59564C20.2787 8.49244 20.3626 8.40854 20.4658 8.35595C20.5831 8.29618 20.7367 8.29618 21.0438 8.29618H30.6959ZM24.3524 16.4232C24.6596 16.4232 24.8132 16.4232 24.9305 16.4829C25.0337 16.5355 25.1176 16.6194 25.1702 16.7226C25.23 16.8399 25.23 16.9935 25.23 17.3007V20.6348C25.23 20.942 25.23 21.0956 25.1702 21.2129C25.1176 21.3161 25.0337 21.4 24.9305 21.4526C24.8132 21.5124 24.6596 21.5124 24.3524 21.5124H21.0257C20.7185 21.5124 20.5649 21.5124 20.4476 21.4526C20.3444 21.4 20.2605 21.3161 20.2079 21.2129C20.1481 21.0956 20.1481 20.942 20.1481 20.6348V17.3007C20.1481 16.9935 20.1481 16.8399 20.2079 16.7226C20.2605 16.6194 20.3444 16.5355 20.4476 16.4829C20.5649 16.4232 20.7185 16.4232 21.0257 16.4232H24.3524Z" fill="url(#paint0_linear_192_12704)"></path>
                    </g>
                    <path d="M114.604 2.32617L108.502 14.128V19.9536H104.208V14.128L98.1064 2.32617H102.978L106.393 9.70858L109.783 2.32617H114.604Z" fill="white"></path>
                    <path d="M96.9803 2.32617V5.76627H89.7987V9.48259H95.1723V12.8222H89.7987V19.9536H85.5049V2.32617H96.9803Z" fill="white"></path>
                    <path d="M82.1415 2.32617V19.9536H77.8477V2.32617H82.1415Z" fill="white"></path>
                    <path d="M70.444 19.9536L66.8532 14.5549L63.6893 19.9536H58.8179L64.4677 10.9892L58.6924 2.32617H63.6893L67.2299 7.64954L70.3435 2.32617H75.2149L69.6153 11.2152L75.4409 19.9536H70.444Z" fill="white"></path>
                    <path d="M57.1385 2.32617V5.76627H49.9569V9.48259H55.3305V12.8222H49.9569V19.9536H45.6631V2.32617H57.1385Z" fill="white"></path>
                    <path d="M179.637 20.0945C178.26 20.0945 176.901 19.6619 175.561 18.7968V16.8411C176 17.2676 176.59 17.6514 177.334 17.9926C178.077 18.3337 178.839 18.5043 179.618 18.5043C180.252 18.5043 180.752 18.3886 181.117 18.1571C181.483 17.9134 181.659 17.6026 181.647 17.2249C181.647 16.8959 181.446 16.6157 181.044 16.3841C180.654 16.1526 179.984 15.9394 179.034 15.7444C177.815 15.4764 176.913 15.1352 176.328 14.7209C175.744 14.2944 175.451 13.7095 175.451 12.9662C175.451 12.0767 175.829 11.3761 176.584 10.8643C177.352 10.3526 178.266 10.0967 179.326 10.0967C180.557 10.0967 181.806 10.4561 183.073 11.1751V12.9114C181.757 12.0828 180.508 11.6685 179.326 11.6685C178.765 11.6685 178.284 11.7904 177.882 12.0341C177.48 12.2656 177.279 12.5702 177.279 12.948C177.279 13.3501 177.59 13.6608 178.211 13.8801C178.504 13.9898 179.143 14.1482 180.13 14.3553C181.337 14.6112 182.189 14.9768 182.689 15.452C183.201 15.9272 183.457 16.5182 183.457 17.2249C183.457 18.1631 183.091 18.876 182.36 19.3634C181.629 19.8508 180.721 20.0945 179.637 20.0945Z" fill="white"></path>
                    <path d="M169.359 20.0945C167.97 20.0945 166.794 19.6071 165.832 18.6323C164.869 17.6453 164.388 16.4633 164.388 15.0864C164.388 13.6973 164.875 12.5215 165.85 11.5589C166.825 10.5841 167.994 10.0967 169.359 10.0967C170.578 10.0967 171.644 10.5049 172.558 11.3213C173.484 12.1255 174.038 13.1247 174.221 14.3188C174.331 14.8671 174.337 15.3484 174.239 15.7627H166.197C166.307 16.5791 166.654 17.231 167.239 17.7184C167.836 18.2058 168.543 18.4495 169.359 18.4495C169.932 18.4495 170.474 18.3276 170.986 18.0839C171.498 17.8402 171.918 17.5052 172.247 17.0787L173.874 17.4991C173.484 18.2789 172.868 18.9064 172.028 19.3816C171.187 19.8569 170.297 20.0945 169.359 20.0945ZM166.197 14.3371H172.448C172.326 13.5938 171.979 12.9723 171.406 12.4728C170.834 11.9732 170.145 11.7234 169.341 11.7234C168.525 11.7234 167.824 11.9793 167.239 12.491C166.654 12.9906 166.307 13.606 166.197 14.3371Z" fill="white"></path>
                    <path d="M158.312 19.9486V10.2615H160.14V12.0162C160.433 11.346 160.908 10.8464 161.566 10.5174C162.236 10.1762 163.04 10.0788 163.979 10.225V12.1624C162.955 11.87 162.059 11.9979 161.292 12.5462C160.524 13.0945 160.14 13.9292 160.14 15.0502V19.9486H158.312Z" fill="white"></path>
                    <path d="M151.467 20.1133C150.359 20.1133 149.402 19.7538 148.598 19.0349C147.794 18.3038 147.392 17.3412 147.392 16.1471V10.2617H149.219V15.6353C149.219 16.4883 149.469 17.1645 149.969 17.6641C150.48 18.1515 151.096 18.3952 151.815 18.3952C152.643 18.3952 153.32 18.0967 153.844 17.4996C154.38 16.9025 154.648 16.1471 154.648 15.2332V10.2617H156.476V19.9488H154.648V18.4683C153.892 19.565 152.832 20.1133 151.467 20.1133Z" fill="white"></path>
                    <path d="M146.029 19.8758C144.543 20.2779 143.349 20.217 142.447 19.693C141.558 19.1691 141.113 18.2308 141.113 16.8783L141.131 11.852H139.212V10.2618H141.131V7.75781H142.941L142.922 10.2618H145.993V11.852H142.922L142.904 16.86C142.904 17.5424 143.16 18.0054 143.672 18.2491C144.196 18.4806 144.982 18.438 146.029 18.1212V19.8758Z" fill="white"></path>
                    <path d="M132.823 20.1133C131.714 20.1133 130.758 19.7538 129.953 19.0349C129.149 18.3038 128.747 17.3412 128.747 16.1471V10.2617H130.575V15.6353C130.575 16.4883 130.825 17.1645 131.324 17.6641C131.836 18.1515 132.451 18.3952 133.17 18.3952C133.999 18.3952 134.675 18.0967 135.199 17.4996C135.735 16.9025 136.003 16.1471 136.003 15.2332V10.2617H137.831V19.9488H136.003V18.4683C135.248 19.565 134.188 20.1133 132.823 20.1133Z" fill="white"></path>
                    <path d="M118.438 19.9485V7.1543H127.559V8.89066H120.321V12.6924H126.828V14.3922H120.321V19.9485H118.438Z" fill="white"></path>
                    <path d="M187.487 4.76563H187.141V2.07129H187.487L188.572 3.96503L189.654 2.07129H190V4.76563H189.654V2.72948L188.684 4.43077H188.457L187.487 2.73333V4.76563Z" fill="white"></path>
                    <path d="M185.421 2.39461H184.412V2.07129H186.775V2.39461H185.767V4.76563H185.421V2.39461Z" fill="white"></path>
                    <defs>
                        <filter id="filter0_i_192_12704" x="-0.623507" y="0.488281" width="38.519" height="21.6479" filterUnits="userSpaceOnUse" color-interpolation-filters="sRGB">
                            <feFlood flood-opacity="0" result="BackgroundImageFix"></feFlood>
                            <feBlend mode="normal" in="SourceGraphic" in2="BackgroundImageFix" result="shape"></feBlend>
                            <feColorMatrix in="SourceAlpha" type="matrix" values="0 0 0 0 0 0 0 0 0 0 0 0 0 0 0 0 0 0 127 0" result="hardAlpha">
                            </feColorMatrix>
                            <feOffset dx="-0.623507" dy="0.623507"></feOffset>
                            <feGaussianBlur stdDeviation="0.935261"></feGaussianBlur>
                            <feComposite in2="hardAlpha" operator="arithmetic" k2="-1" k3="1">
                            </feComposite>
                            <feColorMatrix type="matrix" values="0 0 0 0 1 0 0 0 0 1 0 0 0 0 1 0 0 0 0.23 0">
                            </feColorMatrix>
                            <feBlend mode="normal" in2="shape" result="effect1_innerShadow_192_12704">
                            </feBlend>
                        </filter>
                        <linearGradient id="paint0_linear_192_12704" x1="-5.14422" y1="4.36594" x2="4.02063" y2="27.8914" gradientUnits="userSpaceOnUse">
                            <stop stop-color="#E0F4FF"></stop>
                            <stop offset="1" stop-color="#207ED5"></stop>
                        </linearGradient>
                    </defs>
                </svg>