<svg width="182" height="34" viewBox="0 0 182 34" fill="none" xmlns="http://www.w3.org/2000/svg">
                            <path d="M27.9569 0.5H0.903682C0.404592 0.5 0 0.886399 0 1.36305V5.67828C0 6.15493 0.404592 6.54133 0.903682 6.54133H27.9569C28.4559 6.54133 28.8605 6.15493 28.8605 5.67828V1.36305C28.8605 0.886399 28.4559 0.5 27.9569 0.5Z" fill="white"></path>
                            <path d="M27.9631 8.47412H5.41564C4.91655 8.47412 4.51196 8.86052 4.51196 9.33717V13.6524C4.51196 14.1291 4.91655 14.5154 5.41564 14.5154H27.9631C28.4622 14.5154 28.8668 14.1291 28.8668 13.6524V9.33717C28.8668 8.86052 28.4622 8.47412 27.9631 8.47412Z" fill="white"></path>
                            <path d="M27.9568 16.4419H9.92138C9.42229 16.4419 9.0177 16.8283 9.0177 17.3049V21.6202C9.0177 22.0968 9.42229 22.4832 9.92138 22.4832H27.9568C28.4559 22.4832 28.8605 22.0968 28.8605 21.6202V17.3049C28.8605 16.8283 28.4559 16.4419 27.9568 16.4419Z" fill="white"></path>
                            <path d="M27.9569 24.416H14.4335C13.9344 24.416 13.5298 24.8024 13.5298 25.2791V29.5943C13.5298 30.0709 13.9344 30.4573 14.4335 30.4573H27.9569C28.456 30.4573 28.8606 30.0709 28.8606 29.5943V25.2791C28.8606 24.8024 28.456 24.416 27.9569 24.416Z" fill="white"></path>
                            <path d="M36.981 30.5V0.5H58.8793V7.47123H45.3177V13.2755H55.8183V19.8395H45.3177V30.5H36.981V30.5Z" fill="white"></path>
                            <path d="M60.1012 30.5L70.7927 15.1657L60.1012 0.5H70.3663L75.5911 8.27958L80.6313 0.5H89.91L80.1604 14.3999L91.9783 30.5H81.5732L75.3111 21.28L69.2335 30.5H60.0948H60.1012Z" fill="white"></path>
                            <path d="M95.0902 30.5V0.5H103.427V30.5H95.0902Z" fill="white"></path>
                            <path d="M109.078 30.5V0.5H130.976V7.47123H117.415V13.2755H127.915V19.8395H117.415V30.5H109.078Z" fill="white"></path>
                            <path d="M143.456 30.5V18.5328L132.294 0.5H141.853L147.975 11.203L153.721 0.5H163L151.793 18.4903V30.5H143.456Z" fill="white"></path>
                            <path d="M70.7926 15.1596L60.1012 0.5H70.3663L75.5911 8.27958M80.1604 14.3938L91.9782 30.4939H81.5732L75.311 21.2739" fill="white"></path>
                            <path xmlns="http://www.w3.org/2000/svg" d="M172.587 0.45459H174.038L175.981 5.19749H176.058L178.001 0.45459H179.452V7.00004H178.314V2.50324H178.253L176.445 6.98087H175.594L173.785 2.49365H173.725V7.00004H172.587V0.45459Z" fill="white"></path>
                            <path xmlns="http://www.w3.org/2000/svg" d="M166.358 1.44855V0.45459H171.58V1.44855H169.557V7.00004H168.381V1.44855H166.358Z" fill="white"></path>
                        </svg>