<svg width="98" height="61" viewBox="0 0 98 61" fill="none" xmlns="http://www.w3.org/2000/svg">
<mask id="mask0_1055_17257" style="mask-type:alpha" maskUnits="userSpaceOnUse" x="0" y="-19" width="99" height="99">
<rect x="0.777985" y="-18.0488" width="97.2222" height="97.2222" fill="url(#paint0_linear_1055_17257)"/>
</mask>
<g mask="url(#mask0_1055_17257)">
<rect x="1.24095" y="-5.08587" width="21.2963" height="21.2963" rx="10.6481" stroke="url(#paint1_linear_1055_17257)" stroke-width="0.925926"/>
<g clip-path="url(#clip0_1055_17257)">
<path d="M11.8891 14.8215C17.0029 14.8215 21.1484 10.676 21.1484 5.56224C21.1484 0.44849 17.0029 -3.69702 11.8891 -3.69702C6.77536 -3.69702 2.62985 0.44849 2.62985 5.56224C2.62985 10.676 6.77536 14.8215 11.8891 14.8215Z" fill="#F0F0F0"/>
<path d="M4.54391 -0.0749512C3.81659 0.871338 3.26816 1.96201 2.94882 3.14687H7.76573L4.54391 -0.0749512Z" fill="#0052B4"/>
<path d="M20.8294 3.14684C20.51 1.96201 19.9616 0.871338 19.2343 -0.0749512L16.0125 3.14684H20.8294Z" fill="#0052B4"/>
<path d="M2.94882 7.97754C3.26819 9.16236 3.81662 10.253 4.54391 11.1993L7.76563 7.97754H2.94882Z" fill="#0052B4"/>
<path d="M17.5263 -1.78305C16.58 -2.51037 15.4894 -3.0588 14.3045 -3.37817V1.4387L17.5263 -1.78305Z" fill="#0052B4"/>
<path d="M6.25186 12.9075C7.19815 13.6348 8.28883 14.1833 9.47365 14.5026V9.68579L6.25186 12.9075Z" fill="#0052B4"/>
<path d="M9.47361 -3.37817C8.28879 -3.0588 7.19811 -2.51037 6.25186 -1.78309L9.47361 1.43867V-3.37817Z" fill="#0052B4"/>
<path d="M14.3046 14.5026C15.4894 14.1833 16.5801 13.6348 17.5263 12.9075L14.3046 9.68579V14.5026Z" fill="#0052B4"/>
<path d="M16.0125 7.97754L19.2343 11.1993C19.9616 10.2531 20.51 9.16236 20.8294 7.97754H16.0125Z" fill="#0052B4"/>
<path d="M21.07 4.35452H13.0969H13.0969V-3.61864C12.7015 -3.67011 12.2984 -3.69702 11.8891 -3.69702C11.4797 -3.69702 11.0767 -3.67011 10.6814 -3.61864V4.35445V4.35448H2.70823C2.65676 4.74985 2.62985 5.15291 2.62985 5.56224C2.62985 5.97163 2.65676 6.37463 2.70823 6.76996H10.6813H10.6814V14.7431C11.0767 14.7946 11.4797 14.8215 11.8891 14.8215C12.2984 14.8215 12.7015 14.7946 13.0968 14.7431V6.77003V6.76999H21.07C21.1215 6.37463 21.1484 5.97163 21.1484 5.56224C21.1484 5.15291 21.1215 4.74985 21.07 4.35452V4.35452Z" fill="#D80027"/>
<path d="M14.3046 7.97758L18.4364 12.1094C18.6264 11.9194 18.8077 11.7208 18.9806 11.5149L15.4432 7.97754H14.3046V7.97758Z" fill="#D80027"/>
<path d="M9.4736 7.97754H9.47353L5.34177 12.1093C5.53173 12.2993 5.73033 12.4806 5.9362 12.6536L9.4736 9.1161V7.97754Z" fill="#D80027"/>
<path d="M9.47362 3.1468V3.14673L5.34182 -0.985107C5.15179 -0.795148 4.97051 -0.596544 4.79755 -0.39067L8.33498 3.14676H9.47362V3.1468Z" fill="#D80027"/>
<path d="M14.3046 3.14657L18.4364 -0.985306C18.2464 -1.17534 18.0478 -1.35662 17.842 -1.52954L14.3046 2.00789V3.14657Z" fill="#D80027"/>
</g>
<rect x="1.24095" y="19.9141" width="21.2963" height="21.2963" rx="10.6481" stroke="url(#paint2_linear_1055_17257)" stroke-width="0.925926"/>
<g clip-path="url(#clip1_1055_17257)">
<path d="M11.8891 39.8215C17.0029 39.8215 21.1484 35.676 21.1484 30.5622C21.1484 25.4485 17.0029 21.303 11.8891 21.303C6.77536 21.303 2.62985 25.4485 2.62985 30.5622C2.62985 35.676 6.77536 39.8215 11.8891 39.8215Z" fill="#F0F0F0"/>
<path d="M2.62985 30.5622C2.62985 34.5434 5.14258 37.9373 8.66852 39.2456V21.8789C5.14258 23.1871 2.62985 26.5811 2.62985 30.5622V30.5622Z" fill="#6DA544"/>
<path d="M21.1483 30.5622C21.1483 26.5811 18.6356 23.1871 15.1097 21.8789V39.2456C18.6356 37.9373 21.1483 34.5434 21.1483 30.5622V30.5622Z" fill="#6DA544"/>
</g>
<rect x="1.24095" y="44.9141" width="21.2963" height="21.2963" rx="10.6481" stroke="url(#paint3_linear_1055_17257)" stroke-width="0.925926"/>
<g clip-path="url(#clip2_1055_17257)">
<path d="M21.1484 55.5622C21.1484 60.676 17.0028 64.8215 11.8891 64.8215C6.7754 64.8215 2.62985 60.676 2.62985 55.5622C2.62985 55.5644 11.8891 46.304 11.8891 46.303C17.0028 46.303 21.1484 50.4485 21.1484 55.5622Z" fill="#0052B4"/>
<path d="M11.8906 46.303C11.8896 46.303 11.8885 46.305 11.8875 46.305L11.8906 46.303Z" fill="#F0F0F0"/>
<path d="M11.8643 55.5621H11.8891C11.8891 55.5537 11.8891 55.5457 11.8891 55.5374C11.8808 55.5456 11.8726 55.5539 11.8643 55.5621Z" fill="#F0F0F0"/>
<path d="M11.8891 51.1339C11.8891 49.5047 11.8891 48.4371 11.8891 46.303H11.8876C6.77453 46.3038 2.62985 50.449 2.62985 55.5622H7.46076V52.8419L10.1811 55.5622H11.8644C11.8727 55.554 11.8809 55.5457 11.8891 55.5374C11.8891 54.9136 11.8891 54.357 11.8891 53.8543L9.16877 51.1339H11.8891Z" fill="#F0F0F0"/>
<path d="M7.31426 47.5107C5.86609 48.3354 4.66217 49.5393 3.83755 50.9874V55.5623H6.25303V49.9263V49.9262H11.8891C11.8891 49.1644 11.8891 48.4386 11.8891 47.5107H7.31426Z" fill="#D80027"/>
<path d="M11.8891 54.4237L8.59942 51.134H7.46078C7.46078 51.134 7.46078 51.134 7.46078 51.134L11.8891 55.5623H11.8891C11.8891 55.5623 11.8891 54.7773 11.8891 54.4237Z" fill="#D80027"/>
<path d="M8.21414 57.1726L8.72231 58.2352L9.86985 57.97L9.35596 59.0298L10.2788 59.7616L9.12979 60.0206L9.13301 61.1984L8.21414 60.4615L7.2953 61.1984L7.29852 60.0206L6.14951 59.7616L7.07236 59.0298L6.5584 57.97L7.706 58.2352L8.21414 57.1726Z" fill="#F0F0F0"/>
<path d="M16.4928 59.1853L16.7469 59.7166L17.3207 59.584L17.0637 60.1139L17.5252 60.4798L16.9507 60.6093L16.9523 61.1982L16.4928 60.8297L16.0334 61.1982L16.035 60.6093L15.4605 60.4798L15.9219 60.1139L15.665 59.584L16.2388 59.7166L16.4928 59.1853Z" fill="#F0F0F0"/>
<path d="M14.1291 53.5493L14.3832 54.0806L14.957 53.948L14.7 54.4779L15.1614 54.8438L14.587 54.9733L14.5885 55.5622L14.1291 55.1937L13.6697 55.5622L13.6713 54.9733L13.0968 54.8438L13.5582 54.4779L13.3013 53.948L13.875 54.0806L14.1291 53.5493Z" fill="#F0F0F0"/>
<path d="M16.4928 50.3289L16.7469 50.8602L17.3207 50.7275L17.0638 51.2575L17.5251 51.6233L16.9507 51.7529L16.9523 52.3418L16.4928 51.9733L16.0334 52.3418L16.035 51.7529L15.4605 51.6233L15.9219 51.2575L15.665 50.7275L16.2388 50.8602L16.4928 50.3289Z" fill="#F0F0F0"/>
<path d="M18.5575 52.7441L18.8115 53.2755L19.3853 53.1428L19.1284 53.6727L19.5898 54.0386L19.0153 54.1681L19.0169 54.757L18.5575 54.3886L18.0981 54.757L18.0996 54.1681L17.5251 54.0386L17.9866 53.6727L17.7296 53.1428L18.3034 53.2755L18.5575 52.7441Z" fill="#F0F0F0"/>
<path d="M17.0811 55.5623L17.281 56.1773H17.9277L17.4045 56.5575L17.6044 57.1726L17.0811 56.7924L16.5579 57.1726L16.7577 56.5575L16.2345 56.1773H16.8813L17.0811 55.5623Z" fill="#F0F0F0"/>
</g>
<rect x="26.2409" y="-17.5859" width="21.2963" height="21.2963" rx="10.6481" stroke="url(#paint4_linear_1055_17257)" stroke-width="0.925926"/>
<g clip-path="url(#clip3_1055_17257)">
<path d="M36.8891 2.3215C42.0029 2.3215 46.1484 -1.82401 46.1484 -6.93776C46.1484 -12.0515 42.0029 -16.197 36.8891 -16.197C31.7754 -16.197 27.6299 -12.0515 27.6299 -6.93776C27.6299 -1.82401 31.7754 2.3215 36.8891 2.3215Z" fill="#F0F0F0"/>
<path d="M46.1484 -6.93775C46.1484 -10.9189 43.6357 -14.3128 40.1097 -15.6211V1.74562C43.6357 0.437319 46.1484 -2.9566 46.1484 -6.93775V-6.93775Z" fill="#D80027"/>
<path d="M27.6299 -6.93775C27.6299 -2.9566 30.1426 0.437319 33.6685 1.74559V-15.6211C30.1426 -14.3128 27.6299 -10.9189 27.6299 -6.93775Z" fill="#0052B4"/>
</g>
<rect x="26.2409" y="7.41413" width="21.2963" height="21.2963" rx="10.6481" stroke="url(#paint5_linear_1055_17257)" stroke-width="0.925926"/>
<g clip-path="url(#clip4_1055_17257)">
<path d="M28.2058 21.2827C29.514 24.8086 32.908 27.3213 36.8891 27.3213C40.8703 27.3213 44.2642 24.8086 45.5725 21.2827L36.8891 20.4775L28.2058 21.2827Z" fill="#FFDA44"/>
<path d="M36.8891 8.80298C32.908 8.80298 29.514 11.3157 28.2058 14.8416L36.8891 15.6468L45.5725 14.8416C44.2642 11.3157 40.8703 8.80298 36.8891 8.80298Z" fill="black"/>
<path d="M28.2058 14.8416C27.8336 15.8446 27.6299 16.9296 27.6299 18.0621C27.6299 19.1947 27.8336 20.2797 28.2058 21.2827H45.5725C45.9447 20.2797 46.1484 19.1947 46.1484 18.0621C46.1484 16.9296 45.9447 15.8446 45.5725 14.8416H28.2058Z" fill="#D80027"/>
</g>
<rect x="26.2409" y="32.4141" width="21.2963" height="21.2963" rx="10.6481" stroke="url(#paint6_linear_1055_17257)" stroke-width="0.925926"/>
<g clip-path="url(#clip5_1055_17257)">
<path d="M36.8891 52.3215C42.0029 52.3215 46.1484 48.176 46.1484 43.0622C46.1484 37.9485 42.0029 33.803 36.8891 33.803C31.7754 33.803 27.6299 37.9485 27.6299 43.0622C27.6299 48.176 31.7754 52.3215 36.8891 52.3215Z" fill="#F0F0F0"/>
<path d="M27.9488 45.4775C28.4845 47.4654 29.6653 49.1882 31.253 50.4082V45.4775H27.9488Z" fill="#0052B4"/>
<path d="M36.0839 52.2861C36.3493 52.309 36.6177 52.3213 36.8891 52.3213C41.1671 52.3213 44.7669 49.4198 45.8294 45.4775H36.0839V52.2861Z" fill="#0052B4"/>
<path d="M45.8294 40.6468C44.7669 36.7045 41.1671 33.803 36.8891 33.803C36.6177 33.803 36.3493 33.8153 36.0839 33.8382V40.6468H45.8294Z" fill="#0052B4"/>
<path d="M31.253 35.7161C29.6653 36.936 28.4845 38.6589 27.9488 40.6467H31.253V35.7161Z" fill="#0052B4"/>
<path d="M46.07 41.8546H34.8763H34.8762V34.0232C34.0205 34.2129 33.2093 34.5205 32.4608 34.9289V41.8546H27.7082C27.6567 42.25 27.6299 42.653 27.6299 43.0624C27.6299 43.4717 27.6567 43.8748 27.7082 44.2701H32.4607H32.4608V51.1958C33.2093 51.6042 34.0205 51.9118 34.8762 52.1015V44.2702V44.2701H46.07C46.1215 43.8748 46.1484 43.4717 46.1484 43.0624C46.1484 42.653 46.1215 42.25 46.07 41.8546V41.8546Z" fill="#D80027"/>
</g>
<rect x="26.2409" y="57.4141" width="21.2963" height="21.2963" rx="10.6481" stroke="url(#paint7_linear_1055_17257)" stroke-width="0.925926"/>
<g clip-path="url(#clip6_1055_17257)">
<path d="M36.8891 77.3215C42.0029 77.3215 46.1484 73.176 46.1484 68.0622C46.1484 62.9485 42.0029 58.803 36.8891 58.803C31.7754 58.803 27.6299 62.9485 27.6299 68.0622C27.6299 73.176 31.7754 77.3215 36.8891 77.3215Z" fill="#F0F0F0"/>
<path d="M36.8891 58.803C32.908 58.803 29.514 61.3157 28.2058 64.8416H45.5725C44.2642 61.3157 40.8703 58.803 36.8891 58.803V58.803Z" fill="#A2001D"/>
</g>
<rect x="51.241" y="-5.08587" width="21.2963" height="21.2963" rx="10.6481" stroke="url(#paint8_linear_1055_17257)" stroke-width="0.925926"/>
<g clip-path="url(#clip7_1055_17257)">
<path d="M61.8891 14.8215C67.0028 14.8215 71.1483 10.676 71.1483 5.56224C71.1483 0.44849 67.0028 -3.69702 61.8891 -3.69702C56.7753 -3.69702 52.6298 0.44849 52.6298 5.56224C52.6298 10.676 56.7753 14.8215 61.8891 14.8215Z" fill="#F0F0F0"/>
<path d="M61.4866 5.56196H71.1484C71.1484 4.72624 71.037 3.91663 70.8294 3.14648H61.4866V5.56196Z" fill="#D80027"/>
<path d="M61.4866 0.731147H69.7894C69.2226 -0.193766 68.4979 -1.01129 67.6529 -1.68433H61.4866V0.731147Z" fill="#D80027"/>
<path d="M61.8891 14.8212C64.0683 14.8212 66.0712 14.068 67.6529 12.8083H56.1254C57.707 14.068 59.71 14.8212 61.8891 14.8212Z" fill="#D80027"/>
<path d="M53.9888 10.393H69.7893C70.2444 9.6505 70.5973 8.83887 70.8294 7.97754H52.9488C53.1809 8.83887 53.5338 9.6505 53.9888 10.393V10.393Z" fill="#D80027"/>
<path d="M56.9189 -2.25106H57.7627L56.9778 -1.68085L57.2776 -0.758219L56.4928 -1.32842L55.7079 -0.758219L55.9669 -1.55528C55.2759 -0.979646 54.6702 -0.305239 54.1711 0.446208H54.4414L53.9418 0.809163C53.864 0.93901 53.7893 1.07092 53.7178 1.20478L53.9564 1.93905L53.5113 1.61566C53.4006 1.85007 53.2994 2.08976 53.2085 2.33445L53.4713 3.14347H54.4414L53.6566 3.71368L53.9564 4.63631L53.1715 4.06611L52.7014 4.40769C52.6543 4.78594 52.6298 5.17121 52.6298 5.56224H61.8891C61.8891 0.448522 61.8891 -0.154342 61.8891 -3.69702C60.0599 -3.69702 58.3548 -3.16642 56.9189 -2.25106V-2.25106ZM57.2776 4.63631L56.4928 4.06611L55.7079 4.63631L56.0078 3.71368L55.2229 3.14347H56.193L56.4928 2.22084L56.7925 3.14347H57.7627L56.9778 3.71368L57.2776 4.63631ZM56.9778 1.01641L57.2776 1.93905L56.4928 1.36884L55.7079 1.93905L56.0078 1.01641L55.2229 0.446208H56.193L56.4928 -0.476427L56.7925 0.446208H57.7627L56.9778 1.01641ZM60.5989 4.63631L59.814 4.06611L59.0292 4.63631L59.329 3.71368L58.5441 3.14347H59.5143L59.814 2.22084L60.1138 3.14347H61.0839L60.2991 3.71368L60.5989 4.63631ZM60.2991 1.01641L60.5989 1.93905L59.814 1.36884L59.0292 1.93905L59.329 1.01641L58.5441 0.446208H59.5143L59.814 -0.476427L60.1138 0.446208H61.0839L60.2991 1.01641ZM60.2991 -1.68085L60.5989 -0.758219L59.814 -1.32842L59.0292 -0.758219L59.329 -1.68085L58.5441 -2.25106H59.5143L59.814 -3.17369L60.1138 -2.25106H61.0839L60.2991 -1.68085Z" fill="#0052B4"/>
</g>
<path d="M61.8893 19.9141C67.7701 19.9142 72.5368 24.6818 72.5368 30.5625C72.5367 36.4431 67.77 41.2098 61.8893 41.21C56.0086 41.21 51.241 36.4432 51.2409 30.5625C51.2409 24.6817 56.0085 19.9141 61.8893 19.9141Z" stroke="url(#paint9_linear_1055_17257)" stroke-width="0.925926"/>
<g clip-path="url(#clip8_1055_17257)">
<path d="M53.2057 27.3415C52.8336 28.3446 52.6298 29.4295 52.6298 30.5621C52.6298 31.6947 52.8336 32.7797 53.2057 33.7827L61.8891 34.5879L70.5724 33.7827C70.9446 32.7797 71.1483 31.6947 71.1483 30.5621C71.1483 29.4295 70.9446 28.3446 70.5724 27.3415L61.8891 26.5364L53.2057 27.3415Z" fill="#F0F0F0"/>
<path d="M61.8891 21.303C57.9079 21.303 54.514 23.8157 53.2057 27.3416H70.5725C69.2641 23.8157 65.8702 21.303 61.8891 21.303V21.303Z" fill="#D80027"/>
<path d="M61.8891 39.8214C65.8702 39.8214 69.2641 37.3086 70.5724 33.7827H53.2057C54.514 37.3086 57.9079 39.8214 61.8891 39.8214V39.8214Z" fill="#6DA544"/>
</g>
<rect x="51.241" y="44.9141" width="21.2963" height="21.2963" rx="10.6481" stroke="url(#paint10_linear_1055_17257)" stroke-width="0.925926"/>
<g clip-path="url(#clip9_1055_17257)">
<path d="M61.8891 64.8215C67.0028 64.8215 71.1483 60.676 71.1483 55.5622C71.1483 50.4485 67.0028 46.303 61.8891 46.303C56.7753 46.303 52.6298 50.4485 52.6298 55.5622C52.6298 60.676 56.7753 64.8215 61.8891 64.8215Z" fill="#D80027"/>
<path d="M66.72 53.9521H63.4994V50.7314H60.2788V53.9521H57.0582V57.1727H60.2788V60.3933H63.4994V57.1727H66.72V53.9521Z" fill="#F0F0F0"/>
</g>
<rect x="76.241" y="-17.5859" width="21.2963" height="21.2963" rx="10.6481" stroke="url(#paint11_linear_1055_17257)" stroke-width="0.925926"/>
<g clip-path="url(#clip10_1055_17257)">
<path d="M90.1097 -15.6211C89.1066 -15.9933 88.0217 -16.197 86.8891 -16.197C85.7565 -16.197 84.6716 -15.9933 83.6685 -15.6211L82.8633 -6.93776L83.6685 1.74558C84.6716 2.11779 85.7565 2.3215 86.8891 2.3215C88.0217 2.3215 89.1066 2.11779 90.1097 1.74558L90.9148 -6.93776L90.1097 -15.6211Z" fill="#FFDA44"/>
<path d="M96.1484 -6.93779C96.1484 -10.9189 93.6357 -14.3129 90.1097 -15.6211V1.74562C93.6357 0.437283 96.1484 -2.9566 96.1484 -6.93779V-6.93779Z" fill="#D80027"/>
<path d="M77.6298 -6.93779C77.6298 -2.9566 80.1426 0.437283 83.6685 1.74559V-15.6211C80.1426 -14.3129 77.6298 -10.9189 77.6298 -6.93779V-6.93779Z" fill="black"/>
</g>
<rect x="76.241" y="7.41413" width="21.2963" height="21.2963" rx="10.6481" stroke="url(#paint12_linear_1055_17257)" stroke-width="0.925926"/>
<g clip-path="url(#clip11_1055_17257)">
<path d="M86.8891 27.3215C92.0028 27.3215 96.1483 23.176 96.1483 18.0622C96.1483 12.9485 92.0028 8.80298 86.8891 8.80298C81.7753 8.80298 77.6298 12.9485 77.6298 18.0622C77.6298 23.176 81.7753 27.3215 86.8891 27.3215Z" fill="#F0F0F0"/>
<path d="M86.8891 27.3214C92.0028 27.3214 96.1483 23.1759 96.1483 18.0621C96.1483 16.9296 95.9446 15.8446 95.5724 14.8416H78.2057C77.8336 15.8446 77.6298 16.9296 77.6298 18.0621C77.6298 23.1759 81.7754 27.3214 86.8891 27.3214Z" fill="#0052B4"/>
<path d="M86.8891 27.3214C90.8702 27.3214 94.2642 24.8086 95.5724 21.2827H78.2057C79.514 24.8086 82.9079 27.3214 86.8891 27.3214Z" fill="#D80027"/>
<path d="M80.0242 14.0364V18.6554C80.0242 21.2828 83.4566 22.0879 83.4566 22.0879C83.4566 22.0879 86.8891 21.2828 86.8891 18.6554V14.0364H80.0242Z" fill="#F0F0F0"/>
<path d="M80.8293 14.0364V18.6554C80.8293 18.9638 80.8978 19.2551 81.0336 19.5282H85.8797C86.0154 19.2552 86.0839 18.9638 86.0839 18.6554V14.0364H80.8293Z" fill="#D80027"/>
<path d="M85.0669 17.257H83.8592V16.4518H84.6644V15.6467H83.8592V14.8416H83.0541V15.6467H82.2489V16.4518H83.0541V17.257H81.8463V18.0621H83.0541V18.8673H83.8592V18.0621H85.0669V17.257Z" fill="#F0F0F0"/>
<path d="M82.1318 20.6523C82.6507 20.9784 83.1837 21.1677 83.4566 21.2519C83.7295 21.1677 84.2626 20.9784 84.7814 20.6523C85.3046 20.3235 85.6714 19.9474 85.8797 19.5284C85.65 19.3658 85.3697 19.27 85.0669 19.27C84.9567 19.27 84.8496 19.2831 84.7466 19.307C84.5284 18.8112 84.0331 18.4648 83.4567 18.4648C82.8802 18.4648 82.3849 18.8112 82.1667 19.307C82.0637 19.2831 81.9566 19.27 81.8464 19.27C81.5436 19.27 81.2633 19.3658 81.0336 19.5284C81.2418 19.9473 81.6086 20.3234 82.1318 20.6523Z" fill="#0052B4"/>
</g>
<rect x="76.241" y="32.4141" width="21.2963" height="21.2963" rx="10.6481" stroke="url(#paint13_linear_1055_17257)" stroke-width="0.925926"/>
<g clip-path="url(#clip12_1055_17257)">
<path d="M86.8891 52.3215C92.0028 52.3215 96.1483 48.176 96.1483 43.0622C96.1483 37.9485 92.0028 33.803 86.8891 33.803C81.7753 33.803 77.6298 37.9485 77.6298 43.0622C77.6298 48.176 81.7753 52.3215 86.8891 52.3215Z" fill="#F0F0F0"/>
<path d="M77.9488 45.4775C78.4845 47.4654 79.6653 49.1882 81.253 50.4082V45.4775H77.9488Z" fill="#D80027"/>
<path d="M86.0839 52.2861C86.3493 52.309 86.6177 52.3213 86.8891 52.3213C91.1671 52.3213 94.7669 49.4198 95.8294 45.4775H86.0839V52.2861Z" fill="#D80027"/>
<path d="M95.8294 40.6468C94.7669 36.7045 91.1671 33.803 86.8891 33.803C86.6177 33.803 86.3493 33.8153 86.0839 33.8382V40.6468H95.8294Z" fill="#D80027"/>
<path d="M81.253 35.7161C79.6653 36.936 78.4845 38.6589 77.9488 40.6467H81.253V35.7161Z" fill="#D80027"/>
<path d="M96.07 41.8546H84.8762H84.8762V34.0232C84.0205 34.2129 83.2093 34.5205 82.4607 34.9289V41.8546V41.8546H77.7082C77.6567 42.25 77.6298 42.653 77.6298 43.0624C77.6298 43.4717 77.6567 43.8748 77.7082 44.2701H82.4607H82.4607V51.1958C83.2093 51.6042 84.0205 51.9118 84.8762 52.1015V44.2702V44.2701H96.07C96.1214 43.8748 96.1483 43.4717 96.1483 43.0624C96.1483 42.653 96.1214 42.25 96.07 41.8546V41.8546Z" fill="#0052B4"/>
</g>
<rect x="76.241" y="57.4141" width="21.2963" height="21.2963" rx="10.6481" stroke="url(#paint14_linear_1055_17257)" stroke-width="0.925926"/>
<g clip-path="url(#clip13_1055_17257)">
<path d="M86.8891 77.3215C92.0028 77.3215 96.1483 73.176 96.1483 68.0622C96.1483 62.9485 92.0028 58.803 86.8891 58.803C81.7753 58.803 77.6298 62.9485 77.6298 68.0622C77.6298 73.176 81.7753 77.3215 86.8891 77.3215Z" fill="#6DA544"/>
</g>
</g>
<defs>
<linearGradient id="paint0_linear_1055_17257" x1="49.3891" y1="-18.0488" x2="49.3891" y2="79.1734" gradientUnits="userSpaceOnUse">
<stop stop-color="#D9D9D9" stop-opacity="0"/>
<stop offset="0.5" stop-color="#A6A6A6"/>
<stop offset="1" stop-color="#737373" stop-opacity="0"/>
</linearGradient>
<linearGradient id="paint1_linear_1055_17257" x1="11.8891" y1="-5.54883" x2="11.8891" y2="16.6734" gradientUnits="userSpaceOnUse">
<stop stop-color="white" stop-opacity="0.25"/>
<stop offset="1" stop-color="white" stop-opacity="0.05"/>
</linearGradient>
<linearGradient id="paint2_linear_1055_17257" x1="11.8891" y1="19.4512" x2="11.8891" y2="41.6734" gradientUnits="userSpaceOnUse">
<stop stop-color="white" stop-opacity="0.25"/>
<stop offset="1" stop-color="white" stop-opacity="0.05"/>
</linearGradient>
<linearGradient id="paint3_linear_1055_17257" x1="11.8891" y1="44.4512" x2="11.8891" y2="66.6734" gradientUnits="userSpaceOnUse">
<stop stop-color="white" stop-opacity="0.25"/>
<stop offset="1" stop-color="white" stop-opacity="0.05"/>
</linearGradient>
<linearGradient id="paint4_linear_1055_17257" x1="36.8891" y1="-18.0488" x2="36.8891" y2="4.17339" gradientUnits="userSpaceOnUse">
<stop stop-color="white" stop-opacity="0.25"/>
<stop offset="1" stop-color="white" stop-opacity="0.05"/>
</linearGradient>
<linearGradient id="paint5_linear_1055_17257" x1="36.8891" y1="6.95117" x2="36.8891" y2="29.1734" gradientUnits="userSpaceOnUse">
<stop stop-color="white" stop-opacity="0.25"/>
<stop offset="1" stop-color="white" stop-opacity="0.05"/>
</linearGradient>
<linearGradient id="paint6_linear_1055_17257" x1="36.8891" y1="31.9512" x2="36.8891" y2="54.1734" gradientUnits="userSpaceOnUse">
<stop stop-color="white" stop-opacity="0.25"/>
<stop offset="1" stop-color="white" stop-opacity="0.05"/>
</linearGradient>
<linearGradient id="paint7_linear_1055_17257" x1="36.8891" y1="56.9512" x2="36.8891" y2="79.1734" gradientUnits="userSpaceOnUse">
<stop stop-color="white" stop-opacity="0.25"/>
<stop offset="1" stop-color="white" stop-opacity="0.05"/>
</linearGradient>
<linearGradient id="paint8_linear_1055_17257" x1="61.8891" y1="-5.54883" x2="61.8891" y2="16.6734" gradientUnits="userSpaceOnUse">
<stop stop-color="white" stop-opacity="0.25"/>
<stop offset="1" stop-color="white" stop-opacity="0.05"/>
</linearGradient>
<linearGradient id="paint9_linear_1055_17257" x1="61.8891" y1="19.4512" x2="61.8891" y2="41.6734" gradientUnits="userSpaceOnUse">
<stop stop-color="white" stop-opacity="0.25"/>
<stop offset="1" stop-color="white" stop-opacity="0.05"/>
</linearGradient>
<linearGradient id="paint10_linear_1055_17257" x1="61.8891" y1="44.4512" x2="61.8891" y2="66.6734" gradientUnits="userSpaceOnUse">
<stop stop-color="white" stop-opacity="0.25"/>
<stop offset="1" stop-color="white" stop-opacity="0.05"/>
</linearGradient>
<linearGradient id="paint11_linear_1055_17257" x1="86.8891" y1="-18.0488" x2="86.8891" y2="4.17339" gradientUnits="userSpaceOnUse">
<stop stop-color="white" stop-opacity="0.25"/>
<stop offset="1" stop-color="white" stop-opacity="0.05"/>
</linearGradient>
<linearGradient id="paint12_linear_1055_17257" x1="86.8891" y1="6.95117" x2="86.8891" y2="29.1734" gradientUnits="userSpaceOnUse">
<stop stop-color="white" stop-opacity="0.25"/>
<stop offset="1" stop-color="white" stop-opacity="0.05"/>
</linearGradient>
<linearGradient id="paint13_linear_1055_17257" x1="86.8891" y1="31.9512" x2="86.8891" y2="54.1734" gradientUnits="userSpaceOnUse">
<stop stop-color="white" stop-opacity="0.25"/>
<stop offset="1" stop-color="white" stop-opacity="0.05"/>
</linearGradient>
<linearGradient id="paint14_linear_1055_17257" x1="86.8891" y1="56.9512" x2="86.8891" y2="79.1734" gradientUnits="userSpaceOnUse">
<stop stop-color="white" stop-opacity="0.25"/>
<stop offset="1" stop-color="white" stop-opacity="0.05"/>
</linearGradient>
<clipPath id="clip0_1055_17257">
<rect x="2.62985" y="-3.69702" width="18.5185" height="18.5185" rx="9.25926" fill="white"/>
</clipPath>
<clipPath id="clip1_1055_17257">
<rect width="18.5185" height="18.5185" fill="white" transform="translate(2.62985 21.303)"/>
</clipPath>
<clipPath id="clip2_1055_17257">
<rect width="18.5185" height="18.5185" fill="white" transform="translate(2.62985 46.303)"/>
</clipPath>
<clipPath id="clip3_1055_17257">
<rect width="18.5185" height="18.5185" fill="white" transform="translate(27.6299 -16.197)"/>
</clipPath>
<clipPath id="clip4_1055_17257">
<rect width="18.5185" height="18.5185" fill="white" transform="translate(27.6299 8.80298)"/>
</clipPath>
<clipPath id="clip5_1055_17257">
<rect width="18.5185" height="18.5185" fill="white" transform="translate(27.6299 33.803)"/>
</clipPath>
<clipPath id="clip6_1055_17257">
<rect width="18.5185" height="18.5185" fill="white" transform="translate(27.6299 58.803)"/>
</clipPath>
<clipPath id="clip7_1055_17257">
<rect width="18.5185" height="18.5185" fill="white" transform="translate(52.6298 -3.69702)"/>
</clipPath>
<clipPath id="clip8_1055_17257">
<rect width="18.5185" height="18.5185" fill="white" transform="translate(52.6298 21.303)"/>
</clipPath>
<clipPath id="clip9_1055_17257">
<rect width="18.5185" height="18.5185" fill="white" transform="translate(52.6298 46.303)"/>
</clipPath>
<clipPath id="clip10_1055_17257">
<rect width="18.5185" height="18.5185" fill="white" transform="translate(77.6298 -16.197)"/>
</clipPath>
<clipPath id="clip11_1055_17257">
<rect width="18.5185" height="18.5185" fill="white" transform="translate(77.6298 8.80298)"/>
</clipPath>
<clipPath id="clip12_1055_17257">
<rect width="18.5185" height="18.5185" fill="white" transform="translate(77.6298 33.803)"/>
</clipPath>
<clipPath id="clip13_1055_17257">
<rect width="18.5185" height="18.5185" fill="white" transform="translate(77.6298 58.803)"/>
</clipPath>
</defs>
</svg>
