<svg width="64" height="12" viewBox="0 0 64 12" fill="none" xmlns="http://www.w3.org/2000/svg">
<g id="Stars" clip-path="url(#clip0_953_13227)">
<g id="Group">
<g id="Group_2">
<path id="Vector" d="M0 0.00292969H12V11.9965H0V0.00292969ZM13 0.00292969H25V11.9965H13V0.00292969ZM26 0.00292969H38V11.9965H26V0.00292969ZM39 0.00292969H51V11.9965H39V0.00292969ZM52 0.00292969H64V11.9965H52V0.00292969Z" fill="#00B67A"/>
</g>
<path id="Vector_2" d="M6.00005 8.08564L7.82505 7.62338L8.58755 9.97213L6.00005 8.08564ZM10.2 5.04975H6.98755L6.00005 2.02637L5.01255 5.04975H1.80005L4.40005 6.92376L3.41255 9.94714L6.01255 8.07314L7.61255 6.92376L10.2 5.04975ZM19 8.08564L20.825 7.62338L21.5875 9.97213L19 8.08564ZM23.2 5.04975H19.9875L19 2.02637L18.0125 5.04975H14.8L17.4 6.92376L16.4125 9.94714L19.0125 8.07314L20.6125 6.92376L23.2 5.04975ZM32 8.08564L33.825 7.62338L34.5875 9.97213L32 8.08564ZM36.2 5.04975H32.9875L32 2.02637L31.0125 5.04975H27.8L30.4 6.92376L29.4125 9.94714L32.0125 8.07314L33.6125 6.92376L36.2 5.04975ZM45 8.08564L46.825 7.62338L47.5875 9.97213L45 8.08564ZM49.2 5.04975H45.9875L45 2.02637L44.0125 5.04975H40.8L43.4 6.92376L42.4125 9.94714L45.0125 8.07314L46.6125 6.92376L49.2 5.04975ZM58 8.08564L59.825 7.62338L60.5875 9.97213L58 8.08564ZM62.2 5.04975H58.9875L58 2.02637L57.0125 5.04975H53.8L56.4 6.92376L55.4125 9.94714L58.0125 8.07314L59.6125 6.92376L62.2 5.04975Z" fill="white"/>
</g>
</g>
<defs>
<clipPath id="clip0_953_13227">
<rect width="64" height="12" fill="white"/>
</clipPath>
</defs>
</svg>
