<svg width="57" height="14" viewBox="0 0 57 14" fill="none" xmlns="http://www.w3.org/2000/svg">
<g id="Trustpilot_Logo_(2022) 1" clip-path="url(#clip0_844_18402)">
<path id="Vector" d="M14.9796 4.96191H20.7511V6.03884H18.4818V12.0928H17.2339V6.03884H14.9746V4.96191H14.9796ZM20.5045 6.92956H21.5713V7.92597H21.5914C21.6266 7.78506 21.692 7.64919 21.7876 7.51835C21.8832 7.38751 21.999 7.2617 22.1348 7.15602C22.2707 7.04531 22.4216 6.95976 22.5877 6.8893C22.7537 6.82388 22.9248 6.78866 23.0959 6.78866C23.2267 6.78866 23.3223 6.79369 23.3726 6.79872C23.423 6.80375 23.4733 6.81382 23.5286 6.81885V7.9159C23.4481 7.90081 23.3676 7.89074 23.2821 7.88068C23.1965 7.87061 23.116 7.86558 23.0355 7.86558C22.8443 7.86558 22.6632 7.90584 22.4921 7.98132C22.321 8.05681 22.1751 8.17255 22.0493 8.31849C21.9235 8.46946 21.8229 8.65063 21.7474 8.87205C21.6719 9.09347 21.6367 9.34509 21.6367 9.63194V12.0877H20.4995V6.92956H20.5045ZM28.7567 12.0928H27.6396V11.3731H27.6195C27.4786 11.6348 27.2723 11.8411 26.9955 11.9971C26.7188 12.1531 26.437 12.2337 26.1502 12.2337C25.4709 12.2337 24.9778 12.0676 24.6759 11.7304C24.374 11.3933 24.223 10.885 24.223 10.2056V6.92956H25.3602V10.0949C25.3602 10.5478 25.4457 10.8699 25.6219 11.0561C25.7929 11.2423 26.0395 11.3379 26.3515 11.3379C26.593 11.3379 26.7892 11.3027 26.9502 11.2272C27.1113 11.1517 27.2421 11.0561 27.3377 10.9303C27.4383 10.8095 27.5088 10.6585 27.5541 10.4874C27.5993 10.3163 27.6195 10.1301 27.6195 9.92884V6.9346H28.7567V12.0928ZM30.6939 10.4371C30.7291 10.7692 30.8549 11.0007 31.0713 11.1366C31.2927 11.2674 31.5543 11.3379 31.8613 11.3379C31.9669 11.3379 32.0877 11.3278 32.2236 11.3127C32.3594 11.2976 32.4902 11.2624 32.606 11.2171C32.7267 11.1718 32.8223 11.1014 32.9028 11.0108C32.9783 10.9202 33.0135 10.8045 33.0085 10.6585C33.0035 10.5126 32.9481 10.3918 32.8475 10.3012C32.7469 10.2056 32.6211 10.1352 32.4651 10.0748C32.3091 10.0194 32.133 9.9691 31.9317 9.92884C31.7304 9.88859 31.5292 9.84329 31.3229 9.798C31.1115 9.75271 30.9052 9.69232 30.709 9.6269C30.5127 9.56148 30.3366 9.4709 30.1806 9.35516C30.0247 9.24444 29.8989 9.09851 29.8083 8.92237C29.7127 8.74624 29.6674 8.52985 29.6674 8.26817C29.6674 7.98636 29.7379 7.75487 29.8737 7.56364C30.0096 7.37241 30.1857 7.22144 30.392 7.1057C30.6033 6.98995 30.8348 6.90943 31.0914 6.85911C31.348 6.81382 31.5946 6.78866 31.826 6.78866C32.0927 6.78866 32.3493 6.81885 32.5909 6.87421C32.8324 6.92956 33.0538 7.02015 33.25 7.15099C33.4463 7.2768 33.6073 7.44286 33.7381 7.64416C33.8689 7.84545 33.9495 8.09204 33.9847 8.37888H32.7972C32.7418 8.10713 32.6211 7.92094 32.4248 7.83035C32.2286 7.73474 32.0022 7.68945 31.7506 7.68945C31.6701 7.68945 31.5744 7.69448 31.4638 7.70958C31.3531 7.72467 31.2524 7.74984 31.1518 7.78506C31.0562 7.82029 30.9757 7.87564 30.9052 7.9461C30.8398 8.01655 30.8046 8.10713 30.8046 8.22288C30.8046 8.36378 30.8549 8.4745 30.9505 8.56005C31.0461 8.6456 31.1719 8.71605 31.3279 8.77644C31.4839 8.83179 31.66 8.88212 31.8613 8.92237C32.0625 8.96263 32.2688 9.00792 32.4802 9.05322C32.6865 9.09851 32.8877 9.1589 33.089 9.22432C33.2903 9.28974 33.4664 9.38032 33.6224 9.49606C33.7784 9.61181 33.9042 9.75271 33.9998 9.92381C34.0954 10.0949 34.1457 10.3113 34.1457 10.5629C34.1457 10.8699 34.0752 11.1265 33.9344 11.3429C33.7935 11.5543 33.6123 11.7304 33.3909 11.8613C33.1695 11.9921 32.9179 12.0928 32.6462 12.1531C32.3745 12.2135 32.1028 12.2437 31.8361 12.2437C31.509 12.2437 31.2071 12.2085 30.9304 12.133C30.6536 12.0575 30.4121 11.9468 30.2108 11.8009C30.0096 11.6499 29.8486 11.4637 29.7328 11.2423C29.6171 11.0209 29.5567 10.7542 29.5466 10.4472H30.6939V10.4371ZM34.4476 6.92956H35.308V5.3796H36.4452V6.92956H37.4717V7.78003H36.4452V10.5378C36.4452 10.6585 36.4502 10.7592 36.4603 10.8498C36.4704 10.9353 36.4955 11.0108 36.5308 11.0712C36.566 11.1316 36.6213 11.1769 36.6968 11.2071C36.7723 11.2373 36.8679 11.2524 36.9987 11.2524C37.0792 11.2524 37.1597 11.2524 37.2402 11.2473C37.3207 11.2423 37.4013 11.2322 37.4818 11.2121V12.0928C37.356 12.1079 37.2302 12.1179 37.1144 12.133C36.9937 12.1481 36.8729 12.1531 36.7471 12.1531C36.4452 12.1531 36.2037 12.123 36.0225 12.0676C35.8414 12.0122 35.6955 11.9267 35.5948 11.816C35.4892 11.7053 35.4238 11.5694 35.3835 11.4033C35.3483 11.2373 35.3231 11.046 35.3181 10.8347V7.7901H34.4577V6.92956H34.4476ZM38.2768 6.92956H39.3536V7.62906H39.3737C39.5347 7.32712 39.7561 7.11576 40.0429 6.98492C40.3297 6.85408 40.6367 6.78866 40.9738 6.78866C41.3814 6.78866 41.7336 6.85911 42.0355 7.00505C42.3374 7.14595 42.589 7.34222 42.7903 7.59383C42.9916 7.84545 43.1375 8.13733 43.2381 8.46946C43.3387 8.8016 43.3891 9.15889 43.3891 9.53632C43.3891 9.88355 43.3438 10.2207 43.2532 10.5428C43.1626 10.8699 43.0268 11.1567 42.8456 11.4084C42.6645 11.66 42.433 11.8562 42.1513 12.0072C41.8695 12.1582 41.5424 12.2337 41.16 12.2337C40.9939 12.2337 40.8279 12.2186 40.6618 12.1884C40.4958 12.1582 40.3348 12.1079 40.1838 12.0424C40.0329 11.977 39.887 11.8915 39.7612 11.7858C39.6303 11.6801 39.5247 11.5593 39.4341 11.4235H39.414V14H38.2768V6.92956ZM42.2519 9.51619C42.2519 9.2847 42.2217 9.05825 42.1613 8.83682C42.1009 8.6154 42.0104 8.42417 41.8896 8.25307C41.7688 8.08197 41.6179 7.9461 41.4418 7.84545C41.2606 7.7448 41.0543 7.68945 40.8229 7.68945C40.3448 7.68945 39.9826 7.85552 39.741 8.18765C39.4995 8.51979 39.3787 8.96263 39.3787 9.51619C39.3787 9.77787 39.4089 10.0194 39.4743 10.2408C39.5398 10.4623 39.6303 10.6535 39.7612 10.8145C39.887 10.9756 40.0379 11.1014 40.214 11.192C40.3901 11.2876 40.5964 11.3329 40.8279 11.3329C41.0895 11.3329 41.3059 11.2775 41.4871 11.1718C41.6682 11.0662 41.8141 10.9253 41.9299 10.7592C42.0456 10.5881 42.1311 10.3969 42.1814 10.1805C42.2267 9.96407 42.2519 9.74265 42.2519 9.51619ZM44.2596 4.96191H45.3967V6.03884H44.2596V4.96191ZM44.2596 6.92956H45.3967V12.0928H44.2596V6.92956ZM46.4132 4.96191H47.5504V12.0928H46.4132V4.96191ZM51.0374 12.2337C50.6248 12.2337 50.2575 12.1632 49.9354 12.0273C49.6134 11.8915 49.3417 11.7002 49.1152 11.4637C48.8938 11.2222 48.7228 10.9353 48.607 10.6032C48.4913 10.271 48.4309 9.90368 48.4309 9.50613C48.4309 9.1136 48.4913 8.75127 48.607 8.41914C48.7228 8.087 48.8938 7.80016 49.1152 7.55861C49.3366 7.31705 49.6134 7.13086 49.9354 6.99498C50.2575 6.85911 50.6248 6.78866 51.0374 6.78866C51.45 6.78866 51.8173 6.85911 52.1393 6.99498C52.4614 7.13086 52.7331 7.32209 52.9595 7.55861C53.1809 7.80016 53.352 8.087 53.4677 8.41914C53.5835 8.75127 53.6438 9.1136 53.6438 9.50613C53.6438 9.90368 53.5835 10.271 53.4677 10.6032C53.352 10.9353 53.1809 11.2222 52.9595 11.4637C52.7381 11.7053 52.4614 11.8915 52.1393 12.0273C51.8173 12.1632 51.45 12.2337 51.0374 12.2337ZM51.0374 11.3329C51.289 11.3329 51.5104 11.2775 51.6965 11.1718C51.8827 11.0662 52.0337 10.9252 52.1544 10.7541C52.2752 10.583 52.3607 10.3868 52.4211 10.1704C52.4765 9.95401 52.5067 9.73258 52.5067 9.50613C52.5067 9.2847 52.4765 9.06831 52.4211 8.84689C52.3658 8.62547 52.2752 8.43424 52.1544 8.26314C52.0337 8.09204 51.8827 7.95616 51.6965 7.85048C51.5104 7.7448 51.289 7.68945 51.0374 7.68945C50.7858 7.68945 50.5644 7.7448 50.3782 7.85048C50.192 7.95616 50.0411 8.09707 49.9203 8.26314C49.7996 8.43424 49.714 8.62547 49.6536 8.84689C49.5983 9.06831 49.5681 9.2847 49.5681 9.50613C49.5681 9.73258 49.5983 9.95401 49.6536 10.1704C49.709 10.3868 49.7996 10.583 49.9203 10.7541C50.0411 10.9252 50.192 11.0662 50.3782 11.1718C50.5644 11.2825 50.7858 11.3329 51.0374 11.3329ZM53.9759 6.92956H54.8364V5.3796H55.9736V6.92956H57V7.78003H55.9736V10.5378C55.9736 10.6585 55.9786 10.7592 55.9886 10.8498C55.9987 10.9353 56.0239 11.0108 56.0591 11.0712C56.0943 11.1316 56.1497 11.1769 56.2251 11.2071C56.3006 11.2373 56.3962 11.2524 56.5271 11.2524C56.6076 11.2524 56.6881 11.2524 56.7686 11.2473C56.8491 11.2423 56.9296 11.2322 57.0101 11.2121V12.0928C56.8843 12.1079 56.7585 12.1179 56.6428 12.133C56.522 12.1481 56.4013 12.1531 56.2755 12.1531C55.9736 12.1531 55.732 12.123 55.5509 12.0676C55.3697 12.0122 55.2238 11.9267 55.1232 11.816C55.0175 11.7053 54.9521 11.5694 54.9118 11.4033C54.8766 11.2373 54.8515 11.046 54.8464 10.8347V7.7901H53.986V6.92956H53.9759Z" fill="white"/>
<path id="Vector_2" d="M13.6512 4.9619H8.43829L6.82812 0L5.21292 4.9619L0 4.95687L4.22166 8.0266L2.60646 12.9835L6.82812 9.91876L11.0448 12.9835L9.43459 8.0266L13.6512 4.9619Z" fill="#00B67A"/>
<path id="Vector_3" d="M9.79687 9.14858L9.43459 8.02637L6.82812 9.91853L9.79687 9.14858Z" fill="#005128"/>
</g>
<defs>
<clipPath id="clip0_844_18402">
<rect width="57" height="14" fill="white"/>
</clipPath>
</defs>
</svg>
