<svg width="850" height="458" viewBox="0 0 850 458" fill="none" xmlns="http://www.w3.org/2000/svg">
	<g clip-path="url(#clip0_1031_23898)">
		<path opacity="0.6" d="M276.98 203.951L277.165 204.057M277.165 204.057L319.351 228.413M277.165 204.057L237.033 227.227M277.165 204.057L317.296 180.887M319.351 228.413L361.537 252.77M319.351 228.413L279.219 251.583M319.351 228.413L359.482 205.244M361.537 252.77L403.723 277.126M361.537 252.77L321.405 275.94M361.537 252.77L401.668 229.6M403.723 277.126L445.909 301.482M403.723 277.126L363.592 300.296M403.723 277.126L443.855 253.956M445.909 301.482L488.095 325.838M445.909 301.482L405.778 324.652M445.909 301.482L486.041 278.312M488.095 325.838L530.282 350.194M488.095 325.838L447.964 349.008M488.095 325.838L528.227 302.668M530.282 350.194L490.15 373.364M530.282 350.194L570.413 327.025M236.849 227.121L237.033 227.227M237.033 227.227L279.219 251.583M237.033 227.227L196.902 250.397M279.219 251.583L321.405 275.94M279.219 251.583L239.088 274.753M321.405 275.94L363.592 300.296M321.405 275.94L281.274 299.11M363.592 300.296L405.778 324.652M363.592 300.296L323.46 323.466M405.778 324.652L447.964 349.008M405.778 324.652L365.646 347.822M447.964 349.008L490.15 373.364M447.964 349.008L407.833 372.178M490.15 373.364L450.019 396.534M397.375 134.441L397.559 134.548M397.559 134.548L357.428 157.717M397.559 134.548L409.826 127.465M196.717 250.291L196.902 250.397M196.902 250.397L239.088 274.753M196.902 250.397L156.77 273.567M239.088 274.753L281.274 299.11M239.088 274.753L198.956 297.923M281.274 299.11L323.46 323.466M281.274 299.11L241.142 322.279M323.46 323.466L365.646 347.822M323.46 323.466L283.329 346.636M365.646 347.822L407.833 372.178M365.646 347.822L325.515 370.992M407.833 372.178L450.019 396.534M407.833 372.178L367.701 395.348M450.019 396.534L409.887 419.704L367.701 395.348M357.243 157.611L357.428 157.717M357.428 157.717L399.614 182.074M357.428 157.717L317.296 180.887M399.614 182.074L441.8 206.43M399.614 182.074L359.482 205.244M399.614 182.074L439.745 158.904L452.013 151.821M441.8 206.43L483.986 230.786M441.8 206.43L401.668 229.6M441.8 206.43L481.931 183.26L494.199 176.177M483.986 230.786L526.172 255.142M483.986 230.786L443.855 253.956M483.986 230.786L524.118 207.616L536.385 200.534M526.172 255.142L568.358 279.498M526.172 255.142L486.041 278.312M526.172 255.142L566.304 231.972L578.571 224.89M568.358 279.498L610.545 303.855M568.358 279.498L528.227 302.668M568.358 279.498L608.49 256.329L620.757 249.246M610.545 303.855L570.413 327.025M610.545 303.855L650.676 280.685L662.943 273.602M156.586 273.461L156.77 273.567M156.77 273.567L198.956 297.923M198.956 297.923L241.142 322.279M241.142 322.279L283.329 346.636M283.329 346.636L325.515 370.992M325.515 370.992L367.701 395.348M317.112 180.781L317.296 180.887M317.296 180.887L359.482 205.244M359.482 205.244L401.668 229.6M401.668 229.6L443.855 253.956M443.855 253.956L486.041 278.312M486.041 278.312L528.227 302.668M528.227 302.668L570.413 327.025M518.494 64.5132L518.678 64.6196M518.678 64.6196L560.864 88.9758M518.678 64.6196L478.546 87.7896M518.678 64.6196L558.809 41.4497M560.864 88.9758L603.05 113.332M560.864 88.9758L520.732 112.146M560.864 88.9758L600.995 65.8059M603.05 113.332L645.236 137.688M603.05 113.332L562.919 136.502M603.05 113.332L643.182 90.1621M645.236 137.688L687.422 162.044M645.236 137.688L605.105 160.858M645.236 137.688L685.368 114.518M687.422 162.044L729.609 186.401M687.422 162.044L647.291 185.214M687.422 162.044L727.554 138.875M729.609 186.401L771.795 210.757M729.609 186.401L689.477 209.571M729.609 186.401L769.74 163.231M771.795 210.757L731.663 233.927M771.795 210.757L811.926 187.587M478.362 87.6832L478.546 87.7896M478.546 87.7896L520.732 112.146M478.546 87.7896L438.415 110.959M520.732 112.146L562.919 136.502M520.732 112.146L480.601 135.316M562.919 136.502L605.105 160.858M562.919 136.502L522.787 159.672M605.105 160.858L647.291 185.214M605.105 160.858L564.973 184.028M647.291 185.214L689.477 209.571M647.291 185.214L607.159 208.384M689.477 209.571L731.663 233.927M689.477 209.571L649.346 232.74M731.663 233.927L691.532 257.097M438.231 110.853L438.415 110.959M438.415 110.959L480.601 135.316M438.415 110.959L398.283 134.129M480.601 135.316L522.787 159.672M480.601 135.316L440.469 158.486M522.787 159.672L564.973 184.028M522.787 159.672L482.656 182.842M564.973 184.028L607.159 208.384M564.973 184.028L524.842 207.198M607.159 208.384L649.346 232.74M607.159 208.384L567.028 231.554M649.346 232.74L691.532 257.097M649.346 232.74L609.214 255.91M691.532 257.097L651.4 280.267M598.756 18.1734L598.941 18.2798M598.941 18.2798L641.127 42.636M598.941 18.2798L558.809 41.4497M641.127 42.636L683.313 66.9922M641.127 42.636L600.995 65.8059M683.313 66.9922L725.499 91.3484M683.313 66.9922L643.182 90.1621M725.499 91.3484L767.685 115.705M725.499 91.3484L685.368 114.518M767.685 115.705L809.872 140.061M767.685 115.705L727.554 138.875M809.872 140.061L852.058 164.417L811.926 187.587M809.872 140.061L769.74 163.231M398.099 134.023L398.283 134.129M398.283 134.129L440.469 158.486M398.283 134.129L386.016 141.212M440.469 158.486L482.656 182.842M440.469 158.486L428.202 165.568M482.656 182.842L524.842 207.198M482.656 182.842L470.388 189.924M524.842 207.198L567.028 231.554M524.842 207.198L512.575 214.28M567.028 231.554L609.214 255.91M567.028 231.554L554.761 238.637M609.214 255.91L651.4 280.267M609.214 255.91L596.947 262.993M651.4 280.267L639.133 287.349M558.625 41.3434L558.809 41.4497M558.809 41.4497L600.995 65.8059M600.995 65.8059L643.182 90.1621M643.182 90.1621L685.368 114.518M685.368 114.518L727.554 138.875M727.554 138.875L769.74 163.231M769.74 163.231L811.926 187.587" stroke="url(#paint0_radial_1031_23898)" stroke-width="0.809931"></path>
		<path opacity="0.6" d="M-10.7598 223.764L-10.5756 223.871M-10.5756 223.871L31.6106 248.227M-10.5756 223.871L-50.7071 247.04M-10.5756 223.871L29.5559 200.701M31.6106 248.227L73.7967 272.583M31.6106 248.227L-8.52093 271.397M31.6106 248.227L71.742 225.057M73.7967 272.583L115.983 296.939M73.7967 272.583L33.6652 295.753M73.7967 272.583L113.928 249.413M115.983 296.939L158.169 321.295M115.983 296.939L75.8514 320.109M115.983 296.939L156.114 273.769M158.169 321.295L200.355 345.652M158.169 321.295L118.038 344.465M158.169 321.295L198.301 298.125M200.355 345.652L242.541 370.008M200.355 345.652L160.224 368.821M200.355 345.652L240.487 322.482M242.541 370.008L202.41 393.178M242.541 370.008L282.673 346.838M-50.8913 246.934L-50.7071 247.04M-50.7071 247.04L-8.52093 271.397M-50.7071 247.04L-90.8386 270.21M-8.52093 271.397L33.6652 295.753M-8.52093 271.397L-48.6524 294.567M33.6652 295.753L75.8514 320.109M33.6652 295.753L-6.46625 318.923M75.8514 320.109L118.038 344.465M75.8514 320.109L35.7199 343.279M118.038 344.465L160.224 368.821M118.038 344.465L77.9061 367.635M160.224 368.821L202.41 393.178M160.224 368.821L120.092 391.991M202.41 393.178L162.278 416.348M109.635 154.254L109.819 154.361M109.819 154.361L69.6874 177.531M109.819 154.361L122.086 147.278M-91.0228 270.104L-90.8386 270.21M-90.8386 270.21L-48.6524 294.567M-90.8386 270.21L-130.97 293.38M-48.6524 294.567L-6.46625 318.923M-48.6524 294.567L-88.7839 317.736M-6.46625 318.923L35.7199 343.279M-6.46625 318.923L-46.5977 342.093M35.7199 343.279L77.9061 367.635M35.7199 343.279L-4.41156 366.449M77.9061 367.635L120.092 391.991M77.9061 367.635L37.7746 390.805M120.092 391.991L162.278 416.348M120.092 391.991L79.9608 415.161M162.278 416.348L122.147 439.517L79.9608 415.161M69.5031 177.424L69.6874 177.531M69.6874 177.531L111.874 201.887M69.6874 177.531L29.5559 200.701M111.874 201.887L154.06 226.243M111.874 201.887L71.742 225.057M111.874 201.887L152.005 178.717L164.272 171.634M154.06 226.243L196.246 250.599M154.06 226.243L113.928 249.413M154.06 226.243L194.191 203.073L206.458 195.991M196.246 250.599L238.432 274.955M196.246 250.599L156.114 273.769M196.246 250.599L236.377 227.429L248.645 220.347M238.432 274.955L280.618 299.312M238.432 274.955L198.301 298.125M238.432 274.955L278.564 251.786L290.831 244.703M280.618 299.312L322.804 323.668M280.618 299.312L240.487 322.482M280.618 299.312L320.75 276.142L333.017 269.059M322.804 323.668L282.673 346.838M322.804 323.668L362.936 300.498L375.203 293.415M-131.154 293.274L-130.97 293.38M-130.97 293.38L-88.7839 317.736M-88.7839 317.736L-46.5977 342.093M-46.5977 342.093L-4.41156 366.449M-4.41156 366.449L37.7746 390.805M37.7746 390.805L79.9608 415.161M29.3716 200.594L29.5559 200.701M29.5559 200.701L71.742 225.057M71.742 225.057L113.928 249.413M113.928 249.413L156.114 273.769M156.114 273.769L198.301 298.125M198.301 298.125L240.487 322.482M240.487 322.482L282.673 346.838M230.753 84.3265L230.938 84.4328M230.938 84.4328L273.124 108.789M230.938 84.4328L190.806 107.603M230.938 84.4328L271.069 61.2629M273.124 108.789L315.31 133.145M273.124 108.789L232.992 131.959M273.124 108.789L313.255 85.6191M315.31 133.145L357.496 157.501M315.31 133.145L275.178 156.315M315.31 133.145L355.441 109.975M357.496 157.501L399.682 181.858M357.496 157.501L317.365 180.671M357.496 157.501L397.627 134.332M399.682 181.858L441.868 206.214M399.682 181.858L359.551 205.028M399.682 181.858L439.814 158.688M441.868 206.214L484.055 230.57M441.868 206.214L401.737 229.384M441.868 206.214L482 183.044M484.055 230.57L443.923 253.74M484.055 230.57L524.186 207.4M190.622 107.496L190.806 107.603M190.806 107.603L232.992 131.959M190.806 107.603L150.675 130.773M232.992 131.959L275.178 156.315M232.992 131.959L192.861 155.129M275.178 156.315L317.365 180.671M275.178 156.315L235.047 179.485M317.365 180.671L359.551 205.028M317.365 180.671L277.233 203.841M359.551 205.028L401.737 229.384M359.551 205.028L319.419 228.198M401.737 229.384L443.923 253.74M401.737 229.384L361.605 252.554M443.923 253.74L403.792 276.91M150.49 130.666L150.675 130.773M150.675 130.773L192.861 155.129M150.675 130.773L110.543 153.943M192.861 155.129L235.047 179.485M192.861 155.129L152.729 178.299M235.047 179.485L277.233 203.841M235.047 179.485L194.915 202.655M277.233 203.841L319.419 228.198M277.233 203.841L237.102 227.011M319.419 228.198L361.605 252.554M319.419 228.198L279.288 251.367M361.605 252.554L403.792 276.91M361.605 252.554L321.474 275.724M403.792 276.91L363.66 300.08M311.016 37.9866L311.2 38.093M311.2 38.093L353.387 62.4492M311.2 38.093L271.069 61.2629M353.387 62.4492L395.573 86.8054M353.387 62.4492L313.255 85.6191M395.573 86.8054L437.759 111.162M395.573 86.8054L355.441 109.975M437.759 111.162L479.945 135.518M437.759 111.162L397.627 134.332M479.945 135.518L522.131 159.874M479.945 135.518L439.814 158.688M522.131 159.874L564.318 184.23L524.186 207.4M522.131 159.874L482 183.044M110.359 153.836L110.543 153.943M110.543 153.943L152.729 178.299M110.543 153.943L98.2758 161.025M152.729 178.299L194.915 202.655M152.729 178.299L140.462 185.381M194.915 202.655L237.102 227.011M194.915 202.655L182.648 209.738M237.102 227.011L279.288 251.367M237.102 227.011L224.834 234.094M279.288 251.367L321.474 275.724M279.288 251.367L267.021 258.45M321.474 275.724L363.66 300.08M321.474 275.724L309.207 282.806M363.66 300.08L351.393 307.162M270.885 61.1566L271.069 61.2629M271.069 61.2629L313.255 85.6191M313.255 85.6191L355.441 109.975M355.441 109.975L397.627 134.332M397.627 134.332L439.814 158.688M439.814 158.688L482 183.044M482 183.044L524.186 207.4" stroke="url(#paint1_radial_1031_23898)" stroke-width="0.809931"></path>
		<g filter="url(#filter0_f_1031_23898)">
			<ellipse cx="233.759" cy="68.3941" rx="233.759" ry="68.3941" transform="matrix(0.866025 -0.5 0.866025 0.5 152.826 456.85)" fill="#1DAA91" fill-opacity="0.2"></ellipse>
		</g>
		<g opacity="0.5">
			<g filter="url(#filter1_f_1031_23898)">
				<ellipse cx="123.079" cy="84.8156" rx="123.079" ry="84.8156" transform="matrix(-1.21671 0.0808594 -0.140053 -0.702468 672.596 337.694)" fill="#1DAA91"></ellipse>
			</g>
		</g>
		<g style="mix-blend-mode:color-dodge">
			<g filter="url(#filter2_f_1031_23898)">
				<ellipse cx="59.5885" cy="158.756" rx="59.5885" ry="158.756" transform="matrix(-0.95519 0.442573 -0.904946 -0.476471 687.998 308.366)" fill="url(#paint2_radial_1031_23898)" style="mix-blend-mode:plus-lighter"></ellipse>
			</g>
			<g filter="url(#filter3_f_1031_23898)">
				<ellipse cx="59.5885" cy="221.387" rx="59.5885" ry="221.387" transform="matrix(-0.95519 0.442573 -0.904946 -0.476471 711.92 361.676)" fill="url(#paint3_radial_1031_23898)" style="mix-blend-mode:plus-lighter"></ellipse>
			</g>
			<g filter="url(#filter4_f_1031_23898)">
				<ellipse cx="59.5885" cy="158.756" rx="59.5885" ry="158.756" transform="matrix(-0.95519 0.442573 -0.904946 -0.476471 646.537 360.534)" fill="url(#paint4_radial_1031_23898)" style="mix-blend-mode:plus-lighter"></ellipse>
			</g>
			<g filter="url(#filter5_f_1031_23898)">
				<ellipse cx="59.5885" cy="158.756" rx="59.5885" ry="158.756" transform="matrix(-0.95519 0.442573 -0.904946 -0.476471 803.328 325.574)" fill="url(#paint5_radial_1031_23898)" style="mix-blend-mode:plus-lighter"></ellipse>
			</g>
		</g>
	</g>
	<a href="https://x.com/fxifycom" target="_blank" class="hover-a">
		<path fill-rule="evenodd" clip-rule="evenodd" d="M197.883 242.936L237.474 219.924C237.692 219.797 237.845 219.613 237.93 219.406H238.294V225.059C238.294 225.834 237.882 226.55 237.211 226.938L197.891 249.729C196.529 250.519 194.846 250.509 193.493 249.705L155.203 226.942C154.544 226.55 154.141 225.841 154.141 225.075V219.406H154.459C154.544 219.609 154.693 219.791 154.906 219.918L193.476 242.912C194.832 243.72 196.519 243.729 197.883 242.936Z" fill="url(#paint6_linear_1031_23898)"></path>
		<path d="M237.474 219.924L237.826 220.53L237.826 220.53L237.474 219.924ZM197.883 242.936L198.235 243.542L198.235 243.542L197.883 242.936ZM237.93 219.406V218.705H237.463L237.284 219.137L237.93 219.406ZM238.294 219.406H238.995V218.705H238.294V219.406ZM237.211 226.938L237.563 227.544L237.563 227.544L237.211 226.938ZM197.891 249.729L198.242 250.335L198.242 250.335L197.891 249.729ZM193.493 249.705L193.135 250.307L193.135 250.307L193.493 249.705ZM155.203 226.942L154.845 227.544L154.845 227.544L155.203 226.942ZM154.141 219.406V218.705H153.44V219.406H154.141ZM154.459 219.406L155.106 219.137L154.927 218.705H154.459V219.406ZM154.906 219.918L154.547 220.52L154.547 220.52L154.906 219.918ZM193.476 242.912L193.117 243.514L193.117 243.514L193.476 242.912ZM237.474 219.924L237.122 219.318L197.531 242.331L197.883 242.936L198.235 243.542L237.826 220.53L237.474 219.924ZM237.93 219.406L237.284 219.137C237.255 219.207 237.204 219.271 237.122 219.318L237.474 219.924L237.826 220.53C238.181 220.323 238.435 220.019 238.577 219.675L237.93 219.406ZM237.93 219.406V220.107H238.294V219.406V218.705H237.93V219.406ZM238.294 219.406H237.594V225.059H238.294H238.995V219.406H238.294ZM238.294 225.059H237.594C237.594 225.584 237.314 226.069 236.86 226.332L237.211 226.938L237.563 227.544C238.449 227.031 238.995 226.084 238.995 225.059H238.294ZM237.211 226.938L236.86 226.332L197.539 249.123L197.891 249.729L198.242 250.335L237.563 227.544L237.211 226.938ZM197.891 249.729L197.539 249.123C196.397 249.785 194.986 249.777 193.851 249.103L193.493 249.705L193.135 250.307C194.707 251.241 196.66 251.252 198.242 250.335L197.891 249.729ZM193.493 249.705L193.851 249.103L155.561 226.34L155.203 226.942L154.845 227.544L193.135 250.307L193.493 249.705ZM155.203 226.942L155.561 226.34C155.115 226.075 154.841 225.594 154.841 225.075H154.141H153.44C153.44 226.088 153.974 227.026 154.845 227.544L155.203 226.942ZM154.141 225.075H154.841V219.406H154.141H153.44V225.075H154.141ZM154.141 219.406V220.107H154.459V219.406V218.705H154.141V219.406ZM154.906 219.918L155.264 219.316C155.184 219.269 155.135 219.206 155.106 219.137L154.459 219.406L153.813 219.675C153.953 220.013 154.201 220.313 154.547 220.52L154.906 219.918ZM193.476 242.912L193.835 242.31L155.264 219.316L154.906 219.918L154.547 220.52L193.117 243.514L193.476 242.912ZM197.883 242.936L197.531 242.331C196.387 242.996 194.972 242.988 193.835 242.31L193.476 242.912L193.117 243.514C194.691 244.452 196.651 244.463 198.235 243.542L197.883 242.936Z" fill="url(#paint7_linear_1031_23898)"></path>
		<path d="M236.969 220.215L196.391 243.802C195.945 244.061 195.394 244.058 194.951 243.794L155.387 220.207C154.459 219.654 154.465 218.308 155.398 217.763L194.963 194.684C195.4 194.429 195.939 194.426 196.379 194.676L236.958 217.755C237.909 218.296 237.915 219.665 236.969 220.215Z" fill="url(#paint8_linear_1031_23898)" stroke="url(#paint9_linear_1031_23898)" stroke-width="0.711208"></path>
		<g clip-path="url(#clip1_1031_23898)">
			<g filter="url(#filter6_d_1031_23898)">
				<path fill-rule="evenodd" clip-rule="evenodd" class="hover-style" d="M177.119 214.019L168.182 219.179L193.608 221.623L196.13 234.532L200.712 231.886L198.805 222.123L214.789 223.659L223.726 218.499L197.561 215.984L197.607 215.988L195.22 203.769L190.637 206.414L192.41 215.489L177.119 214.019ZM175.712 217.83L178.494 216.224L216.196 219.848L213.413 221.454L175.712 217.83Z" fill="#51E1C8"></path>
			</g>
		</g>
	</a>
	<a href="https://www.instagram.com/fxifycom/" target="_blank" class="hover-a">
		<path fill-rule="evenodd" clip-rule="evenodd" d="M404.67 269.63L444.261 246.618C444.48 246.491 444.632 246.306 444.718 246.099H445.079V251.753C445.079 252.527 444.667 253.243 443.997 253.631L404.676 276.423C403.314 277.212 401.631 277.203 400.278 276.398L361.988 253.635C361.329 253.244 360.926 252.535 360.926 251.769V246.099H361.246C361.331 246.303 361.48 246.484 361.693 246.612L400.263 269.605C401.619 270.414 403.306 270.423 404.67 269.63Z" fill="url(#paint10_linear_1031_23898)"></path>
		<path d="M444.261 246.618L443.909 246.012L443.909 246.012L444.261 246.618ZM404.67 269.63L405.022 270.236L405.022 270.236L404.67 269.63ZM444.718 246.099V245.399H444.25L444.071 245.831L444.718 246.099ZM445.079 246.099H445.78V245.399H445.079V246.099ZM443.997 253.631L444.348 254.238L444.348 254.238L443.997 253.631ZM404.676 276.423L405.027 277.029L405.027 277.029L404.676 276.423ZM400.278 276.398L399.92 277L399.92 277L400.278 276.398ZM361.988 253.635L361.63 254.237L361.63 254.237L361.988 253.635ZM360.926 246.099V245.399H360.225V246.099H360.926ZM361.246 246.099L361.893 245.831L361.714 245.399H361.246V246.099ZM361.693 246.612L361.334 247.213L361.334 247.213L361.693 246.612ZM400.263 269.605L399.905 270.207L399.905 270.207L400.263 269.605ZM444.261 246.618L443.909 246.012L404.318 269.024L404.67 269.63L405.022 270.236L444.613 247.223L444.261 246.618ZM444.718 246.099L444.071 245.831C444.042 245.9 443.991 245.964 443.909 246.012L444.261 246.618L444.613 247.223C444.968 247.017 445.222 246.712 445.365 246.368L444.718 246.099ZM444.718 246.099V246.8H445.079V246.099V245.399H444.718V246.099ZM445.079 246.099H444.379V251.753H445.079H445.78V246.099H445.079ZM445.079 251.753H444.379C444.379 252.277 444.099 252.762 443.645 253.025L443.997 253.631L444.348 254.238C445.234 253.724 445.78 252.777 445.78 251.753H445.079ZM443.997 253.631L443.645 253.025L404.325 275.817L404.676 276.423L405.027 277.029L444.348 254.238L443.997 253.631ZM404.676 276.423L404.325 275.817C403.182 276.479 401.771 276.471 400.636 275.796L400.278 276.398L399.92 277C401.492 277.935 403.446 277.945 405.027 277.029L404.676 276.423ZM400.278 276.398L400.636 275.796L362.346 253.033L361.988 253.635L361.63 254.237L399.92 277L400.278 276.398ZM361.988 253.635L362.346 253.033C361.9 252.768 361.626 252.287 361.626 251.769H360.926H360.225C360.225 252.782 360.759 253.72 361.63 254.237L361.988 253.635ZM360.926 251.769H361.626V246.099H360.926H360.225V251.769H360.926ZM360.926 246.099V246.8H361.246V246.099V245.399H360.926V246.099ZM361.693 246.612L362.052 246.01C361.972 245.962 361.922 245.899 361.893 245.831L361.246 246.099L360.6 246.368C360.74 246.706 360.988 247.007 361.334 247.213L361.693 246.612ZM400.263 269.605L400.622 269.004L362.052 246.01L361.693 246.612L361.334 247.213L399.905 270.207L400.263 269.605ZM404.67 269.63L404.318 269.024C403.174 269.689 401.759 269.681 400.622 269.004L400.263 269.605L399.905 270.207C401.479 271.146 403.438 271.156 405.022 270.236L404.67 269.63Z" fill="url(#paint11_linear_1031_23898)"></path>
		<path d="M443.756 246.909L403.178 270.495C402.732 270.754 402.181 270.751 401.738 270.487L362.174 246.901C361.246 246.347 361.252 245.001 362.186 244.456L401.75 221.377C402.187 221.122 402.726 221.12 403.166 221.37L443.745 244.449C444.696 244.99 444.703 246.359 443.756 246.909Z" fill="url(#paint12_linear_1031_23898)" stroke="url(#paint13_linear_1031_23898)" stroke-width="0.711208"></path>
		<g clip-path="url(#clip2_1031_23898)">
			<g filter="url(#filter7_d_1031_23898)">
				<path class="hover-style" d="M397.107 243.438C396.179 243.974 395.548 244.657 395.292 245.401C395.036 246.144 395.168 246.915 395.671 247.616C396.174 248.316 397.026 248.915 398.118 249.336C399.21 249.757 400.494 249.982 401.807 249.981C403.12 249.981 404.404 249.757 405.495 249.335C406.587 248.914 407.438 248.315 407.94 247.615C408.442 246.915 408.573 246.144 408.317 245.4C408.061 244.657 407.428 243.974 406.499 243.437C405.253 242.719 403.564 242.315 401.803 242.316C400.042 242.316 398.353 242.719 397.107 243.438ZM404.474 235.017C403.629 234.805 402.718 234.696 401.797 234.696C400.876 234.696 399.965 234.805 399.121 235.017C396.543 235.662 392.306 238.298 390.255 239.482C388.204 240.666 383.638 243.106 382.521 244.601C382.154 245.088 381.965 245.614 381.965 246.146C381.965 246.678 382.154 247.204 382.521 247.692C383.641 249.18 388.21 251.629 390.259 252.813C392.309 253.996 396.547 256.631 399.134 257.279C399.979 257.491 400.89 257.6 401.811 257.6C402.731 257.6 403.643 257.491 404.487 257.279C407.065 256.633 411.302 253.998 413.354 252.814C415.405 251.629 419.97 249.19 421.087 247.695C421.454 247.207 421.643 246.681 421.643 246.15C421.643 245.618 421.454 245.092 421.087 244.604C419.973 243.113 415.398 240.666 413.349 239.483C411.299 238.3 407.068 235.662 404.479 235.015L404.474 235.017ZM409.022 250.317C407.594 251.141 405.776 251.702 403.796 251.929C401.816 252.156 399.763 252.04 397.898 251.593C396.033 251.147 394.438 250.392 393.316 249.423C392.195 248.453 391.596 247.314 391.596 246.148C391.595 244.983 392.194 243.843 393.315 242.874C394.437 241.905 396.031 241.15 397.896 240.704C399.761 240.258 401.813 240.141 403.793 240.369C405.774 240.596 407.592 241.158 409.02 241.982C409.97 242.529 410.723 243.179 411.237 243.894C411.751 244.609 412.016 245.375 412.016 246.15C412.016 246.924 411.752 247.69 411.238 248.405C410.724 249.12 409.971 249.77 409.022 250.317ZM403.481 238.441C403.148 238.633 402.724 238.764 402.261 238.817C401.799 238.871 401.32 238.843 400.885 238.739C400.449 238.635 400.077 238.459 399.815 238.233C399.553 238.007 399.413 237.741 399.413 237.469C399.413 237.196 399.552 236.93 399.814 236.704C400.076 236.478 400.448 236.302 400.883 236.198C401.318 236.093 401.797 236.066 402.26 236.119C402.722 236.172 403.147 236.303 403.48 236.496C403.702 236.623 403.879 236.774 403.999 236.941C404.12 237.108 404.183 237.287 404.183 237.467C404.184 237.648 404.123 237.827 404.004 237.994C403.885 238.161 403.709 238.313 403.488 238.441L403.481 238.441ZM421.597 241.43C423.739 242.798 425.224 244.25 425.22 246.149C425.216 248.048 423.744 249.504 421.599 250.867C419.405 252.285 412.436 256.308 409.981 257.575C407.611 258.812 405.104 259.664 401.808 259.665C398.513 259.667 395.994 258.812 393.635 257.574C391.178 256.307 384.207 252.282 382.015 250.865C379.872 249.497 378.382 248.049 378.392 246.146C378.402 244.243 379.88 242.79 382.019 241.431C384.212 240.013 391.181 235.99 393.637 234.724C396.006 233.487 398.52 232.631 401.809 232.633C405.099 232.635 407.623 233.486 409.987 234.727C412.435 235.989 419.4 240.01 421.597 241.43Z" fill="#51E1C8"></path>
			</g>
		</g>
	</a>
	<a href="https://www.facebook.com/fxifycom" target="_blank" class="hover-a">
		<path fill-rule="evenodd" clip-rule="evenodd" d="M526.849 200.104L565.219 177.801C565.431 177.678 565.579 177.5 565.662 177.299H566.014V182.778C566.014 183.529 565.614 184.223 564.965 184.599L526.856 206.688C525.536 207.453 523.906 207.444 522.594 206.664L485.484 184.603C484.846 184.224 484.455 183.536 484.455 182.794V177.299H484.764C484.846 177.496 484.99 177.672 485.197 177.795L522.578 200.08C523.892 200.863 525.527 200.872 526.849 200.104Z" fill="url(#paint14_linear_1031_23898)"></path>
		<path d="M565.219 177.801L565.56 178.388L565.56 178.388L565.219 177.801ZM526.849 200.104L526.508 199.517L526.508 199.517L526.849 200.104ZM565.662 177.299V176.62H565.209L565.035 177.039L565.662 177.299ZM566.014 177.299H566.693V176.62H566.014V177.299ZM564.965 184.599L565.305 185.187L565.305 185.187L564.965 184.599ZM526.856 206.688L526.516 206.1L526.516 206.1L526.856 206.688ZM522.594 206.664L522.941 206.081L522.941 206.081L522.594 206.664ZM485.484 184.603L485.137 185.186L485.137 185.186L485.484 184.603ZM484.455 177.299V176.62H483.776V177.299H484.455ZM484.764 177.299L485.391 177.039L485.217 176.62H484.764V177.299ZM485.197 177.795L484.849 178.378L484.849 178.378L485.197 177.795ZM522.578 200.08L522.926 199.497L522.926 199.497L522.578 200.08ZM565.219 177.801L564.878 177.214L526.508 199.517L526.849 200.104L527.19 200.691L565.56 178.388L565.219 177.801ZM565.662 177.299L565.035 177.039C565.007 177.106 564.958 177.168 564.878 177.214L565.219 177.801L565.56 178.388C565.905 178.188 566.15 177.893 566.289 177.56L565.662 177.299ZM565.662 177.299V177.978H566.014V177.299V176.62H565.662V177.299ZM566.014 177.299H565.335V182.778H566.014H566.693V177.299H566.014ZM566.014 182.778H565.335C565.335 183.287 565.064 183.757 564.624 184.012L564.965 184.599L565.305 185.187C566.164 184.689 566.693 183.771 566.693 182.778H566.014ZM564.965 184.599L564.624 184.012L526.516 206.1L526.856 206.688L527.197 207.275L565.305 185.187L564.965 184.599ZM526.856 206.688L526.516 206.1C525.409 206.742 524.041 206.734 522.941 206.081L522.594 206.664L522.247 207.248C523.77 208.153 525.664 208.164 527.197 207.275L526.856 206.688ZM522.594 206.664L522.941 206.081L485.831 184.019L485.484 184.603L485.137 185.186L522.247 207.248L522.594 206.664ZM485.484 184.603L485.831 184.019C485.399 183.762 485.134 183.297 485.134 182.794H484.455H483.776C483.776 183.776 484.293 184.685 485.137 185.186L485.484 184.603ZM484.455 182.794H485.134V177.299H484.455H483.776V182.794H484.455ZM484.455 177.299V177.978H484.764V177.299V176.62H484.455V177.299ZM485.197 177.795L485.545 177.212C485.467 177.166 485.419 177.105 485.391 177.039L484.764 177.299L484.138 177.56C484.274 177.888 484.514 178.178 484.849 178.378L485.197 177.795ZM522.578 200.08L522.926 199.497L485.545 177.212L485.197 177.795L484.849 178.378L522.231 200.663L522.578 200.08ZM526.849 200.104L526.508 199.517C525.399 200.161 524.028 200.154 522.926 199.497L522.578 200.08L522.231 200.663C523.756 201.573 525.655 201.583 527.19 200.691L526.849 200.104Z" fill="url(#paint15_linear_1031_23898)"></path>
		<path d="M564.73 178.083L525.403 200.943C524.971 201.194 524.437 201.191 524.007 200.935L485.663 178.076C484.763 177.539 484.77 176.235 485.674 175.707L524.019 153.339C524.442 153.092 524.965 153.089 525.391 153.332L564.719 175.699C565.641 176.224 565.647 177.55 564.73 178.083Z" fill="url(#paint16_linear_1031_23898)" stroke="url(#paint17_linear_1031_23898)" stroke-width="0.689281"></path>
		<g filter="url(#filter8_d_1031_23898)">
			<path class="hover-style" d="M521.344 168.904L523.909 167.423L519.571 164.919C518.2 165.561 516.889 166.245 515.642 166.967C511.932 169.109 511.659 171.881 515.806 174.275L519.38 176.339L515.192 178.756L520.048 181.56L524.236 179.142L536.677 186.325L541.696 183.427L529.256 176.244L533.43 173.834L529.201 170.668L524.4 173.44L521.303 171.653C519.871 170.826 519.325 170.07 521.344 168.904Z" fill="#51E1C8"></path>
		</g>
	</a>
	<a href="https://www.tiktok.com/@fxifycom" target="_blank" class="hover-a">
		<path fill-rule="evenodd" clip-rule="evenodd" d="M321.539 220.76L361.13 197.748C361.349 197.62 361.501 197.436 361.587 197.229H361.95V202.882C361.95 203.657 361.538 204.373 360.868 204.761L321.547 227.552C320.185 228.342 318.502 228.333 317.149 227.528L278.859 204.765C278.2 204.374 277.797 203.664 277.797 202.898V197.229H278.116C278.2 197.433 278.349 197.614 278.562 197.741L317.132 220.735C318.488 221.543 320.175 221.553 321.539 220.76Z" fill="url(#paint18_linear_1031_23898)"></path>
		<path d="M361.13 197.748L360.778 197.142L360.778 197.142L361.13 197.748ZM321.539 220.76L321.891 221.365L321.891 221.365L321.539 220.76ZM361.587 197.229V196.529H361.119L360.94 196.961L361.587 197.229ZM361.95 197.229H362.651V196.529H361.95V197.229ZM360.868 204.761L361.219 205.367L361.219 205.367L360.868 204.761ZM321.547 227.552L321.898 228.159L321.898 228.159L321.547 227.552ZM317.149 227.528L316.791 228.13L316.791 228.13L317.149 227.528ZM278.859 204.765L278.501 205.367L278.501 205.367L278.859 204.765ZM277.797 197.229V196.529H277.096V197.229H277.797ZM278.116 197.229L278.763 196.96L278.583 196.529H278.116V197.229ZM278.562 197.741L278.203 198.343L278.203 198.343L278.562 197.741ZM317.132 220.735L316.774 221.337L316.774 221.337L317.132 220.735ZM361.13 197.748L360.778 197.142L321.187 220.154L321.539 220.76L321.891 221.365L361.482 198.353L361.13 197.748ZM361.587 197.229L360.94 196.961C360.911 197.03 360.86 197.094 360.778 197.142L361.13 197.748L361.482 198.353C361.837 198.147 362.091 197.842 362.234 197.498L361.587 197.229ZM361.587 197.229V197.93H361.95V197.229V196.529H361.587V197.229ZM361.95 197.229H361.25V202.882H361.95H362.651V197.229H361.95ZM361.95 202.882H361.25C361.25 203.407 360.97 203.892 360.516 204.155L360.868 204.761L361.219 205.367C362.105 204.854 362.651 203.907 362.651 202.882H361.95ZM360.868 204.761L360.516 204.155L321.196 226.946L321.547 227.552L321.898 228.159L361.219 205.367L360.868 204.761ZM321.547 227.552L321.196 226.946C320.053 227.608 318.642 227.601 317.507 226.926L317.149 227.528L316.791 228.13C318.363 229.064 320.317 229.075 321.898 228.159L321.547 227.552ZM317.149 227.528L317.507 226.926L279.217 204.163L278.859 204.765L278.501 205.367L316.791 228.13L317.149 227.528ZM278.859 204.765L279.217 204.163C278.771 203.898 278.497 203.417 278.497 202.898H277.797H277.096C277.096 203.911 277.63 204.85 278.501 205.367L278.859 204.765ZM277.797 202.898H278.497V197.229H277.797H277.096V202.898H277.797ZM277.797 197.229V197.93H278.116V197.229V196.529H277.797V197.229ZM278.562 197.741L278.921 197.14C278.841 197.092 278.791 197.029 278.763 196.96L278.116 197.229L277.469 197.498C277.609 197.836 277.857 198.137 278.203 198.343L278.562 197.741ZM317.132 220.735L317.491 220.134L278.921 197.14L278.562 197.741L278.203 198.343L316.774 221.337L317.132 220.735ZM321.539 220.76L321.187 220.154C320.043 220.819 318.628 220.811 317.491 220.134L317.132 220.735L316.774 221.337C318.348 222.275 320.307 222.286 321.891 221.365L321.539 220.76Z" fill="url(#paint19_linear_1031_23898)"></path>
		<path d="M360.626 198.039L320.047 221.625C319.601 221.884 319.05 221.881 318.607 221.617L279.043 198.031C278.115 197.477 278.121 196.131 279.055 195.586L318.619 172.507C319.056 172.252 319.595 172.249 320.035 172.499L360.614 195.579C361.565 196.12 361.572 197.489 360.626 198.039Z" fill="url(#paint20_linear_1031_23898)" stroke="url(#paint21_linear_1031_23898)" stroke-width="0.711208"></path>
		<g filter="url(#filter9_d_1031_23898)">
			<path class="hover-style" d="M322.595 186.119C320.869 186.765 318.83 187.075 316.777 187.005C314.723 186.934 312.763 186.487 311.18 185.728L310.552 185.366L305.646 188.199L325.117 199.441C325.976 199.94 326.543 200.582 326.737 201.277C326.931 201.972 326.743 202.685 326.2 203.315C325.656 203.945 324.785 204.461 323.707 204.79C322.63 205.119 321.4 205.245 320.192 205.15C318.965 205.054 317.823 204.734 316.931 204.237C316.04 203.74 315.446 203.092 315.235 202.387C315.025 201.682 315.209 200.957 315.76 200.316C316.312 199.676 317.202 199.153 318.303 198.825L313.318 195.947C311.199 196.873 309.634 198.158 308.843 199.623C308.052 201.088 308.073 202.659 308.905 204.117C309.736 205.574 311.336 206.845 313.48 207.752C315.624 208.659 318.206 209.156 320.863 209.174C323.397 209.191 325.882 208.771 328.001 207.969C330.12 207.166 331.777 206.018 332.76 204.669C333.743 203.321 334.008 201.834 333.521 200.398C333.034 198.963 331.817 197.643 330.025 196.609L320.076 190.864C323.476 190.538 326.614 189.604 329.047 188.194L324.172 185.38C323.692 185.657 323.164 185.905 322.595 186.119Z" fill="#51E1C8"></path>
		</g>
	</a>
	<a href="https://t.me/FXIFYCOM" target="_blank" class="hover-a">
		<path fill-rule="evenodd" clip-rule="evenodd" d="M443.959 199.824L482.782 177.258C482.996 177.133 483.146 176.953 483.23 176.75H483.587V182.294C483.587 183.053 483.182 183.755 482.525 184.136L443.966 206.485C442.631 207.26 440.981 207.25 439.654 206.462L402.106 184.14C401.46 183.756 401.064 183.06 401.064 182.309V176.75H401.377C401.46 176.949 401.606 177.127 401.815 177.252L439.637 199.8C440.966 200.593 442.621 200.602 443.959 199.824Z" fill="url(#paint22_linear_1031_23898)"></path>
		<path d="M482.782 177.258L483.127 177.852L483.127 177.852L482.782 177.258ZM443.959 199.824L443.613 199.23L443.613 199.23L443.959 199.824ZM483.23 176.75V176.063H482.771L482.596 176.486L483.23 176.75ZM483.587 176.75H484.274V176.063H483.587V176.75ZM482.525 184.136L482.869 184.73L482.869 184.73L482.525 184.136ZM443.966 206.485L444.311 207.08L444.311 207.08L443.966 206.485ZM439.654 206.462L440.005 205.871L440.005 205.871L439.654 206.462ZM402.106 184.14L402.457 183.549L402.457 183.549L402.106 184.14ZM401.064 176.75V176.063H400.377V176.75H401.064ZM401.377 176.75L402.011 176.486L401.835 176.063H401.377V176.75ZM401.815 177.252L401.463 177.842L401.463 177.842L401.815 177.252ZM439.637 199.8L439.286 200.39L439.286 200.39L439.637 199.8ZM482.782 177.258L482.437 176.664L443.613 199.23L443.959 199.824L444.304 200.418L483.127 177.852L482.782 177.258ZM483.23 176.75L482.596 176.486C482.567 176.555 482.517 176.617 482.437 176.664L482.782 177.258L483.127 177.852C483.475 177.65 483.724 177.351 483.864 177.014L483.23 176.75ZM483.23 176.75V177.437H483.587V176.75V176.063H483.23V176.75ZM483.587 176.75H482.9V182.294H483.587H484.274V176.75H483.587ZM483.587 182.294H482.9C482.9 182.808 482.626 183.284 482.18 183.542L482.525 184.136L482.869 184.73C483.739 184.227 484.274 183.298 484.274 182.294H483.587ZM482.525 184.136L482.18 183.542L443.622 205.891L443.966 206.485L444.311 207.08L482.869 184.73L482.525 184.136ZM443.966 206.485L443.622 205.891C442.502 206.54 441.118 206.533 440.005 205.871L439.654 206.462L439.303 207.052C440.844 207.968 442.76 207.979 444.311 207.08L443.966 206.485ZM439.654 206.462L440.005 205.871L402.457 183.549L402.106 184.14L401.755 184.73L439.303 207.052L439.654 206.462ZM402.106 184.14L402.457 183.549C402.019 183.289 401.751 182.818 401.751 182.309H401.064H400.377C400.377 183.303 400.901 184.223 401.755 184.73L402.106 184.14ZM401.064 182.309H401.751V176.75H401.064H400.377V182.309H401.064ZM401.064 176.75V177.437H401.377V176.75V176.063H401.064V176.75ZM401.815 177.252L402.166 176.662C402.088 176.615 402.039 176.553 402.011 176.486L401.377 176.75L400.743 177.014C400.881 177.345 401.123 177.64 401.463 177.842L401.815 177.252ZM439.637 199.8L439.989 199.21L402.166 176.662L401.815 177.252L401.463 177.842L439.286 200.39L439.637 199.8ZM443.959 199.824L443.613 199.23C442.491 199.882 441.104 199.875 439.989 199.21L439.637 199.8L439.286 200.39C440.829 201.31 442.75 201.321 444.304 200.418L443.959 199.824Z" fill="url(#paint23_linear_1031_23898)"></path>
		<path d="M482.289 177.544L442.497 200.673C442.06 200.927 441.52 200.924 441.086 200.665L402.288 177.536C401.378 176.993 401.384 175.673 402.3 175.139L441.097 152.507C441.525 152.257 442.054 152.254 442.486 152.5L482.278 175.132C483.211 175.662 483.217 177.004 482.289 177.544Z" fill="url(#paint24_linear_1031_23898)" stroke="url(#paint25_linear_1031_23898)" stroke-width="0.697421"></path>
		<g filter="url(#filter10_d_1031_23898)">
			<path class="hover-style" d="M442.748 162.513L427.699 182.107C426.699 183.46 427.641 183.993 429.413 183.451L437.663 180.952L443.033 167.252C443.302 166.613 444.156 166.38 444.098 166.943L442.948 179.892L442.946 179.893L442.95 179.892L448.998 183.885C449.633 183.518 449.622 183.188 449.635 182.784L449.719 179.305L460.766 178.347C462.582 178.043 463.092 177.366 461.985 176.39L446.5 162.634C445.215 161.399 443.36 161.575 442.748 162.513Z" fill="#51E1C8"></path>
		</g>
	</a>
	<a href="https://discord.com/invite/FXIFY" target="_blank" class="hover-a">
		<path fill-rule="evenodd" clip-rule="evenodd" d="M526.989 247.722L565.399 225.397C565.611 225.273 565.758 225.095 565.842 224.894H566.195V230.379C566.195 231.13 565.795 231.825 565.145 232.201L526.997 254.313C525.676 255.078 524.044 255.069 522.731 254.289L485.583 232.205C484.944 231.825 484.553 231.137 484.553 230.394V224.894H484.861C484.943 225.091 485.087 225.267 485.294 225.391L522.714 247.699C524.029 248.483 525.665 248.492 526.989 247.722Z" fill="url(#paint26_linear_1031_23898)"></path>
		<path d="M565.399 225.397L565.057 224.809L565.057 224.809L565.399 225.397ZM526.989 247.722L527.331 248.31L527.331 248.31L526.989 247.722ZM565.842 224.894V224.214H565.388L565.214 224.633L565.842 224.894ZM566.195 224.894H566.875V224.214H566.195V224.894ZM565.145 232.201L565.486 232.789L565.486 232.789L565.145 232.201ZM526.997 254.313L527.338 254.901L527.338 254.901L526.997 254.313ZM522.731 254.289L522.384 254.873L522.384 254.873L522.731 254.289ZM485.583 232.205L485.93 231.621L485.93 231.621L485.583 232.205ZM484.553 224.894V224.214H483.873V224.894H484.553ZM484.861 224.894L485.489 224.633L485.315 224.214H484.861V224.894ZM485.294 225.391L485.642 224.807L485.642 224.807L485.294 225.391ZM522.714 247.699L522.366 248.282L522.366 248.282L522.714 247.699ZM565.399 225.397L565.057 224.809L526.647 247.135L526.989 247.722L527.331 248.31L565.74 225.984L565.399 225.397ZM565.842 224.894L565.214 224.633C565.186 224.701 565.137 224.763 565.057 224.809L565.399 225.397L565.74 225.984C566.085 225.784 566.331 225.488 566.469 225.155L565.842 224.894ZM565.842 224.894V225.574H566.195V224.894V224.214H565.842V224.894ZM566.195 224.894H565.516V230.379H566.195H566.875V224.894H566.195ZM566.195 230.379H565.516C565.516 230.888 565.245 231.358 564.804 231.613L565.145 232.201L565.486 232.789C566.346 232.291 566.875 231.372 566.875 230.379H566.195ZM565.145 232.201L564.804 231.613L526.657 253.725L526.997 254.313L527.338 254.901L565.486 232.789L565.145 232.201ZM526.997 254.313L526.657 253.725C525.548 254.367 524.179 254.359 523.078 253.705L522.731 254.289L522.384 254.873C523.908 255.779 525.804 255.79 527.338 254.901L526.997 254.313ZM522.731 254.289L523.078 253.705L485.93 231.621L485.583 232.205L485.236 232.789L522.384 254.873L522.731 254.289ZM485.583 232.205L485.93 231.621C485.498 231.364 485.232 230.897 485.232 230.394H484.553H483.873C483.873 231.377 484.391 232.287 485.236 232.789L485.583 232.205ZM484.553 230.394H485.232V224.894H484.553H483.873V230.394H484.553ZM484.553 224.894V225.574H484.861V224.894V224.214H484.553V224.894ZM485.294 225.391L485.642 224.807C485.565 224.761 485.516 224.7 485.489 224.633L484.861 224.894L484.234 225.155C484.37 225.483 484.61 225.774 484.946 225.974L485.294 225.391ZM522.714 247.699L523.062 247.115L485.642 224.807L485.294 225.391L484.946 225.974L522.366 248.282L522.714 247.699ZM526.989 247.722L526.647 247.135C525.537 247.78 524.165 247.772 523.062 247.115L522.714 247.699L522.366 248.282C523.893 249.193 525.793 249.203 527.331 248.31L526.989 247.722Z" fill="url(#paint27_linear_1031_23898)"></path>
		<path d="M564.911 225.679L525.543 248.562C525.111 248.813 524.576 248.81 524.147 248.554L485.763 225.672C484.862 225.135 484.868 223.828 485.774 223.3L524.158 200.91C524.582 200.662 525.105 200.66 525.532 200.902L564.9 223.293C565.823 223.818 565.829 225.146 564.911 225.679Z" fill="url(#paint28_linear_1031_23898)" stroke="url(#paint29_linear_1031_23898)" stroke-width="0.689988"></path>
		<g filter="url(#filter11_d_1031_23898)">
			<path class="hover-style" d="M506.19 223.772C507.117 222.268 508.396 220.826 510.024 219.485C510.712 219.602 511.594 219.784 512.265 219.946C514.044 218.549 516.124 217.348 518.505 216.343C518.224 215.956 517.915 215.443 517.715 215.045C520.039 214.104 522.542 213.365 525.15 212.831C534.178 213.929 540.474 216.448 545.245 219.76C544.673 222.159 543.471 224.11 541.931 225.821C540.599 225.694 539.277 225.503 537.98 225.247C538.48 224.597 538.872 223.923 539.158 223.239C538.816 223.267 538.472 223.288 538.129 223.304C535.77 227.127 530.891 229.944 524.323 231.275C524.294 231.474 524.256 231.673 524.21 231.869C525.4 231.703 526.569 231.476 527.696 231.187C528.137 231.935 528.471 232.698 528.689 233.469C525.723 234.359 522.343 235.054 518.186 235.383C511.529 232.194 507.783 228.259 506.19 223.772ZM533.018 223.089C534.366 222.311 534.194 220.935 532.638 220.037C531.083 219.139 528.722 219.025 527.35 219.817C525.978 220.608 526.15 221.984 527.731 222.87C529.285 223.769 531.646 223.881 533.018 223.089ZM523.951 228.324C525.299 227.545 525.127 226.17 523.571 225.272C522.016 224.374 519.655 224.259 518.283 225.051C516.911 225.843 517.083 227.219 518.665 228.105C520.22 229.003 522.579 229.116 523.951 228.324Z" fill="#51E1C8"></path>
		</g>
	</a>
	<g filter="url(#filter12_d_1031_23898)">
		<circle cx="0.237561" cy="0.237561" r="0.237561" transform="matrix(1 0 0 -1 236.846 242.32)" fill="#C8FED4" fill-opacity="0.88" shape-rendering="crispEdges"></circle>
	</g>
	<g filter="url(#filter13_d_1031_23898)">
		<circle cx="0.237561" cy="0.237561" r="0.237561" transform="matrix(1 0 0 -1 148.064 151.894)" fill="#C8FED4" fill-opacity="0.88" shape-rendering="crispEdges"></circle>
	</g>
	<g filter="url(#filter14_d_1031_23898)">
		<circle cx="0.280896" cy="0.280896" r="0.280896" transform="matrix(1 0 0 -1 219.344 85.5613)" fill="#C8FED4" fill-opacity="0.88" shape-rendering="crispEdges"></circle>
	</g>
	<g filter="url(#filter15_d_1031_23898)">
		<circle cx="0.475121" cy="0.475121" r="0.475121" transform="matrix(1 0 0 -1 245.398 248.094)" fill="#C8FED4" fill-opacity="0.88" shape-rendering="crispEdges"></circle>
	</g>
	<g filter="url(#filter16_d_1031_23898)">
		<circle cx="0.475121" cy="0.475121" r="0.475121" transform="matrix(1 0 0 -1 270.342 250.707)" fill="#C8FED4" fill-opacity="0.88" shape-rendering="crispEdges"></circle>
	</g>
	<g filter="url(#filter17_d_1031_23898)">
		<circle cx="0.475121" cy="0.475121" r="0.475121" transform="matrix(1 0 0 -1 255.66 212.38)" fill="#C8FED4" fill-opacity="0.88" shape-rendering="crispEdges"></circle>
	</g>
	<g filter="url(#filter18_d_1031_23898)">
		<circle cx="0.475121" cy="0.475121" r="0.475121" transform="matrix(1 0 0 -1 283.646 233.603)" fill="#C8FED4" fill-opacity="0.88" shape-rendering="crispEdges"></circle>
	</g>
	<g filter="url(#filter19_d_1031_23898)">
		<circle cx="0.475121" cy="0.475121" r="0.475121" transform="matrix(1 0 0 -1 185.461 240.626)" fill="#C8FED4" fill-opacity="0.88" shape-rendering="crispEdges"></circle>
	</g>
	<g filter="url(#filter20_d_1031_23898)">
		<circle cx="0.475121" cy="0.475121" r="0.475121" transform="matrix(1 0 0 -1 144.654 133.055)" fill="#C8FED4" fill-opacity="0.88" shape-rendering="crispEdges"></circle>
	</g>
	<g filter="url(#filter21_d_1031_23898)">
		<circle cx="0.475121" cy="0.475121" r="0.475121" transform="matrix(1 0 0 -1 198.279 137.268)" fill="#C8FED4" fill-opacity="0.88" shape-rendering="crispEdges"></circle>
	</g>
	<g filter="url(#filter22_d_1031_23898)">
		<circle cx="0.475121" cy="0.475121" r="0.475121" transform="matrix(1 0 0 -1 193.404 316.141)" fill="#C8FED4" fill-opacity="0.88" shape-rendering="crispEdges"></circle>
	</g>
	<g filter="url(#filter23_d_1031_23898)">
		<circle cx="0.237561" cy="0.237561" r="0.237561" transform="matrix(1 0 0 -1 154.889 299.17)" fill="#C8FED4" fill-opacity="0.88" shape-rendering="crispEdges"></circle>
	</g>
	<g filter="url(#filter24_d_1031_23898)">
		<circle cx="0.237561" cy="0.237561" r="0.237561" transform="matrix(1 0 0 -1 134.605 372.634)" fill="#C8FED4" fill-opacity="0.88" shape-rendering="crispEdges"></circle>
	</g>
	<g filter="url(#filter25_d_1031_23898)">
		<circle cx="0.475121" cy="0.475121" r="0.475121" transform="matrix(1 0 0 -1 137.615 274.637)" fill="#C8FED4" fill-opacity="0.88" shape-rendering="crispEdges"></circle>
	</g>
	<g filter="url(#filter26_d_1031_23898)">
		<circle cx="0.475121" cy="0.475121" r="0.475121" transform="matrix(1 0 0 -1 167.463 260.802)" fill="#C8FED4" fill-opacity="0.88" shape-rendering="crispEdges"></circle>
	</g>
	<g filter="url(#filter27_d_1031_23898)">
		<circle cx="159.057" cy="215.602" r="0.237561" transform="rotate(-180 159.057 215.602)" fill="#C8FED4" fill-opacity="0.88" shape-rendering="crispEdges"></circle>
	</g>
	<g filter="url(#filter28_d_1031_23898)">
		<circle cx="1.2816" cy="121.02" r="0.280896" transform="rotate(-180 1.2816 121.02)" fill="#C8FED4" fill-opacity="0.88" shape-rendering="crispEdges"></circle>
	</g>
	<g filter="url(#filter29_d_1031_23898)">
		<circle cx="110.425" cy="241.304" r="0.475121" transform="rotate(-180 110.425 241.304)" fill="#C8FED4" fill-opacity="0.88" shape-rendering="crispEdges"></circle>
	</g>
	<g filter="url(#filter30_d_1031_23898)">
		<circle cx="44.0034" cy="219.975" r="0.475121" transform="rotate(-180 44.0034 219.975)" fill="#C8FED4" fill-opacity="0.88" shape-rendering="crispEdges"></circle>
	</g>
	<g filter="url(#filter31_d_1031_23898)">
		<circle cx="234.361" cy="283.385" r="0.475121" transform="rotate(-180 234.361 283.385)" fill="#C8FED4" fill-opacity="0.88" shape-rendering="crispEdges"></circle>
	</g>
	<g filter="url(#filter32_d_1031_23898)">
		<circle cx="116.189" cy="254.563" r="0.475121" transform="rotate(-180 116.189 254.563)" fill="#C8FED4" fill-opacity="0.88" shape-rendering="crispEdges"></circle>
	</g>
	<g filter="url(#filter33_d_1031_23898)">
		<circle cx="65.3093" cy="215.025" r="0.237561" transform="rotate(-180 65.3093 215.025)" fill="#C8FED4" fill-opacity="0.88" shape-rendering="crispEdges"></circle>
	</g>
	<g filter="url(#filter34_d_1031_23898)">
		<circle cx="168.517" cy="232.657" r="0.475121" transform="rotate(-180 168.517 232.657)" fill="#C8FED4" fill-opacity="0.88" shape-rendering="crispEdges"></circle>
	</g>
	<g filter="url(#filter35_d_1031_23898)">
		<circle cx="48.9538" cy="265.176" r="0.237561" transform="rotate(-180 48.9538 265.176)" fill="#C8FED4" fill-opacity="0.88" shape-rendering="crispEdges"></circle>
	</g>
	<g filter="url(#filter36_d_1031_23898)">
		<circle cx="148.104" cy="255.376" r="0.237561" transform="rotate(-180 148.104 255.376)" fill="#C8FED4" fill-opacity="0.88" shape-rendering="crispEdges"></circle>
	</g>
	<g filter="url(#filter37_d_1031_23898)">
		<circle cx="86.6616" cy="222.281" r="0.475121" transform="rotate(-180 86.6616 222.281)" fill="#C8FED4" fill-opacity="0.88" shape-rendering="crispEdges"></circle>
	</g>
	<g filter="url(#filter38_d_1031_23898)">
		<circle cx="192.728" cy="221.129" r="0.475121" transform="rotate(-180 192.728 221.129)" fill="#C8FED4" fill-opacity="0.88" shape-rendering="crispEdges"></circle>
	</g>
	<defs>
		<filter id="filter0_f_1031_23898" x="172.746" y="221.586" width="483.506" height="305.162" filterUnits="userSpaceOnUse" color-interpolation-filters="sRGB">
			<feFlood flood-opacity="0" result="BackgroundImageFix"></feFlood>
			<feBlend mode="normal" in="SourceGraphic" in2="BackgroundImageFix" result="shape"></feBlend>
			<feGaussianBlur stdDeviation="15.3847" result="effect1_foregroundBlur_1031_23898"></feGaussianBlur>
		</filter>
		<filter id="filter1_f_1031_23898" x="258.504" y="125.419" width="504.923" height="325.294" filterUnits="userSpaceOnUse" color-interpolation-filters="sRGB">
			<feFlood flood-opacity="0" result="BackgroundImageFix"></feFlood>
			<feBlend mode="normal" in="SourceGraphic" in2="BackgroundImageFix" result="shape"></feBlend>
			<feGaussianBlur stdDeviation="51.116" result="effect1_foregroundBlur_1031_23898"></feGaussianBlur>
		</filter>
		<filter id="filter2_f_1031_23898" x="318.783" y="164.905" width="337.262" height="188.381" filterUnits="userSpaceOnUse" color-interpolation-filters="sRGB">
			<feFlood flood-opacity="0" result="BackgroundImageFix"></feFlood>
			<feBlend mode="normal" in="SourceGraphic" in2="BackgroundImageFix" result="shape"></feBlend>
			<feGaussianBlur stdDeviation="7.0304" result="effect1_foregroundBlur_1031_23898"></feGaussianBlur>
		</filter>
		<filter id="filter3_f_1031_23898" x="232.273" y="159.746" width="444.772" height="245.635" filterUnits="userSpaceOnUse" color-interpolation-filters="sRGB">
			<feFlood flood-opacity="0" result="BackgroundImageFix"></feFlood>
			<feBlend mode="normal" in="SourceGraphic" in2="BackgroundImageFix" result="shape"></feBlend>
			<feGaussianBlur stdDeviation="7.0304" result="effect1_foregroundBlur_1031_23898"></feGaussianBlur>
		</filter>
		<filter id="filter4_f_1031_23898" x="277.322" y="217.073" width="337.262" height="188.381" filterUnits="userSpaceOnUse" color-interpolation-filters="sRGB">
			<feFlood flood-opacity="0" result="BackgroundImageFix"></feFlood>
			<feBlend mode="normal" in="SourceGraphic" in2="BackgroundImageFix" result="shape"></feBlend>
			<feGaussianBlur stdDeviation="7.0304" result="effect1_foregroundBlur_1031_23898"></feGaussianBlur>
		</filter>
		<filter id="filter5_f_1031_23898" x="434.113" y="182.113" width="337.262" height="188.381" filterUnits="userSpaceOnUse" color-interpolation-filters="sRGB">
			<feFlood flood-opacity="0" result="BackgroundImageFix"></feFlood>
			<feBlend mode="normal" in="SourceGraphic" in2="BackgroundImageFix" result="shape"></feBlend>
			<feGaussianBlur stdDeviation="7.0304" result="effect1_foregroundBlur_1031_23898"></feGaussianBlur>
		</filter>
		<filter id="filter6_d_1031_23898" x="165.842" y="201.429" width="60.2233" height="35.4418" filterUnits="userSpaceOnUse" color-interpolation-filters="sRGB">
			<feFlood flood-opacity="0" result="BackgroundImageFix"></feFlood>
			<feColorMatrix in="SourceAlpha" type="matrix" values="0 0 0 0 0 0 0 0 0 0 0 0 0 0 0 0 0 0 127 0" result="hardAlpha"></feColorMatrix>
			<feOffset></feOffset>
			<feGaussianBlur stdDeviation="1.16959"></feGaussianBlur>
			<feComposite in2="hardAlpha" operator="out"></feComposite>
			<feColorMatrix type="matrix" values="0 0 0 0 0.248241 0 0 0 0 0.871759 0 0 0 0 0.761206 0 0 0 1 0"></feColorMatrix>
			<feBlend mode="normal" in2="BackgroundImageFix" result="effect1_dropShadow_1031_23898"></feBlend>
			<feBlend mode="normal" in="SourceGraphic" in2="effect1_dropShadow_1031_23898" result="shape"></feBlend>
		</filter>
		<filter id="filter7_d_1031_23898" x="376.07" y="230.31" width="51.4731" height="31.6777" filterUnits="userSpaceOnUse" color-interpolation-filters="sRGB">
			<feFlood flood-opacity="0" result="BackgroundImageFix"></feFlood>
			<feColorMatrix in="SourceAlpha" type="matrix" values="0 0 0 0 0 0 0 0 0 0 0 0 0 0 0 0 0 0 127 0" result="hardAlpha"></feColorMatrix>
			<feOffset></feOffset>
			<feGaussianBlur stdDeviation="1.16123"></feGaussianBlur>
			<feComposite in2="hardAlpha" operator="out"></feComposite>
			<feColorMatrix type="matrix" values="0 0 0 0 0.248241 0 0 0 0 0.871759 0 0 0 0 0.761206 0 0 0 1 0"></feColorMatrix>
			<feBlend mode="normal" in2="BackgroundImageFix" result="effect1_dropShadow_1031_23898"></feBlend>
			<feBlend mode="normal" in="SourceGraphic" in2="effect1_dropShadow_1031_23898" result="shape"></feBlend>
		</filter>
		<filter id="filter8_d_1031_23898" x="510.527" y="162.669" width="33.4203" height="25.9061" filterUnits="userSpaceOnUse" color-interpolation-filters="sRGB">
			<feFlood flood-opacity="0" result="BackgroundImageFix"></feFlood>
			<feColorMatrix in="SourceAlpha" type="matrix" values="0 0 0 0 0 0 0 0 0 0 0 0 0 0 0 0 0 0 127 0" result="hardAlpha"></feColorMatrix>
			<feOffset></feOffset>
			<feGaussianBlur stdDeviation="1.12508"></feGaussianBlur>
			<feComposite in2="hardAlpha" operator="out"></feComposite>
			<feColorMatrix type="matrix" values="0 0 0 0 0.248241 0 0 0 0 0.871759 0 0 0 0 0.761206 0 0 0 1 0"></feColorMatrix>
			<feBlend mode="normal" in2="BackgroundImageFix" result="effect1_dropShadow_1031_23898"></feBlend>
			<feBlend mode="normal" in="SourceGraphic" in2="effect1_dropShadow_1031_23898" result="shape"></feBlend>
		</filter>
		<filter id="filter9_d_1031_23898" x="303.297" y="183.016" width="32.8126" height="28.5076" filterUnits="userSpaceOnUse" color-interpolation-filters="sRGB">
			<feFlood flood-opacity="0" result="BackgroundImageFix"></feFlood>
			<feColorMatrix in="SourceAlpha" type="matrix" values="0 0 0 0 0 0 0 0 0 0 0 0 0 0 0 0 0 0 127 0" result="hardAlpha"></feColorMatrix>
			<feOffset></feOffset>
			<feGaussianBlur stdDeviation="1.17482"></feGaussianBlur>
			<feComposite in2="hardAlpha" operator="out"></feComposite>
			<feColorMatrix type="matrix" values="0 0 0 0 0.248241 0 0 0 0 0.871759 0 0 0 0 0.761206 0 0 0 1 0"></feColorMatrix>
			<feBlend mode="normal" in2="BackgroundImageFix" result="effect1_dropShadow_1031_23898"></feBlend>
			<feBlend mode="normal" in="SourceGraphic" in2="effect1_dropShadow_1031_23898" result="shape"></feBlend>
		</filter>
		<filter id="filter10_d_1031_23898" x="425.01" y="159.478" width="39.8367" height="26.688" filterUnits="userSpaceOnUse" color-interpolation-filters="sRGB">
			<feFlood flood-opacity="0" result="BackgroundImageFix"></feFlood>
			<feColorMatrix in="SourceAlpha" type="matrix" values="0 0 0 0 0 0 0 0 0 0 0 0 0 0 0 0 0 0 127 0" result="hardAlpha"></feColorMatrix>
			<feOffset></feOffset>
			<feGaussianBlur stdDeviation="1.14033"></feGaussianBlur>
			<feComposite in2="hardAlpha" operator="out"></feComposite>
			<feColorMatrix type="matrix" values="0 0 0 0 0.248241 0 0 0 0 0.871759 0 0 0 0 0.761206 0 0 0 1 0"></feColorMatrix>
			<feBlend mode="normal" in2="BackgroundImageFix" result="effect1_dropShadow_1031_23898"></feBlend>
			<feBlend mode="normal" in="SourceGraphic" in2="effect1_dropShadow_1031_23898" result="shape"></feBlend>
		</filter>
		<filter id="filter11_d_1031_23898" x="503.939" y="210.58" width="43.5565" height="27.0541" filterUnits="userSpaceOnUse" color-interpolation-filters="sRGB">
			<feFlood flood-opacity="0" result="BackgroundImageFix"></feFlood>
			<feColorMatrix in="SourceAlpha" type="matrix" values="0 0 0 0 0 0 0 0 0 0 0 0 0 0 0 0 0 0 127 0" result="hardAlpha"></feColorMatrix>
			<feOffset></feOffset>
			<feGaussianBlur stdDeviation="1.12546"></feGaussianBlur>
			<feComposite in2="hardAlpha" operator="out"></feComposite>
			<feColorMatrix type="matrix" values="0 0 0 0 0.113725 0 0 0 0 0.666667 0 0 0 0 0.568627 0 0 0 0.5 0"></feColorMatrix>
			<feBlend mode="normal" in2="BackgroundImageFix" result="effect1_dropShadow_1031_23898"></feBlend>
			<feBlend mode="normal" in="SourceGraphic" in2="effect1_dropShadow_1031_23898" result="shape"></feBlend>
		</filter>
		<filter id="filter12_d_1031_23898" x="236.118" y="241.118" width="1.92909" height="1.92958" filterUnits="userSpaceOnUse" color-interpolation-filters="sRGB">
			<feFlood flood-opacity="0" result="BackgroundImageFix"></feFlood>
			<feColorMatrix in="SourceAlpha" type="matrix" values="0 0 0 0 0 0 0 0 0 0 0 0 0 0 0 0 0 0 127 0" result="hardAlpha"></feColorMatrix>
			<feOffset></feOffset>
			<feGaussianBlur stdDeviation="0.36362"></feGaussianBlur>
			<feComposite in2="hardAlpha" operator="out"></feComposite>
			<feColorMatrix type="matrix" values="0 0 0 0 0.815686 0 0 0 0 0.937255 0 0 0 0 0.901961 0 0 0 1 0"></feColorMatrix>
			<feBlend mode="normal" in2="BackgroundImageFix" result="effect1_dropShadow_1031_23898"></feBlend>
			<feBlend mode="normal" in="SourceGraphic" in2="effect1_dropShadow_1031_23898" result="shape"></feBlend>
		</filter>
		<filter id="filter13_d_1031_23898" x="147.337" y="150.692" width="1.92909" height="1.92958" filterUnits="userSpaceOnUse" color-interpolation-filters="sRGB">
			<feFlood flood-opacity="0" result="BackgroundImageFix"></feFlood>
			<feColorMatrix in="SourceAlpha" type="matrix" values="0 0 0 0 0 0 0 0 0 0 0 0 0 0 0 0 0 0 127 0" result="hardAlpha"></feColorMatrix>
			<feOffset></feOffset>
			<feGaussianBlur stdDeviation="0.36362"></feGaussianBlur>
			<feComposite in2="hardAlpha" operator="out"></feComposite>
			<feColorMatrix type="matrix" values="0 0 0 0 0.815686 0 0 0 0 0.937255 0 0 0 0 0.901961 0 0 0 1 0"></feColorMatrix>
			<feBlend mode="normal" in2="BackgroundImageFix" result="effect1_dropShadow_1031_23898"></feBlend>
			<feBlend mode="normal" in="SourceGraphic" in2="effect1_dropShadow_1031_23898" result="shape"></feBlend>
		</filter>
		<filter id="filter14_d_1031_23898" x="218.484" y="84.1396" width="2.28231" height="2.28157" filterUnits="userSpaceOnUse" color-interpolation-filters="sRGB">
			<feFlood flood-opacity="0" result="BackgroundImageFix"></feFlood>
			<feColorMatrix in="SourceAlpha" type="matrix" values="0 0 0 0 0 0 0 0 0 0 0 0 0 0 0 0 0 0 127 0" result="hardAlpha"></feColorMatrix>
			<feOffset></feOffset>
			<feGaussianBlur stdDeviation="0.429952"></feGaussianBlur>
			<feComposite in2="hardAlpha" operator="out"></feComposite>
			<feColorMatrix type="matrix" values="0 0 0 0 0.815686 0 0 0 0 0.937255 0 0 0 0 0.901961 0 0 0 1 0"></feColorMatrix>
			<feBlend mode="normal" in2="BackgroundImageFix" result="effect1_dropShadow_1031_23898"></feBlend>
			<feBlend mode="normal" in="SourceGraphic" in2="effect1_dropShadow_1031_23898" result="shape"></feBlend>
		</filter>
		<filter id="filter15_d_1031_23898" x="244.671" y="246.417" width="2.40565" height="2.40468" filterUnits="userSpaceOnUse" color-interpolation-filters="sRGB">
			<feFlood flood-opacity="0" result="BackgroundImageFix"></feFlood>
			<feColorMatrix in="SourceAlpha" type="matrix" values="0 0 0 0 0 0 0 0 0 0 0 0 0 0 0 0 0 0 127 0" result="hardAlpha"></feColorMatrix>
			<feOffset></feOffset>
			<feGaussianBlur stdDeviation="0.36362"></feGaussianBlur>
			<feComposite in2="hardAlpha" operator="out"></feComposite>
			<feColorMatrix type="matrix" values="0 0 0 0 0.815686 0 0 0 0 0.937255 0 0 0 0 0.901961 0 0 0 1 0"></feColorMatrix>
			<feBlend mode="normal" in2="BackgroundImageFix" result="effect1_dropShadow_1031_23898"></feBlend>
			<feBlend mode="normal" in="SourceGraphic" in2="effect1_dropShadow_1031_23898" result="shape"></feBlend>
		</filter>
		<filter id="filter16_d_1031_23898" x="269.615" y="249.03" width="2.40565" height="2.40468" filterUnits="userSpaceOnUse" color-interpolation-filters="sRGB">
			<feFlood flood-opacity="0" result="BackgroundImageFix"></feFlood>
			<feColorMatrix in="SourceAlpha" type="matrix" values="0 0 0 0 0 0 0 0 0 0 0 0 0 0 0 0 0 0 127 0" result="hardAlpha"></feColorMatrix>
			<feOffset></feOffset>
			<feGaussianBlur stdDeviation="0.36362"></feGaussianBlur>
			<feComposite in2="hardAlpha" operator="out"></feComposite>
			<feColorMatrix type="matrix" values="0 0 0 0 0.815686 0 0 0 0 0.937255 0 0 0 0 0.901961 0 0 0 1 0"></feColorMatrix>
			<feBlend mode="normal" in2="BackgroundImageFix" result="effect1_dropShadow_1031_23898"></feBlend>
			<feBlend mode="normal" in="SourceGraphic" in2="effect1_dropShadow_1031_23898" result="shape"></feBlend>
		</filter>
		<filter id="filter17_d_1031_23898" x="254.933" y="210.703" width="2.40565" height="2.40468" filterUnits="userSpaceOnUse" color-interpolation-filters="sRGB">
			<feFlood flood-opacity="0" result="BackgroundImageFix"></feFlood>
			<feColorMatrix in="SourceAlpha" type="matrix" values="0 0 0 0 0 0 0 0 0 0 0 0 0 0 0 0 0 0 127 0" result="hardAlpha"></feColorMatrix>
			<feOffset></feOffset>
			<feGaussianBlur stdDeviation="0.36362"></feGaussianBlur>
			<feComposite in2="hardAlpha" operator="out"></feComposite>
			<feColorMatrix type="matrix" values="0 0 0 0 0.815686 0 0 0 0 0.937255 0 0 0 0 0.901961 0 0 0 1 0"></feColorMatrix>
			<feBlend mode="normal" in2="BackgroundImageFix" result="effect1_dropShadow_1031_23898"></feBlend>
			<feBlend mode="normal" in="SourceGraphic" in2="effect1_dropShadow_1031_23898" result="shape"></feBlend>
		</filter>
		<filter id="filter18_d_1031_23898" x="282.919" y="231.926" width="2.40565" height="2.40468" filterUnits="userSpaceOnUse" color-interpolation-filters="sRGB">
			<feFlood flood-opacity="0" result="BackgroundImageFix"></feFlood>
			<feColorMatrix in="SourceAlpha" type="matrix" values="0 0 0 0 0 0 0 0 0 0 0 0 0 0 0 0 0 0 127 0" result="hardAlpha"></feColorMatrix>
			<feOffset></feOffset>
			<feGaussianBlur stdDeviation="0.36362"></feGaussianBlur>
			<feComposite in2="hardAlpha" operator="out"></feComposite>
			<feColorMatrix type="matrix" values="0 0 0 0 0.815686 0 0 0 0 0.937255 0 0 0 0 0.901961 0 0 0 1 0"></feColorMatrix>
			<feBlend mode="normal" in2="BackgroundImageFix" result="effect1_dropShadow_1031_23898"></feBlend>
			<feBlend mode="normal" in="SourceGraphic" in2="effect1_dropShadow_1031_23898" result="shape"></feBlend>
		</filter>
		<filter id="filter19_d_1031_23898" x="184.734" y="238.949" width="2.40565" height="2.40468" filterUnits="userSpaceOnUse" color-interpolation-filters="sRGB">
			<feFlood flood-opacity="0" result="BackgroundImageFix"></feFlood>
			<feColorMatrix in="SourceAlpha" type="matrix" values="0 0 0 0 0 0 0 0 0 0 0 0 0 0 0 0 0 0 127 0" result="hardAlpha"></feColorMatrix>
			<feOffset></feOffset>
			<feGaussianBlur stdDeviation="0.36362"></feGaussianBlur>
			<feComposite in2="hardAlpha" operator="out"></feComposite>
			<feColorMatrix type="matrix" values="0 0 0 0 0.815686 0 0 0 0 0.937255 0 0 0 0 0.901961 0 0 0 1 0"></feColorMatrix>
			<feBlend mode="normal" in2="BackgroundImageFix" result="effect1_dropShadow_1031_23898"></feBlend>
			<feBlend mode="normal" in="SourceGraphic" in2="effect1_dropShadow_1031_23898" result="shape"></feBlend>
		</filter>
		<filter id="filter20_d_1031_23898" x="143.927" y="131.378" width="2.40565" height="2.40468" filterUnits="userSpaceOnUse" color-interpolation-filters="sRGB">
			<feFlood flood-opacity="0" result="BackgroundImageFix"></feFlood>
			<feColorMatrix in="SourceAlpha" type="matrix" values="0 0 0 0 0 0 0 0 0 0 0 0 0 0 0 0 0 0 127 0" result="hardAlpha"></feColorMatrix>
			<feOffset></feOffset>
			<feGaussianBlur stdDeviation="0.36362"></feGaussianBlur>
			<feComposite in2="hardAlpha" operator="out"></feComposite>
			<feColorMatrix type="matrix" values="0 0 0 0 0.815686 0 0 0 0 0.937255 0 0 0 0 0.901961 0 0 0 1 0"></feColorMatrix>
			<feBlend mode="normal" in2="BackgroundImageFix" result="effect1_dropShadow_1031_23898"></feBlend>
			<feBlend mode="normal" in="SourceGraphic" in2="effect1_dropShadow_1031_23898" result="shape"></feBlend>
		</filter>
		<filter id="filter21_d_1031_23898" x="197.552" y="135.591" width="2.40565" height="2.40468" filterUnits="userSpaceOnUse" color-interpolation-filters="sRGB">
			<feFlood flood-opacity="0" result="BackgroundImageFix"></feFlood>
			<feColorMatrix in="SourceAlpha" type="matrix" values="0 0 0 0 0 0 0 0 0 0 0 0 0 0 0 0 0 0 127 0" result="hardAlpha"></feColorMatrix>
			<feOffset></feOffset>
			<feGaussianBlur stdDeviation="0.36362"></feGaussianBlur>
			<feComposite in2="hardAlpha" operator="out"></feComposite>
			<feColorMatrix type="matrix" values="0 0 0 0 0.815686 0 0 0 0 0.937255 0 0 0 0 0.901961 0 0 0 1 0"></feColorMatrix>
			<feBlend mode="normal" in2="BackgroundImageFix" result="effect1_dropShadow_1031_23898"></feBlend>
			<feBlend mode="normal" in="SourceGraphic" in2="effect1_dropShadow_1031_23898" result="shape"></feBlend>
		</filter>
		<filter id="filter22_d_1031_23898" x="192.677" y="314.464" width="2.40565" height="2.40468" filterUnits="userSpaceOnUse" color-interpolation-filters="sRGB">
			<feFlood flood-opacity="0" result="BackgroundImageFix"></feFlood>
			<feColorMatrix in="SourceAlpha" type="matrix" values="0 0 0 0 0 0 0 0 0 0 0 0 0 0 0 0 0 0 127 0" result="hardAlpha"></feColorMatrix>
			<feOffset></feOffset>
			<feGaussianBlur stdDeviation="0.36362"></feGaussianBlur>
			<feComposite in2="hardAlpha" operator="out"></feComposite>
			<feColorMatrix type="matrix" values="0 0 0 0 0.815686 0 0 0 0 0.937255 0 0 0 0 0.901961 0 0 0 1 0"></feColorMatrix>
			<feBlend mode="normal" in2="BackgroundImageFix" result="effect1_dropShadow_1031_23898"></feBlend>
			<feBlend mode="normal" in="SourceGraphic" in2="effect1_dropShadow_1031_23898" result="shape"></feBlend>
		</filter>
		<filter id="filter23_d_1031_23898" x="154.161" y="297.967" width="1.92909" height="1.92958" filterUnits="userSpaceOnUse" color-interpolation-filters="sRGB">
			<feFlood flood-opacity="0" result="BackgroundImageFix"></feFlood>
			<feColorMatrix in="SourceAlpha" type="matrix" values="0 0 0 0 0 0 0 0 0 0 0 0 0 0 0 0 0 0 127 0" result="hardAlpha"></feColorMatrix>
			<feOffset></feOffset>
			<feGaussianBlur stdDeviation="0.36362"></feGaussianBlur>
			<feComposite in2="hardAlpha" operator="out"></feComposite>
			<feColorMatrix type="matrix" values="0 0 0 0 0.815686 0 0 0 0 0.937255 0 0 0 0 0.901961 0 0 0 1 0"></feColorMatrix>
			<feBlend mode="normal" in2="BackgroundImageFix" result="effect1_dropShadow_1031_23898"></feBlend>
			<feBlend mode="normal" in="SourceGraphic" in2="effect1_dropShadow_1031_23898" result="shape"></feBlend>
		</filter>
		<filter id="filter24_d_1031_23898" x="133.878" y="371.431" width="1.92909" height="1.92958" filterUnits="userSpaceOnUse" color-interpolation-filters="sRGB">
			<feFlood flood-opacity="0" result="BackgroundImageFix"></feFlood>
			<feColorMatrix in="SourceAlpha" type="matrix" values="0 0 0 0 0 0 0 0 0 0 0 0 0 0 0 0 0 0 127 0" result="hardAlpha"></feColorMatrix>
			<feOffset></feOffset>
			<feGaussianBlur stdDeviation="0.36362"></feGaussianBlur>
			<feComposite in2="hardAlpha" operator="out"></feComposite>
			<feColorMatrix type="matrix" values="0 0 0 0 0.815686 0 0 0 0 0.937255 0 0 0 0 0.901961 0 0 0 1 0"></feColorMatrix>
			<feBlend mode="normal" in2="BackgroundImageFix" result="effect1_dropShadow_1031_23898"></feBlend>
			<feBlend mode="normal" in="SourceGraphic" in2="effect1_dropShadow_1031_23898" result="shape"></feBlend>
		</filter>
		<filter id="filter25_d_1031_23898" x="136.888" y="272.96" width="2.40565" height="2.40468" filterUnits="userSpaceOnUse" color-interpolation-filters="sRGB">
			<feFlood flood-opacity="0" result="BackgroundImageFix"></feFlood>
			<feColorMatrix in="SourceAlpha" type="matrix" values="0 0 0 0 0 0 0 0 0 0 0 0 0 0 0 0 0 0 127 0" result="hardAlpha"></feColorMatrix>
			<feOffset></feOffset>
			<feGaussianBlur stdDeviation="0.36362"></feGaussianBlur>
			<feComposite in2="hardAlpha" operator="out"></feComposite>
			<feColorMatrix type="matrix" values="0 0 0 0 0.815686 0 0 0 0 0.937255 0 0 0 0 0.901961 0 0 0 1 0"></feColorMatrix>
			<feBlend mode="normal" in2="BackgroundImageFix" result="effect1_dropShadow_1031_23898"></feBlend>
			<feBlend mode="normal" in="SourceGraphic" in2="effect1_dropShadow_1031_23898" result="shape"></feBlend>
		</filter>
		<filter id="filter26_d_1031_23898" x="166.736" y="259.125" width="2.40565" height="2.40468" filterUnits="userSpaceOnUse" color-interpolation-filters="sRGB">
			<feFlood flood-opacity="0" result="BackgroundImageFix"></feFlood>
			<feColorMatrix in="SourceAlpha" type="matrix" values="0 0 0 0 0 0 0 0 0 0 0 0 0 0 0 0 0 0 127 0" result="hardAlpha"></feColorMatrix>
			<feOffset></feOffset>
			<feGaussianBlur stdDeviation="0.36362"></feGaussianBlur>
			<feComposite in2="hardAlpha" operator="out"></feComposite>
			<feColorMatrix type="matrix" values="0 0 0 0 0.815686 0 0 0 0 0.937255 0 0 0 0 0.901961 0 0 0 1 0"></feColorMatrix>
			<feBlend mode="normal" in2="BackgroundImageFix" result="effect1_dropShadow_1031_23898"></feBlend>
			<feBlend mode="normal" in="SourceGraphic" in2="effect1_dropShadow_1031_23898" result="shape"></feBlend>
		</filter>
		<filter id="filter27_d_1031_23898" x="158.093" y="214.637" width="1.92909" height="1.92958" filterUnits="userSpaceOnUse" color-interpolation-filters="sRGB">
			<feFlood flood-opacity="0" result="BackgroundImageFix"></feFlood>
			<feColorMatrix in="SourceAlpha" type="matrix" values="0 0 0 0 0 0 0 0 0 0 0 0 0 0 0 0 0 0 127 0" result="hardAlpha"></feColorMatrix>
			<feOffset></feOffset>
			<feGaussianBlur stdDeviation="0.36362"></feGaussianBlur>
			<feComposite in2="hardAlpha" operator="out"></feComposite>
			<feColorMatrix type="matrix" values="0 0 0 0 0.815686 0 0 0 0 0.937255 0 0 0 0 0.901961 0 0 0 1 0"></feColorMatrix>
			<feBlend mode="normal" in2="BackgroundImageFix" result="effect1_dropShadow_1031_23898"></feBlend>
			<feBlend mode="normal" in="SourceGraphic" in2="effect1_dropShadow_1031_23898" result="shape"></feBlend>
		</filter>
		<filter id="filter28_d_1031_23898" x="0.140096" y="119.879" width="2.28231" height="2.28157" filterUnits="userSpaceOnUse" color-interpolation-filters="sRGB">
			<feFlood flood-opacity="0" result="BackgroundImageFix"></feFlood>
			<feColorMatrix in="SourceAlpha" type="matrix" values="0 0 0 0 0 0 0 0 0 0 0 0 0 0 0 0 0 0 127 0" result="hardAlpha"></feColorMatrix>
			<feOffset></feOffset>
			<feGaussianBlur stdDeviation="0.429952"></feGaussianBlur>
			<feComposite in2="hardAlpha" operator="out"></feComposite>
			<feColorMatrix type="matrix" values="0 0 0 0 0.815686 0 0 0 0 0.937255 0 0 0 0 0.901961 0 0 0 1 0"></feColorMatrix>
			<feBlend mode="normal" in2="BackgroundImageFix" result="effect1_dropShadow_1031_23898"></feBlend>
			<feBlend mode="normal" in="SourceGraphic" in2="effect1_dropShadow_1031_23898" result="shape"></feBlend>
		</filter>
		<filter id="filter29_d_1031_23898" x="109.222" y="240.102" width="2.40565" height="2.40468" filterUnits="userSpaceOnUse" color-interpolation-filters="sRGB">
			<feFlood flood-opacity="0" result="BackgroundImageFix"></feFlood>
			<feColorMatrix in="SourceAlpha" type="matrix" values="0 0 0 0 0 0 0 0 0 0 0 0 0 0 0 0 0 0 127 0" result="hardAlpha"></feColorMatrix>
			<feOffset></feOffset>
			<feGaussianBlur stdDeviation="0.36362"></feGaussianBlur>
			<feComposite in2="hardAlpha" operator="out"></feComposite>
			<feColorMatrix type="matrix" values="0 0 0 0 0.815686 0 0 0 0 0.937255 0 0 0 0 0.901961 0 0 0 1 0"></feColorMatrix>
			<feBlend mode="normal" in2="BackgroundImageFix" result="effect1_dropShadow_1031_23898"></feBlend>
			<feBlend mode="normal" in="SourceGraphic" in2="effect1_dropShadow_1031_23898" result="shape"></feBlend>
		</filter>
		<filter id="filter30_d_1031_23898" x="42.8001" y="218.773" width="2.40565" height="2.40468" filterUnits="userSpaceOnUse" color-interpolation-filters="sRGB">
			<feFlood flood-opacity="0" result="BackgroundImageFix"></feFlood>
			<feColorMatrix in="SourceAlpha" type="matrix" values="0 0 0 0 0 0 0 0 0 0 0 0 0 0 0 0 0 0 127 0" result="hardAlpha"></feColorMatrix>
			<feOffset></feOffset>
			<feGaussianBlur stdDeviation="0.36362"></feGaussianBlur>
			<feComposite in2="hardAlpha" operator="out"></feComposite>
			<feColorMatrix type="matrix" values="0 0 0 0 0.815686 0 0 0 0 0.937255 0 0 0 0 0.901961 0 0 0 1 0"></feColorMatrix>
			<feBlend mode="normal" in2="BackgroundImageFix" result="effect1_dropShadow_1031_23898"></feBlend>
			<feBlend mode="normal" in="SourceGraphic" in2="effect1_dropShadow_1031_23898" result="shape"></feBlend>
		</filter>
		<filter id="filter31_d_1031_23898" x="233.158" y="282.183" width="2.40565" height="2.40468" filterUnits="userSpaceOnUse" color-interpolation-filters="sRGB">
			<feFlood flood-opacity="0" result="BackgroundImageFix"></feFlood>
			<feColorMatrix in="SourceAlpha" type="matrix" values="0 0 0 0 0 0 0 0 0 0 0 0 0 0 0 0 0 0 127 0" result="hardAlpha"></feColorMatrix>
			<feOffset></feOffset>
			<feGaussianBlur stdDeviation="0.36362"></feGaussianBlur>
			<feComposite in2="hardAlpha" operator="out"></feComposite>
			<feColorMatrix type="matrix" values="0 0 0 0 0.815686 0 0 0 0 0.937255 0 0 0 0 0.901961 0 0 0 1 0"></feColorMatrix>
			<feBlend mode="normal" in2="BackgroundImageFix" result="effect1_dropShadow_1031_23898"></feBlend>
			<feBlend mode="normal" in="SourceGraphic" in2="effect1_dropShadow_1031_23898" result="shape"></feBlend>
		</filter>
		<filter id="filter32_d_1031_23898" x="114.986" y="253.36" width="2.40565" height="2.40468" filterUnits="userSpaceOnUse" color-interpolation-filters="sRGB">
			<feFlood flood-opacity="0" result="BackgroundImageFix"></feFlood>
			<feColorMatrix in="SourceAlpha" type="matrix" values="0 0 0 0 0 0 0 0 0 0 0 0 0 0 0 0 0 0 127 0" result="hardAlpha"></feColorMatrix>
			<feOffset></feOffset>
			<feGaussianBlur stdDeviation="0.36362"></feGaussianBlur>
			<feComposite in2="hardAlpha" operator="out"></feComposite>
			<feColorMatrix type="matrix" values="0 0 0 0 0.815686 0 0 0 0 0.937255 0 0 0 0 0.901961 0 0 0 1 0"></feColorMatrix>
			<feBlend mode="normal" in2="BackgroundImageFix" result="effect1_dropShadow_1031_23898"></feBlend>
			<feBlend mode="normal" in="SourceGraphic" in2="effect1_dropShadow_1031_23898" result="shape"></feBlend>
		</filter>
		<filter id="filter33_d_1031_23898" x="64.345" y="214.06" width="1.92909" height="1.92958" filterUnits="userSpaceOnUse" color-interpolation-filters="sRGB">
			<feFlood flood-opacity="0" result="BackgroundImageFix"></feFlood>
			<feColorMatrix in="SourceAlpha" type="matrix" values="0 0 0 0 0 0 0 0 0 0 0 0 0 0 0 0 0 0 127 0" result="hardAlpha"></feColorMatrix>
			<feOffset></feOffset>
			<feGaussianBlur stdDeviation="0.36362"></feGaussianBlur>
			<feComposite in2="hardAlpha" operator="out"></feComposite>
			<feColorMatrix type="matrix" values="0 0 0 0 0.815686 0 0 0 0 0.937255 0 0 0 0 0.901961 0 0 0 1 0"></feColorMatrix>
			<feBlend mode="normal" in2="BackgroundImageFix" result="effect1_dropShadow_1031_23898"></feBlend>
			<feBlend mode="normal" in="SourceGraphic" in2="effect1_dropShadow_1031_23898" result="shape"></feBlend>
		</filter>
		<filter id="filter34_d_1031_23898" x="167.314" y="231.455" width="2.40565" height="2.40468" filterUnits="userSpaceOnUse" color-interpolation-filters="sRGB">
			<feFlood flood-opacity="0" result="BackgroundImageFix"></feFlood>
			<feColorMatrix in="SourceAlpha" type="matrix" values="0 0 0 0 0 0 0 0 0 0 0 0 0 0 0 0 0 0 127 0" result="hardAlpha"></feColorMatrix>
			<feOffset></feOffset>
			<feGaussianBlur stdDeviation="0.36362"></feGaussianBlur>
			<feComposite in2="hardAlpha" operator="out"></feComposite>
			<feColorMatrix type="matrix" values="0 0 0 0 0.815686 0 0 0 0 0.937255 0 0 0 0 0.901961 0 0 0 1 0"></feColorMatrix>
			<feBlend mode="normal" in2="BackgroundImageFix" result="effect1_dropShadow_1031_23898"></feBlend>
			<feBlend mode="normal" in="SourceGraphic" in2="effect1_dropShadow_1031_23898" result="shape"></feBlend>
		</filter>
		<filter id="filter35_d_1031_23898" x="47.9896" y="264.211" width="1.92909" height="1.92958" filterUnits="userSpaceOnUse" color-interpolation-filters="sRGB">
			<feFlood flood-opacity="0" result="BackgroundImageFix"></feFlood>
			<feColorMatrix in="SourceAlpha" type="matrix" values="0 0 0 0 0 0 0 0 0 0 0 0 0 0 0 0 0 0 127 0" result="hardAlpha"></feColorMatrix>
			<feOffset></feOffset>
			<feGaussianBlur stdDeviation="0.36362"></feGaussianBlur>
			<feComposite in2="hardAlpha" operator="out"></feComposite>
			<feColorMatrix type="matrix" values="0 0 0 0 0.815686 0 0 0 0 0.937255 0 0 0 0 0.901961 0 0 0 1 0"></feColorMatrix>
			<feBlend mode="normal" in2="BackgroundImageFix" result="effect1_dropShadow_1031_23898"></feBlend>
			<feBlend mode="normal" in="SourceGraphic" in2="effect1_dropShadow_1031_23898" result="shape"></feBlend>
		</filter>
		<filter id="filter36_d_1031_23898" x="147.14" y="254.412" width="1.92909" height="1.92958" filterUnits="userSpaceOnUse" color-interpolation-filters="sRGB">
			<feFlood flood-opacity="0" result="BackgroundImageFix"></feFlood>
			<feColorMatrix in="SourceAlpha" type="matrix" values="0 0 0 0 0 0 0 0 0 0 0 0 0 0 0 0 0 0 127 0" result="hardAlpha"></feColorMatrix>
			<feOffset></feOffset>
			<feGaussianBlur stdDeviation="0.36362"></feGaussianBlur>
			<feComposite in2="hardAlpha" operator="out"></feComposite>
			<feColorMatrix type="matrix" values="0 0 0 0 0.815686 0 0 0 0 0.937255 0 0 0 0 0.901961 0 0 0 1 0"></feColorMatrix>
			<feBlend mode="normal" in2="BackgroundImageFix" result="effect1_dropShadow_1031_23898"></feBlend>
			<feBlend mode="normal" in="SourceGraphic" in2="effect1_dropShadow_1031_23898" result="shape"></feBlend>
		</filter>
		<filter id="filter37_d_1031_23898" x="85.4583" y="221.079" width="2.40565" height="2.40468" filterUnits="userSpaceOnUse" color-interpolation-filters="sRGB">
			<feFlood flood-opacity="0" result="BackgroundImageFix"></feFlood>
			<feColorMatrix in="SourceAlpha" type="matrix" values="0 0 0 0 0 0 0 0 0 0 0 0 0 0 0 0 0 0 127 0" result="hardAlpha"></feColorMatrix>
			<feOffset></feOffset>
			<feGaussianBlur stdDeviation="0.36362"></feGaussianBlur>
			<feComposite in2="hardAlpha" operator="out"></feComposite>
			<feColorMatrix type="matrix" values="0 0 0 0 0.815686 0 0 0 0 0.937255 0 0 0 0 0.901961 0 0 0 1 0"></feColorMatrix>
			<feBlend mode="normal" in2="BackgroundImageFix" result="effect1_dropShadow_1031_23898"></feBlend>
			<feBlend mode="normal" in="SourceGraphic" in2="effect1_dropShadow_1031_23898" result="shape"></feBlend>
		</filter>
		<filter id="filter38_d_1031_23898" x="191.525" y="219.926" width="2.40565" height="2.40468" filterUnits="userSpaceOnUse" color-interpolation-filters="sRGB">
			<feFlood flood-opacity="0" result="BackgroundImageFix"></feFlood>
			<feColorMatrix in="SourceAlpha" type="matrix" values="0 0 0 0 0 0 0 0 0 0 0 0 0 0 0 0 0 0 127 0" result="hardAlpha"></feColorMatrix>
			<feOffset></feOffset>
			<feGaussianBlur stdDeviation="0.36362"></feGaussianBlur>
			<feComposite in2="hardAlpha" operator="out"></feComposite>
			<feColorMatrix type="matrix" values="0 0 0 0 0.815686 0 0 0 0 0.937255 0 0 0 0 0.901961 0 0 0 1 0"></feColorMatrix>
			<feBlend mode="normal" in2="BackgroundImageFix" result="effect1_dropShadow_1031_23898"></feBlend>
			<feBlend mode="normal" in="SourceGraphic" in2="effect1_dropShadow_1031_23898" result="shape"></feBlend>
		</filter>
		<radialGradient id="paint0_radial_1031_23898" cx="0" cy="0" r="1" gradientUnits="userSpaceOnUse" gradientTransform="translate(504.322 218.939) rotate(30) scale(117.617 177.809)">
			<stop stop-color="#51E1C8"></stop>
			<stop offset="1" stop-color="#D4F7F1" stop-opacity="0"></stop>
		</radialGradient>
		<radialGradient id="paint1_radial_1031_23898" cx="0" cy="0" r="1" gradientUnits="userSpaceOnUse" gradientTransform="translate(292.043 236.215) rotate(66.7166) scale(66.7839 180.89)">
			<stop stop-color="#51E1C8"></stop>
			<stop offset="1" stop-color="#D4F7F1" stop-opacity="0"></stop>
		</radialGradient>
		<radialGradient id="paint2_radial_1031_23898" cx="0" cy="0" r="1" gradientUnits="userSpaceOnUse" gradientTransform="translate(59.5885 32.9256) rotate(91.1114) scale(277.231 26.2031)">
			<stop stop-color="#D9D9D9"></stop>
			<stop offset="1" stop-opacity="0"></stop>
		</radialGradient>
		<radialGradient id="paint3_radial_1031_23898" cx="0" cy="0" r="1" gradientUnits="userSpaceOnUse" gradientTransform="translate(59.5885 45.9151) rotate(90.7971) scale(386.566 26.2054)">
			<stop stop-color="#D9D9D9"></stop>
			<stop offset="1" stop-opacity="0"></stop>
		</radialGradient>
		<radialGradient id="paint4_radial_1031_23898" cx="0" cy="0" r="1" gradientUnits="userSpaceOnUse" gradientTransform="translate(59.5885 32.9256) rotate(91.1114) scale(277.231 26.2031)">
			<stop stop-color="#D9D9D9"></stop>
			<stop offset="1" stop-opacity="0"></stop>
		</radialGradient>
		<radialGradient id="paint5_radial_1031_23898" cx="0" cy="0" r="1" gradientUnits="userSpaceOnUse" gradientTransform="translate(59.5885 32.9256) rotate(94.1745) scale(342.125 32.8383)">
			<stop stop-color="#D9D9D9"></stop>
			<stop offset="1" stop-opacity="0"></stop>
		</radialGradient>
		<linearGradient id="paint6_linear_1031_23898" x1="196.217" y1="219.406" x2="196.217" y2="250.315" gradientUnits="userSpaceOnUse">
			<stop stop-color="#14161D"></stop>
			<stop offset="1" stop-color="#50E3CA"></stop>
		</linearGradient>
		<linearGradient id="paint7_linear_1031_23898" x1="196.217" y1="219.406" x2="196.217" y2="250.315" gradientUnits="userSpaceOnUse">
			<stop stop-color="#1DAA91" stop-opacity="0.05"></stop>
			<stop offset="1" stop-color="#1DAA91"></stop>
		</linearGradient>
		<linearGradient id="paint8_linear_1031_23898" x1="153.064" y1="467.845" x2="207.922" y2="206.946" gradientUnits="userSpaceOnUse">
			<stop stop-color="#51E1C8"></stop>
			<stop offset="1" stop-color="#14161D"></stop>
		</linearGradient>
		<linearGradient id="paint9_linear_1031_23898" x1="199.404" y1="203.791" x2="194.259" y2="246.032" gradientUnits="userSpaceOnUse">
			<stop stop-color="#161A23"></stop>
			<stop offset="1" stop-color="#51E1C8"></stop>
		</linearGradient>
		<linearGradient id="paint10_linear_1031_23898" x1="403.003" y1="246.099" x2="403.003" y2="277.008" gradientUnits="userSpaceOnUse">
			<stop stop-color="#14161D"></stop>
			<stop offset="1" stop-color="#50E3CA"></stop>
		</linearGradient>
		<linearGradient id="paint11_linear_1031_23898" x1="403.003" y1="246.099" x2="403.003" y2="277.008" gradientUnits="userSpaceOnUse">
			<stop stop-color="#1DAA91" stop-opacity="0.05"></stop>
			<stop offset="1" stop-color="#1DAA91"></stop>
		</linearGradient>
		<linearGradient id="paint12_linear_1031_23898" x1="359.851" y1="494.538" x2="414.709" y2="233.639" gradientUnits="userSpaceOnUse">
			<stop stop-color="#51E1C8"></stop>
			<stop offset="1" stop-color="#14161D"></stop>
		</linearGradient>
		<linearGradient id="paint13_linear_1031_23898" x1="406.191" y1="230.484" x2="401.046" y2="272.725" gradientUnits="userSpaceOnUse">
			<stop stop-color="#161A23"></stop>
			<stop offset="1" stop-color="#51E1C8"></stop>
		</linearGradient>
		<linearGradient id="paint14_linear_1031_23898" x1="525.235" y1="177.299" x2="525.235" y2="207.255" gradientUnits="userSpaceOnUse">
			<stop stop-color="#14161D"></stop>
			<stop offset="1" stop-color="#50E3CA"></stop>
		</linearGradient>
		<linearGradient id="paint15_linear_1031_23898" x1="525.235" y1="177.299" x2="525.235" y2="207.255" gradientUnits="userSpaceOnUse">
			<stop stop-color="#1DAA91" stop-opacity="0.05"></stop>
			<stop offset="1" stop-color="#1DAA91"></stop>
		</linearGradient>
		<linearGradient id="paint16_linear_1031_23898" x1="483.412" y1="418.079" x2="536.578" y2="165.223" gradientUnits="userSpaceOnUse">
			<stop stop-color="#51E1C8"></stop>
			<stop offset="1" stop-color="#14161D"></stop>
		</linearGradient>
		<linearGradient id="paint17_linear_1031_23898" x1="528.323" y1="162.165" x2="523.337" y2="203.104" gradientUnits="userSpaceOnUse">
			<stop stop-color="#161A23"></stop>
			<stop offset="1" stop-color="#51E1C8"></stop>
		</linearGradient>
		<linearGradient id="paint18_linear_1031_23898" x1="319.874" y1="197.229" x2="319.874" y2="228.138" gradientUnits="userSpaceOnUse">
			<stop stop-color="#14161D"></stop>
			<stop offset="1" stop-color="#50E3CA"></stop>
		</linearGradient>
		<linearGradient id="paint19_linear_1031_23898" x1="319.874" y1="197.229" x2="319.874" y2="228.138" gradientUnits="userSpaceOnUse">
			<stop stop-color="#1DAA91" stop-opacity="0.05"></stop>
			<stop offset="1" stop-color="#1DAA91"></stop>
		</linearGradient>
		<linearGradient id="paint20_linear_1031_23898" x1="276.72" y1="445.668" x2="331.578" y2="184.769" gradientUnits="userSpaceOnUse">
			<stop stop-color="#51E1C8"></stop>
			<stop offset="1" stop-color="#14161D"></stop>
		</linearGradient>
		<linearGradient id="paint21_linear_1031_23898" x1="323.06" y1="181.614" x2="317.915" y2="223.855" gradientUnits="userSpaceOnUse">
			<stop stop-color="#161A23"></stop>
			<stop offset="1" stop-color="#51E1C8"></stop>
		</linearGradient>
		<linearGradient id="paint22_linear_1031_23898" x1="442.326" y1="176.75" x2="442.326" y2="207.06" gradientUnits="userSpaceOnUse">
			<stop stop-color="#14161D"></stop>
			<stop offset="1" stop-color="#50E3CA"></stop>
		</linearGradient>
		<linearGradient id="paint23_linear_1031_23898" x1="442.326" y1="176.75" x2="442.326" y2="207.06" gradientUnits="userSpaceOnUse">
			<stop stop-color="#1DAA91" stop-opacity="0.05"></stop>
			<stop offset="1" stop-color="#1DAA91"></stop>
		</linearGradient>
		<linearGradient id="paint24_linear_1031_23898" x1="400.01" y1="420.373" x2="453.805" y2="164.531" gradientUnits="userSpaceOnUse">
			<stop stop-color="#51E1C8"></stop>
			<stop offset="1" stop-color="#14161D"></stop>
		</linearGradient>
		<linearGradient id="paint25_linear_1031_23898" x1="445.452" y1="161.438" x2="440.407" y2="202.86" gradientUnits="userSpaceOnUse">
			<stop stop-color="#161A23"></stop>
			<stop offset="1" stop-color="#51E1C8"></stop>
		</linearGradient>
		<linearGradient id="paint26_linear_1031_23898" x1="525.374" y1="224.894" x2="525.374" y2="254.881" gradientUnits="userSpaceOnUse">
			<stop stop-color="#14161D"></stop>
			<stop offset="1" stop-color="#50E3CA"></stop>
		</linearGradient>
		<linearGradient id="paint27_linear_1031_23898" x1="525.374" y1="224.894" x2="525.374" y2="254.881" gradientUnits="userSpaceOnUse">
			<stop stop-color="#1DAA91" stop-opacity="0.05"></stop>
			<stop offset="1" stop-color="#1DAA91"></stop>
		</linearGradient>
		<linearGradient id="paint28_linear_1031_23898" x1="483.509" y1="465.921" x2="536.73" y2="212.806" gradientUnits="userSpaceOnUse">
			<stop stop-color="#51E1C8"></stop>
			<stop offset="1" stop-color="#14161D"></stop>
		</linearGradient>
		<linearGradient id="paint29_linear_1031_23898" x1="528.466" y1="209.745" x2="523.475" y2="250.725" gradientUnits="userSpaceOnUse">
			<stop stop-color="#161A23"></stop>
			<stop offset="1" stop-color="#51E1C8"></stop>
		</linearGradient>
		<clipPath id="clip0_1031_23898">
			<rect width="490.761" height="424.844" fill="white" transform="matrix(0.866025 -0.5 0.866025 0.5 56.4727 245.381)"></rect>
		</clipPath>
		<clipPath id="clip1_1031_23898">
			<rect width="37.4268" height="37.4268" fill="white" transform="matrix(0.866025 -0.5 0.866025 0.5 163.584 218.864)"></rect>
		</clipPath>
		<clipPath id="clip2_1031_23898">
			<rect width="37.1595" height="37.1595" fill="white" transform="matrix(0.866025 -0.5 0.866025 0.5 369.627 246.149)"></rect>
		</clipPath>
	</defs>
</svg>