<svg xmlns="http://www.w3.org/2000/svg" width="24" height="18" viewBox="0 0 24 18" fill="none">
                            <g filter="url(#filter0_d_1055_17392)">
                                <path d="M18.329 3.02226C17.1362 2.50976 15.8771 2.12539 14.5517 1.86914L14.4854 1.86914C14.3529 2.12539 14.1541 2.50976 14.0216 2.83007C12.5636 2.63789 11.172 2.63789 9.78036 2.83007C9.64782 2.50976 9.44902 2.18945 9.31648 1.86914L9.25021 1.86914C7.92484 2.06133 6.66574 2.4457 5.4729 3.02226C3.08723 6.48161 2.42454 9.8769 2.75588 13.2081L2.75588 13.2722C4.34633 14.4253 5.87051 15.0659 7.39469 15.5144L7.46096 15.5144C7.7923 15.0659 8.12365 14.5534 8.38872 14.0409L8.38872 13.9769C7.85857 13.7847 7.39469 13.5925 6.93081 13.3363C6.86454 13.3363 6.86454 13.2722 6.93081 13.2722C6.99708 13.2081 7.12962 13.1441 7.19588 13.08L7.26215 13.08C10.3105 14.4253 13.5577 14.4253 16.606 13.08L16.6723 13.08C16.7386 13.1441 16.8711 13.2081 16.9374 13.2722C17.0036 13.2722 16.9374 13.3363 16.9374 13.3363C16.4735 13.5925 16.0096 13.8488 15.4795 13.9769C15.4795 13.9769 15.4132 14.0409 15.4795 14.0409C15.7445 14.5534 16.0759 15.0659 16.4072 15.5144L16.4735 15.5144C17.9977 15.0659 19.5219 14.3612 21.1123 13.2722L21.1123 13.2081C21.5099 9.36441 20.4496 6.03318 18.329 3.02226ZM8.8526 11.2222C7.92484 11.2222 7.19588 10.3894 7.19588 9.42847C7.19588 8.46754 7.92484 7.63473 8.8526 7.63473C9.78036 7.63473 10.5093 8.46754 10.5093 9.42847C10.5093 10.3894 9.78036 11.2222 8.8526 11.2222ZM15.0156 11.2222C14.0878 11.2222 13.3589 10.3894 13.3589 9.42847C13.3589 8.46754 14.0878 7.63473 15.0156 7.63473C15.9433 7.63473 16.6723 8.46754 16.6723 9.42847C16.6723 10.3894 15.9433 11.2222 15.0156 11.2222Z" fill="white"></path>
                            </g>
                        </svg>