<svg xmlns="http://www.w3.org/2000/svg" width="19" height="19" viewBox="0 0 19 19" fill="none">
                            <g clip-path="url(#clip0_1055_17413)">
                                <g filter="url(#filter0_d_1055_17413)">
                                    <path d="M4.94578 10.2956H6.97571V18.6525C6.97571 18.8174 7.1094 18.9511 7.27439 18.9511H10.7162C10.8812 18.9511 11.0149 18.8174 11.0149 18.6525V10.3349H13.3485C13.5002 10.3349 13.6279 10.2211 13.6452 10.0704L13.9996 6.99379C14.0093 6.90914 13.9825 6.82437 13.9259 6.76087C13.8692 6.69731 13.7881 6.66093 13.7029 6.66093H11.015V4.73238C11.015 4.15102 11.328 3.85621 11.9455 3.85621C12.0335 3.85621 13.7029 3.85621 13.7029 3.85621C13.8679 3.85621 14.0016 3.72246 14.0016 3.55753V0.733513C14.0016 0.568519 13.8679 0.434827 13.7029 0.434827H11.2809C11.2638 0.433991 11.2259 0.432617 11.17 0.432617C10.7497 0.432617 9.28897 0.515114 8.13509 1.57664C6.85659 2.75299 7.03431 4.16147 7.07678 4.40568V6.66087H4.94578C4.78079 6.66087 4.64709 6.79456 4.64709 6.95956V9.99683C4.64709 10.1618 4.78079 10.2956 4.94578 10.2956Z" fill="white"></path>
                                </g>
                            </g>
                        </svg>