<svg xmlns="http://www.w3.org/2000/svg" width="23" height="23" viewBox="0 0 23 23" fill="none">
                            <g filter="url(#filter0_d_1055_17406)">
                                <path d="M11.5262 8.60174C10.9156 8.60197 10.3188 8.78328 9.81126 9.12275C9.30369 9.46221 8.90814 9.94459 8.67464 10.5089C8.44114 11.0732 8.38016 11.6941 8.49942 12.293C8.61868 12.892 8.91282 13.4421 9.34465 13.8739C9.77648 14.3056 10.3266 14.5996 10.9255 14.7187C11.5244 14.8378 12.1451 14.7765 12.7092 14.5428C13.2733 14.309 13.7554 13.9132 14.0946 13.4054C14.4338 12.8976 14.6148 12.3006 14.6148 11.6899C14.6142 10.8708 14.2886 10.0855 13.7094 9.5065C13.1303 8.92746 12.3451 8.60205 11.5262 8.60174ZM18.7447 6.22806C18.5875 5.82965 18.3502 5.46779 18.0474 5.16494C17.7446 4.86208 17.3828 4.62468 16.9845 4.46747C15.769 3.98753 12.8749 4.09521 11.5262 4.09521C10.1776 4.09521 7.28636 3.98347 6.06737 4.46747C5.66905 4.62468 5.30727 4.86208 5.00448 5.16494C4.70169 5.46779 4.46435 5.82965 4.30717 6.22806C3.82791 7.44385 3.93499 10.3415 3.93499 11.6893C3.93499 13.0371 3.82791 15.9312 4.30949 17.1511C4.46666 17.5495 4.70401 17.9113 5.0068 18.2142C5.30958 18.517 5.67136 18.7544 6.06968 18.9116C7.28521 19.3916 10.1793 19.2839 11.5285 19.2839C12.8778 19.2839 15.7678 19.3956 16.9868 18.9116C17.3851 18.7544 17.7469 18.517 18.0497 18.2142C18.3525 17.9113 18.5898 17.5495 18.747 17.1511C19.2303 15.9353 19.1192 13.0376 19.1192 11.6899C19.1192 10.3421 19.2303 7.44848 18.747 6.22863L18.7447 6.22806ZM11.5262 16.4372C10.5875 16.4372 9.66984 16.1588 8.88931 15.6371C8.10878 15.1155 7.50043 14.3741 7.14119 13.5066C6.78195 12.6391 6.68796 11.6846 6.87109 10.7637C7.05423 9.84278 7.50628 8.99688 8.17006 8.33295C8.83385 7.66902 9.67957 7.21687 10.6003 7.0337C11.521 6.85052 12.4753 6.94453 13.3426 7.30385C14.2099 7.66317 14.9511 8.27165 15.4727 9.05235C15.9942 9.83305 16.2726 10.7509 16.2726 11.6899C16.2733 12.3135 16.1511 12.9312 15.9128 13.5075C15.6746 14.0838 15.325 14.6075 14.8841 15.0484C14.4432 15.4894 13.9197 15.8391 13.3435 16.0774C12.7673 16.3157 12.1497 16.438 11.5262 16.4372ZM16.4682 7.85143C16.2491 7.85154 16.0348 7.78665 15.8526 7.66496C15.6703 7.54327 15.5282 7.37024 15.4443 7.16777C15.3603 6.9653 15.3383 6.74248 15.381 6.52749C15.4237 6.3125 15.5291 6.115 15.684 5.95997C15.839 5.80494 16.0364 5.69935 16.2513 5.65655C16.4662 5.61374 16.689 5.63565 16.8915 5.71951C17.0939 5.80336 17.267 5.94539 17.3887 6.12763C17.5105 6.30987 17.5755 6.52413 17.5755 6.74332C17.5761 6.88887 17.548 7.03312 17.4927 7.16777C17.4375 7.30243 17.3562 7.42486 17.2535 7.52802C17.1509 7.63119 17.0289 7.71307 16.8945 7.76896C16.7601 7.82486 16.616 7.85367 16.4705 7.85374L16.4682 7.85143ZM20.7225 15.5109C20.6479 16.9948 20.3093 18.3095 19.2263 19.3899C18.1433 20.4702 16.83 20.8158 15.3482 20.8864C13.8195 20.9727 9.23641 20.9727 7.70775 20.8864C6.22423 20.8118 4.91435 20.4725 3.82964 19.3899C2.74493 18.3072 2.40401 16.9919 2.33339 15.5109C2.24715 13.9813 2.24715 9.39664 2.33339 7.86879C2.40806 6.38495 2.74262 5.07016 3.82964 3.98984C4.91667 2.90953 6.23002 2.56795 7.70775 2.49731C9.23641 2.41105 13.8195 2.41105 15.3482 2.49731C16.8317 2.572 18.1456 2.91126 19.2263 3.9939C20.3069 5.07653 20.6519 6.3919 20.7225 7.87574C20.8088 9.39953 20.8088 13.9802 20.7225 15.5109Z" fill="white"></path>
                            </g>
                        </svg>