<svg width="344" height="240" viewBox="0 0 344 240" fill="none" xmlns="http://www.w3.org/2000/svg">
<g clip-path="url(#clip0_952_24184)">
<g style="mix-blend-mode:lighten" opacity="0.15" filter="url(#filter0_f_952_24184)">
<ellipse cx="218" cy="-186.5" rx="463" ry="217.5" transform="rotate(180 218 -186.5)" fill="#1DAA91"/>
</g>
<g opacity="0.6" filter="url(#filter1_f_952_24184)">
<path d="M183.402 42.3363C178.805 100.396 144.987 135.324 87.783 141.092L-124.586 -147.524C-113.145 -148.678 -106.382 -155.664 -105.462 -167.276L183.402 42.3363Z" fill="url(#paint0_linear_952_24184)" fill-opacity="0.35"/>
</g>
<g opacity="0.5">
<g filter="url(#filter2_f_952_24184)">
<ellipse cx="84.7117" cy="32.5964" rx="126.918" ry="87.4611" fill="#1DAA91"/>
</g>
</g>
<g style="mix-blend-mode:color-dodge">
<g filter="url(#filter3_f_952_24184)">
<ellipse cx="61.4471" cy="163.708" rx="61.4471" ry="163.708" transform="matrix(0.846366 -0.532602 0.656984 0.753905 -59.9824 -13.8563)" fill="url(#paint1_radial_952_24184)" style="mix-blend-mode:plus-lighter"/>
</g>
<g filter="url(#filter4_f_952_24184)">
<ellipse cx="61.4471" cy="228.292" rx="61.4471" ry="228.292" transform="matrix(0.846366 -0.532602 0.656984 0.753905 -59.9824 -102.216)" fill="url(#paint2_radial_952_24184)" style="mix-blend-mode:plus-lighter"/>
</g>
<g filter="url(#filter5_f_952_24184)">
<ellipse cx="61.4471" cy="163.708" rx="61.4471" ry="163.708" transform="matrix(0.846366 -0.532602 0.656984 0.753905 -15.6807 -84.2791)" fill="url(#paint3_radial_952_24184)" style="mix-blend-mode:plus-lighter"/>
</g>
<g filter="url(#filter6_f_952_24184)">
<ellipse cx="61.4471" cy="163.708" rx="61.4471" ry="163.708" transform="matrix(0.846366 -0.532602 0.656984 0.753905 -153.579 -49.8912)" fill="url(#paint4_radial_952_24184)" style="mix-blend-mode:plus-lighter"/>
</g>
</g>
<g filter="url(#filter7_d_952_24184)">
<circle cx="330.466" cy="50.2149" r="0.635953" transform="rotate(-180 330.466 50.2149)" fill="#51E1C8" fill-opacity="0.88" shape-rendering="crispEdges"/>
</g>
<g filter="url(#filter8_d_952_24184)">
<circle cx="241.561" cy="21.6663" r="0.635953" transform="rotate(-180 241.561 21.6663)" fill="#51E1C8" fill-opacity="0.88" shape-rendering="crispEdges"/>
</g>
<g filter="url(#filter9_d_952_24184)">
<circle cx="338.181" cy="67.9612" r="0.635953" transform="rotate(-180 338.181 67.9612)" fill="#51E1C8" fill-opacity="0.88" shape-rendering="crispEdges"/>
</g>
<g filter="url(#filter10_d_952_24184)">
<circle cx="270.079" cy="15.0401" r="0.317976" transform="rotate(-180 270.079 15.0401)" fill="#51E1C8" fill-opacity="0.88" shape-rendering="crispEdges"/>
</g>
<g filter="url(#filter11_d_952_24184)">
<circle cx="248.188" cy="82.1677" r="0.317976" transform="rotate(-180 248.188 82.1677)" fill="#51E1C8" fill-opacity="0.88" shape-rendering="crispEdges"/>
</g>
<g filter="url(#filter12_d_952_24184)">
<circle cx="298.659" cy="24.7526" r="0.635953" transform="rotate(-180 298.659 24.7526)" fill="#51E1C8" fill-opacity="0.88" shape-rendering="crispEdges"/>
</g>
<path d="M339.5 52H291.194C290.429 52 289.677 52.2062 289.019 52.5969L273 62.1053M106 115H182.718C183.483 115 184.234 114.794 184.893 114.403L201.577 104.5" stroke="url(#paint5_linear_952_24184)" stroke-opacity="0.4" stroke-width="0.71"/>
<path d="M350.503 59H302.197C301.432 59 300.68 59.2062 300.022 59.5969L284.003 69.1053M110.5 125.5H187.243C187.992 125.5 188.729 125.302 189.377 124.927L212.58 111.5" stroke="url(#paint6_linear_952_24184)" stroke-opacity="0.4" stroke-width="0.71"/>
<g filter="url(#filter13_f_952_24184)">
<circle cx="266.588" cy="49.1964" r="3.21145" fill="#51E1C8"/>
</g>
<g filter="url(#filter14_i_952_24184)">
<circle cx="4.81717" cy="4.81717" r="4.81717" transform="matrix(-1 0 0 1 271.407 45.1821)" fill="white" fill-opacity="0.02"/>
</g>
<circle cx="2.67621" cy="2.67621" r="2.67621" transform="matrix(-1 0 0 1 269.267 47.3236)" fill="#51E1C8"/>
<path fill-rule="evenodd" clip-rule="evenodd" d="M247.01 117.631L305.584 83.5856C305.907 83.3975 306.132 83.1249 306.259 82.819H306.793V91.1827C306.793 92.3287 306.183 93.3878 305.192 93.9625L247.018 127.681C245.003 128.849 242.514 128.835 240.512 127.645L183.862 93.9681C182.888 93.389 182.291 92.3396 182.291 91.2063V82.819H182.767C182.892 83.1198 183.112 83.3886 183.427 83.5765L240.491 117.595C242.496 118.791 244.992 118.805 247.01 117.631Z" fill="url(#paint7_linear_952_24184)"/>
<path d="M305.584 83.5856L305.785 83.9328V83.9328L305.584 83.5856ZM247.01 117.631L246.809 117.284L247.01 117.631ZM306.259 82.819V82.4173H305.991L305.889 82.6649L306.259 82.819ZM306.793 82.819H307.195V82.4173H306.793V82.819ZM305.192 93.9625L304.99 93.615V93.615L305.192 93.9625ZM247.018 127.681L247.219 128.029L247.018 127.681ZM240.512 127.645L240.717 127.3L240.512 127.645ZM183.862 93.9681L184.067 93.6229L183.862 93.9681ZM182.291 82.819V82.4173H181.889V82.819H182.291ZM182.767 82.819L183.138 82.6648L183.035 82.4173H182.767V82.819ZM183.427 83.5765L183.633 83.2315H183.633L183.427 83.5765ZM240.491 117.595L240.696 117.25L240.491 117.595ZM305.382 83.2384L246.809 117.284L247.212 117.979L305.785 83.9328L305.382 83.2384ZM305.889 82.6649C305.794 82.8921 305.627 83.0958 305.382 83.2384L305.785 83.9328C306.187 83.6993 306.471 83.3576 306.63 82.973L305.889 82.6649ZM306.259 83.2206H306.793V82.4173H306.259V83.2206ZM306.392 82.819V91.1827H307.195V82.819H306.392ZM306.392 91.1827C306.392 92.1854 305.858 93.1122 304.99 93.615L305.393 94.31C306.508 93.6635 307.195 92.4719 307.195 91.1827H306.392ZM304.99 93.615L246.816 127.334L247.219 128.029L305.393 94.31L304.99 93.615ZM246.816 127.334C244.927 128.429 242.594 128.416 240.717 127.3L240.306 127.99C242.434 129.255 245.078 129.27 247.219 128.029L246.816 127.334ZM240.717 127.3L184.067 93.6229L183.657 94.3133L240.306 127.99L240.717 127.3ZM184.067 93.6229C183.215 93.1162 182.693 92.1979 182.693 91.2063H181.889C181.889 92.4812 182.561 93.6618 183.657 94.3133L184.067 93.6229ZM182.693 91.2063V82.819H181.889V91.2063H182.693ZM182.291 83.2206H182.767V82.4173H182.291V83.2206ZM183.633 83.2315C183.394 83.0891 183.23 82.8883 183.138 82.6648L182.396 82.9731C182.553 83.3513 182.83 83.688 183.221 83.9215L183.633 83.2315ZM240.696 117.25L183.633 83.2315L183.221 83.9215L240.285 117.94L240.696 117.25ZM246.809 117.284C244.916 118.384 242.576 118.371 240.696 117.25L240.285 117.94C242.416 119.21 245.068 119.225 247.212 117.979L246.809 117.284Z" fill="url(#paint8_linear_952_24184)"/>
<path d="M305.583 83.5855L247.01 117.631C244.992 118.804 242.496 118.791 240.49 117.595L183.427 83.5764C182.376 82.9499 182.383 81.4254 183.44 80.8089L240.542 47.4991C242.522 46.3446 244.966 46.3312 246.957 47.464L305.57 80.8002C306.647 81.4128 306.655 82.9628 305.583 83.5855Z" fill="url(#paint9_linear_952_24184)" stroke="url(#paint10_linear_952_24184)" stroke-width="0.803241"/>
<rect x="256.594" y="23.919" width="7.14541" height="1.62274" rx="0.81137" fill="#51E1C8" stroke="#51E1C8" stroke-width="1.19013"/>
<rect x="217.809" y="73.919" width="7.14541" height="1.62274" rx="0.81137" fill="#51E1C8" stroke="#51E1C8" stroke-width="1.19013"/>
<g filter="url(#filter15_d_952_24184)">
<path d="M239.638 70.1161V68.0913C237.921 67.872 236.479 67.2476 235.312 66.2184C234.146 65.1722 233.571 63.7126 233.587 61.8397H236.112C236.146 62.9871 236.487 63.8898 237.137 64.5479C237.804 65.1891 238.638 65.6025 239.638 65.7881V60.0173C238.838 59.8149 238.137 59.5955 237.537 59.3593C236.954 59.123 236.362 58.8193 235.762 58.4481C235.179 58.0769 234.729 57.6129 234.412 57.056C234.096 56.4992 233.937 55.858 233.937 55.1324C233.937 53.7826 234.471 52.6267 235.537 51.6649C236.604 50.7031 237.971 50.1632 239.638 50.0451V48.324H241.288V50.0704C243.004 50.256 244.404 50.8634 245.488 51.8927C246.571 52.9051 247.13 54.2213 247.163 55.8411L244.613 55.8158C244.529 54.8034 244.179 54.0188 243.563 53.462C242.963 52.8883 242.204 52.5255 241.288 52.3736V58.0178C243.304 58.4565 244.788 59.0893 245.738 59.9161C246.705 60.7429 247.188 61.8397 247.188 63.2064C247.188 64.6407 246.663 65.8134 245.613 66.7246C244.563 67.6189 243.121 68.0998 241.288 68.1672V70.1161H239.638ZM239.638 57.6382V52.2977C238.604 52.3821 237.796 52.6858 237.212 53.2089C236.646 53.7319 236.362 54.3394 236.362 55.0312C236.362 55.6724 236.637 56.1955 237.187 56.6004C237.737 56.9885 238.554 57.3344 239.638 57.6382ZM241.288 65.8893C242.321 65.8387 243.146 65.5856 243.763 65.13C244.396 64.6576 244.713 64.0417 244.713 63.2824C244.713 62.5231 244.429 61.9325 243.863 61.5106C243.296 61.0719 242.438 60.7007 241.288 60.397V65.8893Z" fill="#51E1C8"/>
<path d="M240.692 66.5144L241.316 66.4841C242.358 66.4331 243.258 66.188 243.976 65.7078L244.116 65.6082L244.118 65.6072C244.895 65.0278 245.308 64.2379 245.308 63.282C245.308 62.3512 244.948 61.5764 244.218 61.033H244.217C243.559 60.5273 242.616 60.1329 241.439 59.822L240.692 59.6248V66.5144ZM239.589 51.7048C238.538 51.7907 237.641 52.0904 236.95 52.6501L236.815 52.7654L236.809 52.7712C236.135 53.3926 235.768 54.1532 235.768 55.031C235.768 55.8226 236.098 56.4836 236.709 56.9822L236.835 57.0798L236.845 57.0867C237.475 57.5313 238.366 57.8993 239.477 58.2107L240.232 58.4226V51.6521L239.589 51.7048ZM240.232 59.5544L239.783 59.4402C239.197 59.2918 238.671 59.1352 238.203 58.9714L237.756 58.8054C237.211 58.5843 236.653 58.2987 236.082 57.946C235.637 57.6631 235.291 57.3254 235.034 56.9333L234.93 56.7615C234.671 56.3058 234.532 55.7687 234.532 55.1326C234.532 54.036 234.931 53.0896 235.764 52.2693L235.936 52.1072C236.888 51.2483 238.123 50.7488 239.68 50.6384L240.232 50.5994V48.9187H240.692V50.6042L241.224 50.6619C242.731 50.8249 243.943 51.3297 244.892 52.155L245.078 52.324L245.082 52.3279C245.9 53.0921 246.383 54.0518 246.524 55.239L245.134 55.2253C244.971 54.337 244.591 53.588 243.962 53.0203H243.961C243.266 52.3613 242.399 51.9548 241.385 51.7869L240.692 51.6716V58.4978L241.161 58.5994C243.012 59.0021 244.333 59.5582 245.184 60.2292L245.348 60.365L245.351 60.3679C246.174 61.0725 246.593 61.9993 246.593 63.2068C246.593 64.4728 246.139 65.4777 245.227 66.2712C244.308 67.0538 243.009 67.5088 241.266 67.573L240.692 67.5935V69.5212H240.232V67.5671L239.713 67.5007C238.102 67.2949 236.777 66.715 235.71 65.7751C234.814 64.9714 234.298 63.8772 234.2 62.4343H235.562C235.684 63.4422 236.057 64.2999 236.714 64.9656L236.725 64.9763C237.483 65.7061 238.427 66.1682 239.529 66.3728L240.232 66.5037V59.5544Z" stroke="#51E1C8" stroke-width="1.19013"/>
</g>
<g opacity="0.6">
<path d="M243.336 -19.0266V103.869L205.985 82.5833V-40.7141L243.336 -19.0266Z" fill="url(#paint11_linear_952_24184)" style="mix-blend-mode:screen"/>
</g>
<g opacity="0.6">
<path d="M242.934 -62V60.8958L205.985 82.5833V-40.7141L242.934 -62Z" fill="url(#paint12_linear_952_24184)" style="mix-blend-mode:screen"/>
</g>
<g opacity="0.6">
<path d="M243.336 -19.0267V103.869L280.687 82.1816V-32.2802L243.336 -19.0267Z" fill="url(#paint13_linear_952_24184)" style="mix-blend-mode:screen"/>
</g>
<g opacity="0.6">
<path d="M242.935 -62V60.8958L280.687 82.1817V-32.2801L242.935 -62Z" fill="url(#paint14_linear_952_24184)" style="mix-blend-mode:screen"/>
</g>
<g filter="url(#filter16_f_952_24184)">
<circle cx="224" cy="28" r="4" fill="#51E1C8"/>
</g>
<g filter="url(#filter17_i_952_24184)">
<circle cx="6" cy="6" r="6" transform="matrix(-1 0 0 1 230 23)" fill="white" fill-opacity="0.02"/>
</g>
<circle cx="3.33333" cy="3.33333" r="3.33333" transform="matrix(-1 0 0 1 227.335 25.6674)" fill="#51E1C8"/>
</g>
<defs>
<filter id="filter0_f_952_24184" x="-345" y="-504" width="1126" height="635" filterUnits="userSpaceOnUse" color-interpolation-filters="sRGB">
<feFlood flood-opacity="0" result="BackgroundImageFix"/>
<feBlend mode="normal" in="SourceGraphic" in2="BackgroundImageFix" result="shape"/>
<feGaussianBlur stdDeviation="50" result="effect1_foregroundBlur_952_24184"/>
</filter>
<filter id="filter1_f_952_24184" x="-177.323" y="-220.013" width="413.462" height="413.842" filterUnits="userSpaceOnUse" color-interpolation-filters="sRGB">
<feFlood flood-opacity="0" result="BackgroundImageFix"/>
<feBlend mode="normal" in="SourceGraphic" in2="BackgroundImageFix" result="shape"/>
<feGaussianBlur stdDeviation="26.3687" result="effect1_foregroundBlur_952_24184"/>
</filter>
<filter id="filter2_f_952_24184" x="-232.664" y="-245.322" width="634.75" height="555.837" filterUnits="userSpaceOnUse" color-interpolation-filters="sRGB">
<feFlood flood-opacity="0" result="BackgroundImageFix"/>
<feBlend mode="normal" in="SourceGraphic" in2="BackgroundImageFix" result="shape"/>
<feGaussianBlur stdDeviation="95.2288" result="effect1_foregroundBlur_952_24184"/>
</filter>
<filter id="filter3_f_952_24184" x="-46.1122" y="-77.0752" width="291.38" height="307.825" filterUnits="userSpaceOnUse" color-interpolation-filters="sRGB">
<feFlood flood-opacity="0" result="BackgroundImageFix"/>
<feBlend mode="normal" in="SourceGraphic" in2="BackgroundImageFix" result="shape"/>
<feGaussianBlur stdDeviation="13.0976" result="effect1_foregroundBlur_952_24184"/>
</filter>
<filter id="filter4_f_952_24184" x="-42.9745" y="-164.254" width="369.967" height="402.844" filterUnits="userSpaceOnUse" color-interpolation-filters="sRGB">
<feFlood flood-opacity="0" result="BackgroundImageFix"/>
<feBlend mode="normal" in="SourceGraphic" in2="BackgroundImageFix" result="shape"/>
<feGaussianBlur stdDeviation="13.0976" result="effect1_foregroundBlur_952_24184"/>
</filter>
<filter id="filter5_f_952_24184" x="-1.81041" y="-147.498" width="291.38" height="307.825" filterUnits="userSpaceOnUse" color-interpolation-filters="sRGB">
<feFlood flood-opacity="0" result="BackgroundImageFix"/>
<feBlend mode="normal" in="SourceGraphic" in2="BackgroundImageFix" result="shape"/>
<feGaussianBlur stdDeviation="13.0976" result="effect1_foregroundBlur_952_24184"/>
</filter>
<filter id="filter6_f_952_24184" x="-139.709" y="-113.11" width="291.38" height="307.825" filterUnits="userSpaceOnUse" color-interpolation-filters="sRGB">
<feFlood flood-opacity="0" result="BackgroundImageFix"/>
<feBlend mode="normal" in="SourceGraphic" in2="BackgroundImageFix" result="shape"/>
<feGaussianBlur stdDeviation="13.0976" result="effect1_foregroundBlur_952_24184"/>
</filter>
<filter id="filter7_d_952_24184" x="328.857" y="48.6056" width="3.21832" height="3.21868" filterUnits="userSpaceOnUse" color-interpolation-filters="sRGB">
<feFlood flood-opacity="0" result="BackgroundImageFix"/>
<feColorMatrix in="SourceAlpha" type="matrix" values="0 0 0 0 0 0 0 0 0 0 0 0 0 0 0 0 0 0 127 0" result="hardAlpha"/>
<feOffset/>
<feGaussianBlur stdDeviation="0.486708"/>
<feComposite in2="hardAlpha" operator="out"/>
<feColorMatrix type="matrix" values="0 0 0 0 0.815686 0 0 0 0 0.937255 0 0 0 0 0.901961 0 0 0 1 0"/>
<feBlend mode="normal" in2="BackgroundImageFix" result="effect1_dropShadow_952_24184"/>
<feBlend mode="normal" in="SourceGraphic" in2="effect1_dropShadow_952_24184" result="shape"/>
</filter>
<filter id="filter8_d_952_24184" x="239.952" y="20.057" width="3.21832" height="3.21868" filterUnits="userSpaceOnUse" color-interpolation-filters="sRGB">
<feFlood flood-opacity="0" result="BackgroundImageFix"/>
<feColorMatrix in="SourceAlpha" type="matrix" values="0 0 0 0 0 0 0 0 0 0 0 0 0 0 0 0 0 0 127 0" result="hardAlpha"/>
<feOffset/>
<feGaussianBlur stdDeviation="0.486708"/>
<feComposite in2="hardAlpha" operator="out"/>
<feColorMatrix type="matrix" values="0 0 0 0 0.815686 0 0 0 0 0.937255 0 0 0 0 0.901961 0 0 0 1 0"/>
<feBlend mode="normal" in2="BackgroundImageFix" result="effect1_dropShadow_952_24184"/>
<feBlend mode="normal" in="SourceGraphic" in2="effect1_dropShadow_952_24184" result="shape"/>
</filter>
<filter id="filter9_d_952_24184" x="336.572" y="66.3519" width="3.21832" height="3.21868" filterUnits="userSpaceOnUse" color-interpolation-filters="sRGB">
<feFlood flood-opacity="0" result="BackgroundImageFix"/>
<feColorMatrix in="SourceAlpha" type="matrix" values="0 0 0 0 0 0 0 0 0 0 0 0 0 0 0 0 0 0 127 0" result="hardAlpha"/>
<feOffset/>
<feGaussianBlur stdDeviation="0.486708"/>
<feComposite in2="hardAlpha" operator="out"/>
<feColorMatrix type="matrix" values="0 0 0 0 0.815686 0 0 0 0 0.937255 0 0 0 0 0.901961 0 0 0 1 0"/>
<feBlend mode="normal" in2="BackgroundImageFix" result="effect1_dropShadow_952_24184"/>
<feBlend mode="normal" in="SourceGraphic" in2="effect1_dropShadow_952_24184" result="shape"/>
</filter>
<filter id="filter10_d_952_24184" x="268.788" y="13.7486" width="2.58257" height="2.58282" filterUnits="userSpaceOnUse" color-interpolation-filters="sRGB">
<feFlood flood-opacity="0" result="BackgroundImageFix"/>
<feColorMatrix in="SourceAlpha" type="matrix" values="0 0 0 0 0 0 0 0 0 0 0 0 0 0 0 0 0 0 127 0" result="hardAlpha"/>
<feOffset/>
<feGaussianBlur stdDeviation="0.486708"/>
<feComposite in2="hardAlpha" operator="out"/>
<feColorMatrix type="matrix" values="0 0 0 0 0.815686 0 0 0 0 0.937255 0 0 0 0 0.901961 0 0 0 1 0"/>
<feBlend mode="normal" in2="BackgroundImageFix" result="effect1_dropShadow_952_24184"/>
<feBlend mode="normal" in="SourceGraphic" in2="effect1_dropShadow_952_24184" result="shape"/>
</filter>
<filter id="filter11_d_952_24184" x="246.897" y="80.8763" width="2.58257" height="2.58282" filterUnits="userSpaceOnUse" color-interpolation-filters="sRGB">
<feFlood flood-opacity="0" result="BackgroundImageFix"/>
<feColorMatrix in="SourceAlpha" type="matrix" values="0 0 0 0 0 0 0 0 0 0 0 0 0 0 0 0 0 0 127 0" result="hardAlpha"/>
<feOffset/>
<feGaussianBlur stdDeviation="0.486708"/>
<feComposite in2="hardAlpha" operator="out"/>
<feColorMatrix type="matrix" values="0 0 0 0 0.815686 0 0 0 0 0.937255 0 0 0 0 0.901961 0 0 0 1 0"/>
<feBlend mode="normal" in2="BackgroundImageFix" result="effect1_dropShadow_952_24184"/>
<feBlend mode="normal" in="SourceGraphic" in2="effect1_dropShadow_952_24184" result="shape"/>
</filter>
<filter id="filter12_d_952_24184" x="297.05" y="23.1433" width="3.21832" height="3.21868" filterUnits="userSpaceOnUse" color-interpolation-filters="sRGB">
<feFlood flood-opacity="0" result="BackgroundImageFix"/>
<feColorMatrix in="SourceAlpha" type="matrix" values="0 0 0 0 0 0 0 0 0 0 0 0 0 0 0 0 0 0 127 0" result="hardAlpha"/>
<feOffset/>
<feGaussianBlur stdDeviation="0.486708"/>
<feComposite in2="hardAlpha" operator="out"/>
<feColorMatrix type="matrix" values="0 0 0 0 0.815686 0 0 0 0 0.937255 0 0 0 0 0.901961 0 0 0 1 0"/>
<feBlend mode="normal" in2="BackgroundImageFix" result="effect1_dropShadow_952_24184"/>
<feBlend mode="normal" in="SourceGraphic" in2="effect1_dropShadow_952_24184" result="shape"/>
</filter>
<filter id="filter13_f_952_24184" x="250.317" y="32.9246" width="32.5435" height="32.5435" filterUnits="userSpaceOnUse" color-interpolation-filters="sRGB">
<feFlood flood-opacity="0" result="BackgroundImageFix"/>
<feBlend mode="normal" in="SourceGraphic" in2="BackgroundImageFix" result="shape"/>
<feGaussianBlur stdDeviation="6.53017" result="effect1_foregroundBlur_952_24184"/>
</filter>
<filter id="filter14_i_952_24184" x="261.772" y="45.1821" width="9.63477" height="9.6344" filterUnits="userSpaceOnUse" color-interpolation-filters="sRGB">
<feFlood flood-opacity="0" result="BackgroundImageFix"/>
<feBlend mode="normal" in="SourceGraphic" in2="BackgroundImageFix" result="shape"/>
<feColorMatrix in="SourceAlpha" type="matrix" values="0 0 0 0 0 0 0 0 0 0 0 0 0 0 0 0 0 0 127 0" result="hardAlpha"/>
<feOffset/>
<feGaussianBlur stdDeviation="1.32472"/>
<feComposite in2="hardAlpha" operator="arithmetic" k2="-1" k3="1"/>
<feColorMatrix type="matrix" values="0 0 0 0 1 0 0 0 0 1 0 0 0 0 1 0 0 0 0.5 0"/>
<feBlend mode="normal" in2="shape" result="effect1_innerShadow_952_24184"/>
</filter>
<filter id="filter15_d_952_24184" x="227.587" y="46.324" width="25.6006" height="33.7921" filterUnits="userSpaceOnUse" color-interpolation-filters="sRGB">
<feFlood flood-opacity="0" result="BackgroundImageFix"/>
<feColorMatrix in="SourceAlpha" type="matrix" values="0 0 0 0 0 0 0 0 0 0 0 0 0 0 0 0 0 0 127 0" result="hardAlpha"/>
<feOffset dy="4"/>
<feGaussianBlur stdDeviation="3"/>
<feComposite in2="hardAlpha" operator="out"/>
<feColorMatrix type="matrix" values="0 0 0 0 0.317647 0 0 0 0 0.882353 0 0 0 0 0.784314 0 0 0 0.5 0"/>
<feBlend mode="normal" in2="BackgroundImageFix" result="effect1_dropShadow_952_24184"/>
<feBlend mode="normal" in="SourceGraphic" in2="effect1_dropShadow_952_24184" result="shape"/>
</filter>
<filter id="filter16_f_952_24184" x="209.155" y="13.1552" width="29.6896" height="29.6896" filterUnits="userSpaceOnUse" color-interpolation-filters="sRGB">
<feFlood flood-opacity="0" result="BackgroundImageFix"/>
<feBlend mode="normal" in="SourceGraphic" in2="BackgroundImageFix" result="shape"/>
<feGaussianBlur stdDeviation="5.42241" result="effect1_foregroundBlur_952_24184"/>
</filter>
<filter id="filter17_i_952_24184" x="218" y="23" width="12" height="12" filterUnits="userSpaceOnUse" color-interpolation-filters="sRGB">
<feFlood flood-opacity="0" result="BackgroundImageFix"/>
<feBlend mode="normal" in="SourceGraphic" in2="BackgroundImageFix" result="shape"/>
<feColorMatrix in="SourceAlpha" type="matrix" values="0 0 0 0 0 0 0 0 0 0 0 0 0 0 0 0 0 0 127 0" result="hardAlpha"/>
<feOffset/>
<feGaussianBlur stdDeviation="1.1"/>
<feComposite in2="hardAlpha" operator="arithmetic" k2="-1" k3="1"/>
<feColorMatrix type="matrix" values="0 0 0 0 1 0 0 0 0 1 0 0 0 0 1 0 0 0 0.5 0"/>
<feBlend mode="normal" in2="shape" result="effect1_innerShadow_952_24184"/>
</filter>
<linearGradient id="paint0_linear_952_24184" x1="246.504" y1="-119.508" x2="-645.832" y2="-556.09" gradientUnits="userSpaceOnUse">
<stop stop-color="#51E1C8"/>
<stop offset="1" stop-color="#26F7DD" stop-opacity="0.1"/>
</linearGradient>
<radialGradient id="paint1_radial_952_24184" cx="0" cy="0" r="1" gradientUnits="userSpaceOnUse" gradientTransform="translate(61.4471 33.9527) rotate(91.1114) scale(285.879 27.0204)">
<stop stop-color="#D9D9D9"/>
<stop offset="1" stop-opacity="0"/>
</radialGradient>
<radialGradient id="paint2_radial_952_24184" cx="0" cy="0" r="1" gradientUnits="userSpaceOnUse" gradientTransform="translate(61.4471 47.3473) rotate(90.7971) scale(398.624 27.0228)">
<stop stop-color="#D9D9D9"/>
<stop offset="1" stop-opacity="0"/>
</radialGradient>
<radialGradient id="paint3_radial_952_24184" cx="0" cy="0" r="1" gradientUnits="userSpaceOnUse" gradientTransform="translate(61.4471 33.9527) rotate(91.1114) scale(285.879 27.0204)">
<stop stop-color="#D9D9D9"/>
<stop offset="1" stop-opacity="0"/>
</radialGradient>
<radialGradient id="paint4_radial_952_24184" cx="0" cy="0" r="1" gradientUnits="userSpaceOnUse" gradientTransform="translate(61.4471 33.9526) rotate(94.1745) scale(352.797 33.8626)">
<stop stop-color="#D9D9D9"/>
<stop offset="1" stop-opacity="0"/>
</radialGradient>
<linearGradient id="paint5_linear_952_24184" x1="335" y1="52" x2="97.5" y2="103.5" gradientUnits="userSpaceOnUse">
<stop stop-color="#1DAA91" stop-opacity="0"/>
<stop offset="0.274038" stop-color="#1DAA91"/>
<stop offset="0.769231" stop-color="#1B9D86" stop-opacity="0.87234"/>
<stop offset="1" stop-color="#0C443A" stop-opacity="0"/>
</linearGradient>
<linearGradient id="paint6_linear_952_24184" x1="346" y1="59" x2="108.5" y2="110.5" gradientUnits="userSpaceOnUse">
<stop stop-color="#1DAA91" stop-opacity="0"/>
<stop offset="0.274038" stop-color="#1DAA91"/>
<stop offset="0.769231" stop-color="#1B9D86" stop-opacity="0.87234"/>
<stop offset="1" stop-color="#0C443A" stop-opacity="0"/>
</linearGradient>
<linearGradient id="paint7_linear_952_24184" x1="244.542" y1="82.819" x2="244.542" y2="237.267" gradientUnits="userSpaceOnUse">
<stop stop-color="#122528" stop-opacity="0"/>
<stop offset="1" stop-color="#50E3CA"/>
</linearGradient>
<linearGradient id="paint8_linear_952_24184" x1="244.542" y1="82.819" x2="244.542" y2="128.548" gradientUnits="userSpaceOnUse">
<stop stop-color="#37DDBF" stop-opacity="0.05"/>
<stop offset="1" stop-color="#37DDBF" stop-opacity="0.6"/>
</linearGradient>
<linearGradient id="paint9_linear_952_24184" x1="244.543" y1="68.6659" x2="244.543" y2="131.891" gradientUnits="userSpaceOnUse">
<stop stop-color="#122528" stop-opacity="0"/>
<stop offset="1" stop-color="#50E3CA"/>
</linearGradient>
<linearGradient id="paint10_linear_952_24184" x1="244.543" y1="82.5152" x2="244.543" y2="119.532" gradientUnits="userSpaceOnUse">
<stop stop-color="#37DDBF" stop-opacity="0.05"/>
<stop offset="1" stop-color="#37DDBF" stop-opacity="0.6"/>
</linearGradient>
<linearGradient id="paint11_linear_952_24184" x1="237.499" y1="27.5" x2="217.231" y2="91.0174" gradientUnits="userSpaceOnUse">
<stop stop-color="#1DAA91" stop-opacity="0"/>
<stop offset="1" stop-color="#1DAA91" stop-opacity="0.6"/>
</linearGradient>
<linearGradient id="paint12_linear_952_24184" x1="209.499" y1="14" x2="226.468" y2="70.9363" gradientUnits="userSpaceOnUse">
<stop stop-color="#1DAA91" stop-opacity="0"/>
<stop offset="1" stop-color="#1DAA91" stop-opacity="0.4"/>
</linearGradient>
<linearGradient id="paint13_linear_952_24184" x1="230.999" y1="36" x2="262.011" y2="97.0416" gradientUnits="userSpaceOnUse">
<stop stop-color="#1DAA91" stop-opacity="0"/>
<stop offset="1" stop-color="#1DAA91" stop-opacity="0.6"/>
</linearGradient>
<linearGradient id="paint14_linear_952_24184" x1="280.999" y1="18.5" x2="261.811" y2="72.9445" gradientUnits="userSpaceOnUse">
<stop stop-color="#1DAA91" stop-opacity="0"/>
<stop offset="1" stop-color="#1DAA91" stop-opacity="0.4"/>
</linearGradient>
<clipPath id="clip0_952_24184">
<rect width="344" height="240" fill="white"/>
</clipPath>
</defs>
</svg>
