<svg width="345" height="241" viewBox="0 0 345 241" fill="none" xmlns="http://www.w3.org/2000/svg">
<g style="mix-blend-mode:lighten" opacity="0.15" filter="url(#filter0_f_952_24339)">
<ellipse cx="218" cy="-185.5" rx="463" ry="217.5" transform="rotate(180 218 -185.5)" fill="#1DAA91"/>
</g>
<g opacity="0.8" filter="url(#filter1_f_952_24339)">
<rect width="291.519" height="236.97" transform="matrix(1 0 0 -1 10.6973 130.085)" fill="url(#paint0_radial_952_24339)"/>
</g>
<g opacity="0.8" filter="url(#filter2_f_952_24339)">
<rect x="307.113" y="107.529" width="229.359" height="160.602" transform="rotate(180 307.113 107.529)" fill="url(#paint1_radial_952_24339)"/>
</g>
<g style="mix-blend-mode:color-dodge" filter="url(#filter3_f_952_24339)">
<ellipse cx="50.8706" cy="135.53" rx="50.8706" ry="135.53" transform="matrix(0.846366 -0.532602 0.656984 0.753905 90.1738 -85.8124)" fill="url(#paint2_radial_952_24339)" style="mix-blend-mode:plus-lighter"/>
</g>
<g style="mix-blend-mode:color-dodge" filter="url(#filter4_f_952_24339)">
<ellipse cx="50.8706" cy="135.53" rx="50.8706" ry="135.53" transform="matrix(0.965926 0.258819 -0.106458 0.994317 143.039 -111.852)" fill="url(#paint3_radial_952_24339)" style="mix-blend-mode:plus-lighter"/>
</g>
<g style="mix-blend-mode:color-dodge" filter="url(#filter5_f_952_24339)">
<ellipse cx="30.0606" cy="135.53" rx="30.0606" ry="135.53" transform="matrix(0.647157 0.762356 -0.653203 0.757182 145.057 -60)" fill="url(#paint4_radial_952_24339)" style="mix-blend-mode:plus-lighter"/>
</g>
<g style="mix-blend-mode:color-dodge" filter="url(#filter6_f_952_24339)">
<ellipse cx="30.0606" cy="135.53" rx="30.0606" ry="135.53" transform="matrix(0.866025 0.5 -0.360179 0.932883 167.631 -90)" fill="url(#paint5_radial_952_24339)" style="mix-blend-mode:plus-lighter"/>
</g>
<g style="mix-blend-mode:color-dodge" filter="url(#filter7_f_952_24339)">
<ellipse cx="23.3325" cy="135.53" rx="23.3325" ry="135.53" transform="matrix(0.986671 0.162725 -0.00831295 0.999965 162.254 -60)" fill="url(#paint6_radial_952_24339)" style="mix-blend-mode:plus-lighter"/>
</g>
<circle cx="178" cy="-11" r="85" fill="url(#paint7_linear_952_24339)" fill-opacity="0.06"/>
<circle cx="178" cy="-11" r="84.6449" stroke="url(#paint8_linear_952_24339)" stroke-opacity="0.2" stroke-width="0.710217"/>
<g clip-path="url(#clip0_952_24339)">
<rect x="36" y="45" width="55" height="29" rx="6" fill="url(#paint9_linear_952_24339)" fill-opacity="0.06"/>
<g opacity="0.6" filter="url(#filter8_f_952_24339)">
<ellipse cx="65.0744" cy="69.7388" rx="11.0744" ry="10.7388" fill="#1DAA91" fill-opacity="0.6"/>
</g>
<g opacity="0.6">
<g filter="url(#filter9_d_952_24339)">
<rect x="76.1055" y="67.5476" width="6.92152" height="2.3357" rx="1.16785" fill="white"/>
</g>
<g filter="url(#filter10_d_952_24339)">
<rect x="44.0215" y="49.64" width="6.92152" height="2.3357" rx="1.16785" fill="white"/>
</g>
<g filter="url(#filter11_d_952_24339)">
<path d="M62.8959 64.7354V63.7388C62.051 63.6309 61.3414 63.3236 60.7672 62.817C60.193 62.3021 59.9099 61.5838 59.9181 60.662H61.1609C61.1773 61.2267 61.3455 61.671 61.6654 61.9949C61.9936 62.3104 62.4037 62.5139 62.8959 62.6053V59.765C62.5022 59.6654 62.1576 59.5574 61.8623 59.4412C61.5752 59.3249 61.284 59.1754 60.9887 58.9927C60.7016 58.81 60.4801 58.5816 60.3242 58.3076C60.1683 58.0335 60.0904 57.7179 60.0904 57.3608C60.0904 56.6965 60.3529 56.1276 60.8779 55.6542C61.4029 55.1809 62.0756 54.9151 62.8959 54.857V54.0099H63.7081V54.8694C64.553 54.9608 65.2421 55.2597 65.7753 55.7663C66.3085 56.2646 66.5833 56.9124 66.5997 57.7096L65.3446 57.6972C65.3036 57.1989 65.1313 56.8127 64.8278 56.5387C64.5325 56.2563 64.1592 56.0778 63.7081 56.003V58.7809C64.7007 58.9969 65.4307 59.3083 65.8983 59.7152C66.3741 60.1221 66.612 60.662 66.612 61.3346C66.612 62.0405 66.3536 62.6177 65.8368 63.0662C65.32 63.5063 64.6104 63.743 63.7081 63.7762V64.7354H62.8959ZM62.8959 58.5941V55.9656C62.3873 56.0072 61.9895 56.1567 61.7024 56.4141C61.4234 56.6715 61.284 56.9705 61.284 57.311C61.284 57.6266 61.4193 57.884 61.6901 58.0833C61.9608 58.2744 62.3627 58.4446 62.8959 58.5941ZM63.7081 62.6551C64.2167 62.6302 64.6227 62.5056 64.9262 62.2814C65.238 62.0488 65.3938 61.7457 65.3938 61.372C65.3938 60.9983 65.2544 60.7076 64.9755 60.5C64.6966 60.2841 64.2741 60.1014 63.7081 59.9519V62.6551Z" fill="white"/>
</g>
</g>
</g>
<rect x="36.3551" y="45.3551" width="54.2898" height="28.2898" rx="5.64489" stroke="url(#paint10_linear_952_24339)" stroke-opacity="0.2" stroke-width="0.710217"/>
<circle cx="178" cy="-11" r="23" fill="url(#paint11_linear_952_24339)" fill-opacity="0.2"/>
<circle cx="178" cy="-11" r="22.6449" stroke="url(#paint12_linear_952_24339)" stroke-opacity="0.2" stroke-width="0.710217"/>
<path d="M178 -11L240 47.1468C245.854 40.9078 250.776 33.785 254.546 26L178 -11Z" fill="url(#paint13_linear_952_24339)" fill-opacity="0.2"/>
<path d="M254.07 26.1641C250.389 33.6843 245.624 40.5766 239.981 46.6416L179.938 -9.66992L254.07 26.1641Z" stroke="url(#paint14_linear_952_24339)" stroke-opacity="0.2" stroke-width="0.710217"/>
<g filter="url(#filter12_f_952_24339)">
<circle cx="116.001" cy="96.3333" r="2.66667" fill="#51E1C8"/>
</g>
<g filter="url(#filter13_i_952_24339)">
<circle cx="4" cy="4" r="4" transform="matrix(-1 0 0 1 120 93)" fill="white" fill-opacity="0.02"/>
</g>
<circle cx="2.22222" cy="2.22222" r="2.22222" transform="matrix(-1 0 0 1 118.223 94.7782)" fill="#51E1C8"/>
<g filter="url(#filter14_f_952_24339)">
<circle cx="79" cy="45" r="4" fill="#51E1C8"/>
</g>
<g filter="url(#filter15_i_952_24339)">
<circle cx="6" cy="6" r="6" transform="matrix(-1 0 0 1 85 40)" fill="white" fill-opacity="0.02"/>
</g>
<circle cx="3.33333" cy="3.33333" r="3.33333" transform="matrix(-1 0 0 1 82.3359 42.6674)" fill="#51E1C8"/>
<g filter="url(#filter16_f_952_24339)">
<circle cx="238" cy="75" r="4" fill="#51E1C8"/>
</g>
<g filter="url(#filter17_i_952_24339)">
<circle cx="6" cy="6" r="6" transform="matrix(-1 0 0 1 244 70)" fill="white" fill-opacity="0.02"/>
</g>
<circle cx="3.33333" cy="3.33333" r="3.33333" transform="matrix(-1 0 0 1 241.336 72.6674)" fill="#51E1C8"/>
<g filter="url(#filter18_d_952_24339)">
<circle cx="70.559" cy="12.9735" r="0.317976" transform="rotate(180 70.559 12.9735)" fill="#51E1C8" fill-opacity="0.88" shape-rendering="crispEdges"/>
</g>
<g filter="url(#filter19_d_952_24339)">
<circle cx="5.46463" cy="47.3767" r="0.635953" transform="rotate(180 5.46463 47.3767)" fill="#51E1C8" fill-opacity="0.88" shape-rendering="crispEdges"/>
</g>
<g filter="url(#filter20_d_952_24339)">
<circle cx="171.354" cy="103.702" r="0.635953" transform="rotate(180 171.354 103.702)" fill="#51E1C8" fill-opacity="0.88" shape-rendering="crispEdges"/>
</g>
<g filter="url(#filter21_d_952_24339)">
<circle cx="13.1805" cy="65.1231" r="0.635953" transform="rotate(180 13.1805 65.1231)" fill="#51E1C8" fill-opacity="0.88" shape-rendering="crispEdges"/>
</g>
<g filter="url(#filter22_d_952_24339)">
<circle cx="83.2215" cy="35.803" r="0.635953" transform="rotate(180 83.2215 35.803)" fill="#51E1C8" fill-opacity="0.88" shape-rendering="crispEdges"/>
</g>
<g filter="url(#filter23_d_952_24339)">
<circle cx="55.8988" cy="66.2127" r="0.317976" transform="rotate(180 55.8988 66.2127)" fill="#51E1C8" fill-opacity="0.88" shape-rendering="crispEdges"/>
</g>
<g filter="url(#filter24_d_952_24339)">
<circle cx="115.63" cy="20.3714" r="0.635953" transform="rotate(180 115.63 20.3714)" fill="#51E1C8" fill-opacity="0.88" shape-rendering="crispEdges"/>
</g>
<g clip-path="url(#clip1_952_24339)">
<rect x="254" y="86" width="53" height="53" rx="8.54912" fill="url(#paint15_linear_952_24339)" fill-opacity="0.06"/>
<g opacity="0.6" filter="url(#filter25_f_952_24339)">
<ellipse cx="255.152" cy="78.5108" rx="27.6522" ry="15.5543" fill="#1DAA91" fill-opacity="0.6"/>
</g>
<g filter="url(#filter26_d_952_24339)">
<path d="M272.487 116.493L270.777 114.783C270.08 114.085 270.08 112.938 270.777 112.24L272.487 110.53C272.78 110.238 273.016 109.664 273.016 109.259V106.84C273.016 105.85 273.826 105.04 274.816 105.04H277.235C277.64 105.04 278.213 104.804 278.506 104.512L280.216 102.802C280.913 102.104 282.061 102.104 282.758 102.802L284.468 104.512C284.761 104.804 285.335 105.04 285.74 105.04H288.158C289.148 105.04 289.958 105.85 289.958 106.84V109.259C289.958 109.664 290.195 110.238 290.487 110.53L292.197 112.24C292.895 112.938 292.895 114.085 292.197 114.783L290.487 116.493C290.195 116.785 289.958 117.359 289.958 117.764V120.183C289.958 121.173 289.148 121.983 288.158 121.983H285.74C285.335 121.983 284.761 122.219 284.468 122.512L282.758 124.222C282.061 124.919 280.913 124.919 280.216 124.222L278.506 122.512C278.213 122.219 277.64 121.983 277.235 121.983H274.816C273.826 121.983 273.016 121.173 273.016 120.183V117.764C273.016 117.348 272.78 116.774 272.487 116.493Z" stroke="#37DDBF" stroke-width="0.84375" stroke-linecap="round" stroke-linejoin="round"/>
<path d="M278.125 116.875L284.875 110.125" stroke="#37DDBF" stroke-width="0.84375" stroke-linecap="round" stroke-linejoin="round"/>
<path d="M284.306 116.313H284.316" stroke="#37DDBF" stroke-width="1.6875" stroke-linecap="round" stroke-linejoin="round"/>
<path d="M278.681 110.687H278.691" stroke="#37DDBF" stroke-width="1.6875" stroke-linecap="round" stroke-linejoin="round"/>
</g>
</g>
<rect x="254.337" y="86.3365" width="52.327" height="52.327" rx="8.21261" stroke="url(#paint16_linear_952_24339)" stroke-opacity="0.2" stroke-width="0.673016"/>
<defs>
<filter id="filter0_f_952_24339" x="-345" y="-503" width="1126" height="635" filterUnits="userSpaceOnUse" color-interpolation-filters="sRGB">
<feFlood flood-opacity="0" result="BackgroundImageFix"/>
<feBlend mode="normal" in="SourceGraphic" in2="BackgroundImageFix" result="shape"/>
<feGaussianBlur stdDeviation="50" result="effect1_foregroundBlur_952_24339"/>
</filter>
<filter id="filter1_f_952_24339" x="-14.6743" y="-132.256" width="342.263" height="287.713" filterUnits="userSpaceOnUse" color-interpolation-filters="sRGB">
<feFlood flood-opacity="0" result="BackgroundImageFix"/>
<feBlend mode="normal" in="SourceGraphic" in2="BackgroundImageFix" result="shape"/>
<feGaussianBlur stdDeviation="12.6858" result="effect1_foregroundBlur_952_24339"/>
</filter>
<filter id="filter2_f_952_24339" x="39.6966" y="-91.1303" width="305.474" height="236.716" filterUnits="userSpaceOnUse" color-interpolation-filters="sRGB">
<feFlood flood-opacity="0" result="BackgroundImageFix"/>
<feBlend mode="normal" in="SourceGraphic" in2="BackgroundImageFix" result="shape"/>
<feGaussianBlur stdDeviation="19.0286" result="effect1_foregroundBlur_952_24339"/>
</filter>
<filter id="filter3_f_952_24339" x="101.657" y="-138.15" width="241.226" height="254.841" filterUnits="userSpaceOnUse" color-interpolation-filters="sRGB">
<feFlood flood-opacity="0" result="BackgroundImageFix"/>
<feBlend mode="normal" in="SourceGraphic" in2="BackgroundImageFix" result="shape"/>
<feGaussianBlur stdDeviation="10.8432" result="effect1_foregroundBlur_952_24339"/>
</filter>
<filter id="filter4_f_952_24339" x="104.837" y="-121.024" width="145.822" height="314.195" filterUnits="userSpaceOnUse" color-interpolation-filters="sRGB">
<feFlood flood-opacity="0" result="BackgroundImageFix"/>
<feBlend mode="normal" in="SourceGraphic" in2="BackgroundImageFix" result="shape"/>
<feGaussianBlur stdDeviation="10.8432" result="effect1_foregroundBlur_952_24339"/>
</filter>
<filter id="filter5_f_952_24339" x="-36.3651" y="-61.3199" width="224.694" height="253.715" filterUnits="userSpaceOnUse" color-interpolation-filters="sRGB">
<feFlood flood-opacity="0" result="BackgroundImageFix"/>
<feBlend mode="normal" in="SourceGraphic" in2="BackgroundImageFix" result="shape"/>
<feGaussianBlur stdDeviation="10.8432" result="effect1_foregroundBlur_952_24339"/>
</filter>
<filter id="filter6_f_952_24339" x="67.8293" y="-97.5588" width="154.041" height="298.045" filterUnits="userSpaceOnUse" color-interpolation-filters="sRGB">
<feFlood flood-opacity="0" result="BackgroundImageFix"/>
<feBlend mode="normal" in="SourceGraphic" in2="BackgroundImageFix" result="shape"/>
<feGaussianBlur stdDeviation="10.8432" result="effect1_foregroundBlur_952_24339"/>
</filter>
<filter id="filter7_f_952_24339" x="139.413" y="-77.9438" width="89.4723" height="314.532" filterUnits="userSpaceOnUse" color-interpolation-filters="sRGB">
<feFlood flood-opacity="0" result="BackgroundImageFix"/>
<feBlend mode="normal" in="SourceGraphic" in2="BackgroundImageFix" result="shape"/>
<feGaussianBlur stdDeviation="10.8432" result="effect1_foregroundBlur_952_24339"/>
</filter>
<filter id="filter8_f_952_24339" x="40.5764" y="45.5764" width="48.9955" height="48.3248" filterUnits="userSpaceOnUse" color-interpolation-filters="sRGB">
<feFlood flood-opacity="0" result="BackgroundImageFix"/>
<feBlend mode="normal" in="SourceGraphic" in2="BackgroundImageFix" result="shape"/>
<feGaussianBlur stdDeviation="6.71178" result="effect1_foregroundBlur_952_24339"/>
</filter>
<filter id="filter9_d_952_24339" x="73.4208" y="64.8629" width="12.2913" height="7.70511" filterUnits="userSpaceOnUse" color-interpolation-filters="sRGB">
<feFlood flood-opacity="0" result="BackgroundImageFix"/>
<feColorMatrix in="SourceAlpha" type="matrix" values="0 0 0 0 0 0 0 0 0 0 0 0 0 0 0 0 0 0 127 0" result="hardAlpha"/>
<feOffset/>
<feGaussianBlur stdDeviation="1.34236"/>
<feComposite in2="hardAlpha" operator="out"/>
<feColorMatrix type="matrix" values="0 0 0 0 1 0 0 0 0 1 0 0 0 0 1 0 0 0 0.3 0"/>
<feBlend mode="normal" in2="BackgroundImageFix" result="effect1_dropShadow_952_24339"/>
<feBlend mode="normal" in="SourceGraphic" in2="effect1_dropShadow_952_24339" result="shape"/>
</filter>
<filter id="filter10_d_952_24339" x="41.3368" y="46.9553" width="12.2913" height="7.70511" filterUnits="userSpaceOnUse" color-interpolation-filters="sRGB">
<feFlood flood-opacity="0" result="BackgroundImageFix"/>
<feColorMatrix in="SourceAlpha" type="matrix" values="0 0 0 0 0 0 0 0 0 0 0 0 0 0 0 0 0 0 127 0" result="hardAlpha"/>
<feOffset/>
<feGaussianBlur stdDeviation="1.34236"/>
<feComposite in2="hardAlpha" operator="out"/>
<feColorMatrix type="matrix" values="0 0 0 0 1 0 0 0 0 1 0 0 0 0 1 0 0 0 0.3 0"/>
<feBlend mode="normal" in2="BackgroundImageFix" result="effect1_dropShadow_952_24339"/>
<feBlend mode="normal" in="SourceGraphic" in2="effect1_dropShadow_952_24339" result="shape"/>
</filter>
<filter id="filter11_d_952_24339" x="57.2333" y="51.3252" width="12.0628" height="16.0949" filterUnits="userSpaceOnUse" color-interpolation-filters="sRGB">
<feFlood flood-opacity="0" result="BackgroundImageFix"/>
<feColorMatrix in="SourceAlpha" type="matrix" values="0 0 0 0 0 0 0 0 0 0 0 0 0 0 0 0 0 0 127 0" result="hardAlpha"/>
<feOffset/>
<feGaussianBlur stdDeviation="1.34236"/>
<feComposite in2="hardAlpha" operator="out"/>
<feColorMatrix type="matrix" values="0 0 0 0 1 0 0 0 0 1 0 0 0 0 1 0 0 0 0.3 0"/>
<feBlend mode="normal" in2="BackgroundImageFix" result="effect1_dropShadow_952_24339"/>
<feBlend mode="normal" in="SourceGraphic" in2="effect1_dropShadow_952_24339" result="shape"/>
</filter>
<filter id="filter12_f_952_24339" x="102.489" y="82.8218" width="27.0236" height="27.023" filterUnits="userSpaceOnUse" color-interpolation-filters="sRGB">
<feFlood flood-opacity="0" result="BackgroundImageFix"/>
<feBlend mode="normal" in="SourceGraphic" in2="BackgroundImageFix" result="shape"/>
<feGaussianBlur stdDeviation="5.42241" result="effect1_foregroundBlur_952_24339"/>
</filter>
<filter id="filter13_i_952_24339" x="112" y="93" width="8" height="8" filterUnits="userSpaceOnUse" color-interpolation-filters="sRGB">
<feFlood flood-opacity="0" result="BackgroundImageFix"/>
<feBlend mode="normal" in="SourceGraphic" in2="BackgroundImageFix" result="shape"/>
<feColorMatrix in="SourceAlpha" type="matrix" values="0 0 0 0 0 0 0 0 0 0 0 0 0 0 0 0 0 0 127 0" result="hardAlpha"/>
<feOffset/>
<feGaussianBlur stdDeviation="1.1"/>
<feComposite in2="hardAlpha" operator="arithmetic" k2="-1" k3="1"/>
<feColorMatrix type="matrix" values="0 0 0 0 1 0 0 0 0 1 0 0 0 0 1 0 0 0 0.5 0"/>
<feBlend mode="normal" in2="shape" result="effect1_innerShadow_952_24339"/>
</filter>
<filter id="filter14_f_952_24339" x="64.1552" y="30.1552" width="29.6896" height="29.6896" filterUnits="userSpaceOnUse" color-interpolation-filters="sRGB">
<feFlood flood-opacity="0" result="BackgroundImageFix"/>
<feBlend mode="normal" in="SourceGraphic" in2="BackgroundImageFix" result="shape"/>
<feGaussianBlur stdDeviation="5.42241" result="effect1_foregroundBlur_952_24339"/>
</filter>
<filter id="filter15_i_952_24339" x="73" y="40" width="12" height="12" filterUnits="userSpaceOnUse" color-interpolation-filters="sRGB">
<feFlood flood-opacity="0" result="BackgroundImageFix"/>
<feBlend mode="normal" in="SourceGraphic" in2="BackgroundImageFix" result="shape"/>
<feColorMatrix in="SourceAlpha" type="matrix" values="0 0 0 0 0 0 0 0 0 0 0 0 0 0 0 0 0 0 127 0" result="hardAlpha"/>
<feOffset/>
<feGaussianBlur stdDeviation="1.1"/>
<feComposite in2="hardAlpha" operator="arithmetic" k2="-1" k3="1"/>
<feColorMatrix type="matrix" values="0 0 0 0 1 0 0 0 0 1 0 0 0 0 1 0 0 0 0.5 0"/>
<feBlend mode="normal" in2="shape" result="effect1_innerShadow_952_24339"/>
</filter>
<filter id="filter16_f_952_24339" x="223.155" y="60.1552" width="29.6896" height="29.6896" filterUnits="userSpaceOnUse" color-interpolation-filters="sRGB">
<feFlood flood-opacity="0" result="BackgroundImageFix"/>
<feBlend mode="normal" in="SourceGraphic" in2="BackgroundImageFix" result="shape"/>
<feGaussianBlur stdDeviation="5.42241" result="effect1_foregroundBlur_952_24339"/>
</filter>
<filter id="filter17_i_952_24339" x="232" y="70" width="12" height="12" filterUnits="userSpaceOnUse" color-interpolation-filters="sRGB">
<feFlood flood-opacity="0" result="BackgroundImageFix"/>
<feBlend mode="normal" in="SourceGraphic" in2="BackgroundImageFix" result="shape"/>
<feColorMatrix in="SourceAlpha" type="matrix" values="0 0 0 0 0 0 0 0 0 0 0 0 0 0 0 0 0 0 127 0" result="hardAlpha"/>
<feOffset/>
<feGaussianBlur stdDeviation="1.1"/>
<feComposite in2="hardAlpha" operator="arithmetic" k2="-1" k3="1"/>
<feColorMatrix type="matrix" values="0 0 0 0 1 0 0 0 0 1 0 0 0 0 1 0 0 0 0.5 0"/>
<feBlend mode="normal" in2="shape" result="effect1_innerShadow_952_24339"/>
</filter>
<filter id="filter18_d_952_24339" x="69.2668" y="11.6821" width="2.58355" height="2.58282" filterUnits="userSpaceOnUse" color-interpolation-filters="sRGB">
<feFlood flood-opacity="0" result="BackgroundImageFix"/>
<feColorMatrix in="SourceAlpha" type="matrix" values="0 0 0 0 0 0 0 0 0 0 0 0 0 0 0 0 0 0 127 0" result="hardAlpha"/>
<feOffset/>
<feGaussianBlur stdDeviation="0.486708"/>
<feComposite in2="hardAlpha" operator="out"/>
<feColorMatrix type="matrix" values="0 0 0 0 0.815686 0 0 0 0 0.937255 0 0 0 0 0.901961 0 0 0 1 0"/>
<feBlend mode="normal" in2="BackgroundImageFix" result="effect1_dropShadow_952_24339"/>
<feBlend mode="normal" in="SourceGraphic" in2="effect1_dropShadow_952_24339" result="shape"/>
</filter>
<filter id="filter19_d_952_24339" x="3.85569" y="45.7674" width="3.21832" height="3.21868" filterUnits="userSpaceOnUse" color-interpolation-filters="sRGB">
<feFlood flood-opacity="0" result="BackgroundImageFix"/>
<feColorMatrix in="SourceAlpha" type="matrix" values="0 0 0 0 0 0 0 0 0 0 0 0 0 0 0 0 0 0 127 0" result="hardAlpha"/>
<feOffset/>
<feGaussianBlur stdDeviation="0.486708"/>
<feComposite in2="hardAlpha" operator="out"/>
<feColorMatrix type="matrix" values="0 0 0 0 0.815686 0 0 0 0 0.937255 0 0 0 0 0.901961 0 0 0 1 0"/>
<feBlend mode="normal" in2="BackgroundImageFix" result="effect1_dropShadow_952_24339"/>
<feBlend mode="normal" in="SourceGraphic" in2="effect1_dropShadow_952_24339" result="shape"/>
</filter>
<filter id="filter20_d_952_24339" x="169.745" y="102.093" width="3.21832" height="3.21868" filterUnits="userSpaceOnUse" color-interpolation-filters="sRGB">
<feFlood flood-opacity="0" result="BackgroundImageFix"/>
<feColorMatrix in="SourceAlpha" type="matrix" values="0 0 0 0 0 0 0 0 0 0 0 0 0 0 0 0 0 0 127 0" result="hardAlpha"/>
<feOffset/>
<feGaussianBlur stdDeviation="0.486708"/>
<feComposite in2="hardAlpha" operator="out"/>
<feColorMatrix type="matrix" values="0 0 0 0 0.815686 0 0 0 0 0.937255 0 0 0 0 0.901961 0 0 0 1 0"/>
<feBlend mode="normal" in2="BackgroundImageFix" result="effect1_dropShadow_952_24339"/>
<feBlend mode="normal" in="SourceGraphic" in2="effect1_dropShadow_952_24339" result="shape"/>
</filter>
<filter id="filter21_d_952_24339" x="11.5715" y="63.5138" width="3.21832" height="3.21868" filterUnits="userSpaceOnUse" color-interpolation-filters="sRGB">
<feFlood flood-opacity="0" result="BackgroundImageFix"/>
<feColorMatrix in="SourceAlpha" type="matrix" values="0 0 0 0 0 0 0 0 0 0 0 0 0 0 0 0 0 0 127 0" result="hardAlpha"/>
<feOffset/>
<feGaussianBlur stdDeviation="0.486708"/>
<feComposite in2="hardAlpha" operator="out"/>
<feColorMatrix type="matrix" values="0 0 0 0 0.815686 0 0 0 0 0.937255 0 0 0 0 0.901961 0 0 0 1 0"/>
<feBlend mode="normal" in2="BackgroundImageFix" result="effect1_dropShadow_952_24339"/>
<feBlend mode="normal" in="SourceGraphic" in2="effect1_dropShadow_952_24339" result="shape"/>
</filter>
<filter id="filter22_d_952_24339" x="81.6125" y="34.1937" width="3.21832" height="3.21868" filterUnits="userSpaceOnUse" color-interpolation-filters="sRGB">
<feFlood flood-opacity="0" result="BackgroundImageFix"/>
<feColorMatrix in="SourceAlpha" type="matrix" values="0 0 0 0 0 0 0 0 0 0 0 0 0 0 0 0 0 0 127 0" result="hardAlpha"/>
<feOffset/>
<feGaussianBlur stdDeviation="0.486708"/>
<feComposite in2="hardAlpha" operator="out"/>
<feColorMatrix type="matrix" values="0 0 0 0 0.815686 0 0 0 0 0.937255 0 0 0 0 0.901961 0 0 0 1 0"/>
<feBlend mode="normal" in2="BackgroundImageFix" result="effect1_dropShadow_952_24339"/>
<feBlend mode="normal" in="SourceGraphic" in2="effect1_dropShadow_952_24339" result="shape"/>
</filter>
<filter id="filter23_d_952_24339" x="54.6076" y="64.9212" width="2.58257" height="2.58282" filterUnits="userSpaceOnUse" color-interpolation-filters="sRGB">
<feFlood flood-opacity="0" result="BackgroundImageFix"/>
<feColorMatrix in="SourceAlpha" type="matrix" values="0 0 0 0 0 0 0 0 0 0 0 0 0 0 0 0 0 0 127 0" result="hardAlpha"/>
<feOffset/>
<feGaussianBlur stdDeviation="0.486708"/>
<feComposite in2="hardAlpha" operator="out"/>
<feColorMatrix type="matrix" values="0 0 0 0 0.815686 0 0 0 0 0.937255 0 0 0 0 0.901961 0 0 0 1 0"/>
<feBlend mode="normal" in2="BackgroundImageFix" result="effect1_dropShadow_952_24339"/>
<feBlend mode="normal" in="SourceGraphic" in2="effect1_dropShadow_952_24339" result="shape"/>
</filter>
<filter id="filter24_d_952_24339" x="114.021" y="18.7621" width="3.21832" height="3.21868" filterUnits="userSpaceOnUse" color-interpolation-filters="sRGB">
<feFlood flood-opacity="0" result="BackgroundImageFix"/>
<feColorMatrix in="SourceAlpha" type="matrix" values="0 0 0 0 0 0 0 0 0 0 0 0 0 0 0 0 0 0 127 0" result="hardAlpha"/>
<feOffset/>
<feGaussianBlur stdDeviation="0.486708"/>
<feComposite in2="hardAlpha" operator="out"/>
<feColorMatrix type="matrix" values="0 0 0 0 0.815686 0 0 0 0 0.937255 0 0 0 0 0.901961 0 0 0 1 0"/>
<feBlend mode="normal" in2="BackgroundImageFix" result="effect1_dropShadow_952_24339"/>
<feBlend mode="normal" in="SourceGraphic" in2="effect1_dropShadow_952_24339" result="shape"/>
</filter>
<filter id="filter25_f_952_24339" x="216.207" y="51.6636" width="77.8903" height="53.6943" filterUnits="userSpaceOnUse" color-interpolation-filters="sRGB">
<feFlood flood-opacity="0" result="BackgroundImageFix"/>
<feBlend mode="normal" in="SourceGraphic" in2="BackgroundImageFix" result="shape"/>
<feGaussianBlur stdDeviation="5.64641" result="effect1_foregroundBlur_952_24339"/>
</filter>
<filter id="filter26_d_952_24339" x="248" y="80" width="67" height="67" filterUnits="userSpaceOnUse" color-interpolation-filters="sRGB">
<feFlood flood-opacity="0" result="BackgroundImageFix"/>
<feColorMatrix in="SourceAlpha" type="matrix" values="0 0 0 0 0 0 0 0 0 0 0 0 0 0 0 0 0 0 127 0" result="hardAlpha"/>
<feOffset/>
<feGaussianBlur stdDeviation="10"/>
<feComposite in2="hardAlpha" operator="out"/>
<feColorMatrix type="matrix" values="0 0 0 0 0.317647 0 0 0 0 0.882353 0 0 0 0 0.784314 0 0 0 1 0"/>
<feBlend mode="normal" in2="BackgroundImageFix" result="effect1_dropShadow_952_24339"/>
<feBlend mode="normal" in="SourceGraphic" in2="effect1_dropShadow_952_24339" result="shape"/>
</filter>
<radialGradient id="paint0_radial_952_24339" cx="0" cy="0" r="1" gradientUnits="userSpaceOnUse" gradientTransform="translate(262.633 277.214) rotate(-130.709) scale(272.31 60.8593)">
<stop stop-color="#F4FF7A" stop-opacity="0.82"/>
<stop offset="1" stop-color="#26F7DD" stop-opacity="0"/>
</radialGradient>
<radialGradient id="paint1_radial_952_24339" cx="0" cy="0" r="1" gradientUnits="userSpaceOnUse" gradientTransform="translate(436.895 238.559) rotate(-119.398) scale(109.632 24.7687)">
<stop stop-color="#51E1C8"/>
<stop offset="1" stop-color="#51E1C0" stop-opacity="0"/>
</radialGradient>
<radialGradient id="paint2_radial_952_24339" cx="0" cy="0" r="1" gradientUnits="userSpaceOnUse" gradientTransform="translate(50.8706 28.1086) rotate(94.1745) scale(292.072 28.034)">
<stop stop-color="#D9D9D9"/>
<stop offset="1" stop-opacity="0"/>
</radialGradient>
<radialGradient id="paint3_radial_952_24339" cx="0" cy="0" r="1" gradientUnits="userSpaceOnUse" gradientTransform="translate(50.8706 28.1086) rotate(94.1745) scale(292.072 28.034)">
<stop stop-color="#D9D9D9"/>
<stop offset="1" stop-opacity="0"/>
</radialGradient>
<radialGradient id="paint4_radial_952_24339" cx="0" cy="0" r="1" gradientUnits="userSpaceOnUse" gradientTransform="translate(30.0605 28.1086) rotate(92.4697) scale(291.568 16.5945)">
<stop stop-color="#D9D9D9"/>
<stop offset="1" stop-opacity="0"/>
</radialGradient>
<radialGradient id="paint5_radial_952_24339" cx="0" cy="0" r="1" gradientUnits="userSpaceOnUse" gradientTransform="translate(30.0605 28.1086) rotate(92.4697) scale(291.568 16.5945)">
<stop stop-color="#D9D9D9"/>
<stop offset="1" stop-opacity="0"/>
</radialGradient>
<radialGradient id="paint6_radial_952_24339" cx="0" cy="0" r="1" gradientUnits="userSpaceOnUse" gradientTransform="translate(23.3325 28.1086) rotate(91.9174) scale(291.461 12.8852)">
<stop stop-color="#D9D9D9"/>
<stop offset="1" stop-opacity="0"/>
</radialGradient>
<linearGradient id="paint7_linear_952_24339" x1="166.5" y1="81.5" x2="235.881" y2="43.9521" gradientUnits="userSpaceOnUse">
<stop stop-color="white" stop-opacity="0.5"/>
<stop offset="1" stop-color="white" stop-opacity="0"/>
</linearGradient>
<linearGradient id="paint8_linear_952_24339" x1="194" y1="-35.5" x2="145.208" y2="69.063" gradientUnits="userSpaceOnUse">
<stop offset="0.11858" stop-color="white" stop-opacity="0"/>
<stop offset="1" stop-color="white" stop-opacity="0.5"/>
</linearGradient>
<linearGradient id="paint9_linear_952_24339" x1="59.1579" y1="45" x2="32.4217" y2="74.9688" gradientUnits="userSpaceOnUse">
<stop stop-color="white" stop-opacity="0.5"/>
<stop offset="1" stop-color="white" stop-opacity="0"/>
</linearGradient>
<linearGradient id="paint10_linear_952_24339" x1="34.5526" y1="81.25" x2="44.667" y2="35.8136" gradientUnits="userSpaceOnUse">
<stop offset="0.11858" stop-color="white" stop-opacity="0"/>
<stop offset="1" stop-color="white" stop-opacity="0.5"/>
</linearGradient>
<linearGradient id="paint11_linear_952_24339" x1="204.878" y1="8.7195" x2="197.291" y2="-37.3108" gradientUnits="userSpaceOnUse">
<stop stop-color="white" stop-opacity="0.5"/>
<stop offset="1" stop-color="white" stop-opacity="0"/>
</linearGradient>
<linearGradient id="paint12_linear_952_24339" x1="182.944" y1="-21.7379" x2="208.487" y2="0.977295" gradientUnits="userSpaceOnUse">
<stop offset="0.11858" stop-color="white" stop-opacity="0"/>
<stop offset="1" stop-color="white" stop-opacity="0.5"/>
</linearGradient>
<linearGradient id="paint13_linear_952_24339" x1="261" y1="43" x2="253.632" y2="-15.8435" gradientUnits="userSpaceOnUse">
<stop stop-color="white" stop-opacity="0.5"/>
<stop offset="1" stop-color="white" stop-opacity="0"/>
</linearGradient>
<linearGradient id="paint14_linear_952_24339" x1="224.5" y1="4.5" x2="256.611" y2="42.092" gradientUnits="userSpaceOnUse">
<stop offset="0.11858" stop-color="white" stop-opacity="0"/>
<stop offset="1" stop-color="white" stop-opacity="0.5"/>
</linearGradient>
<linearGradient id="paint15_linear_952_24339" x1="276.316" y1="86" x2="233.231" y2="111.464" gradientUnits="userSpaceOnUse">
<stop stop-color="white" stop-opacity="0.5"/>
<stop offset="1" stop-color="white" stop-opacity="0"/>
</linearGradient>
<linearGradient id="paint16_linear_952_24339" x1="252.605" y1="152.25" x2="283.834" y2="78.2804" gradientUnits="userSpaceOnUse">
<stop offset="0.11858" stop-color="white" stop-opacity="0"/>
<stop offset="1" stop-color="white" stop-opacity="0.5"/>
</linearGradient>
<clipPath id="clip0_952_24339">
<rect x="36" y="45" width="55" height="29" rx="6" fill="white"/>
</clipPath>
<clipPath id="clip1_952_24339">
<rect x="254" y="86" width="53" height="53" rx="8.54912" fill="white"/>
</clipPath>
</defs>
</svg>
